<?xml version="1.0" encoding="UTF-8"?><svg id="Layer_2" xmlns="http://www.w3.org/2000/svg" viewBox="0 0 647 647"><defs><style>.cls-1{fill:#3b2b2f;}.cls-2{fill:none;}</style></defs><g id="Layer_1-2"><g><rect class="cls-2" width="647" height="647"/><path class="cls-1" d="M275.96,313.98c13.06,0,23.66,10.6,23.66,23.55s-10.6,23.55-23.66,23.55-23.66-10.6-23.66-23.55,10.6-23.55,23.66-23.55h0Zm118.74-105.57l-45.64,74.88,45.64,74.88h-43.63l-44.3-74.88,44.3-74.88h43.63Zm-118.74,51.34c13.06,0,23.66,10.6,23.66,23.55s-10.6,23.55-23.66,23.55-23.66-10.6-23.66-23.55,10.6-23.55,23.66-23.55h0Zm0-54.24c13.06,0,23.66,10.6,23.66,23.55s-10.6,23.55-23.66,23.55-23.66-10.6-23.66-23.55,10.6-23.55,23.66-23.55h0Z"/><g><path class="cls-1" d="M461.16,8.3H185.84c-25.48,0-46.22,20.73-46.22,46.22V592.08c0,25.48,20.73,46.22,46.22,46.22H461.16c25.48,0,46.22-20.73,46.22-46.22V54.51c0-25.48-20.73-46.22-46.22-46.22ZM185.84,21.72H461.16c18.08,0,32.8,14.71,32.8,32.79V477.9H153.05V54.51c0-18.08,14.71-32.79,32.79-32.79ZM461.16,624.87H185.84c-18.08,0-32.79-14.71-32.79-32.8v-100.76H493.95v100.76c0,18.08-14.71,32.8-32.8,32.8Z"/><path class="cls-1" d="M326.79,517.85c-21.36,0-38.74,17.38-38.74,38.74s17.38,38.74,38.74,38.74,38.74-17.38,38.74-38.74-17.38-38.74-38.74-38.74Zm0,64.06c-13.96,0-25.32-11.36-25.32-25.32s11.36-25.32,25.32-25.32,25.32,11.36,25.32,25.32-11.36,25.32-25.32,25.32Z"/></g></g></g></svg>