<?xml version="1.0" encoding="UTF-8"?><svg id="Layer_2" xmlns="http://www.w3.org/2000/svg" viewBox="0 0 647 647"><defs><style>.cls-1{fill:#3b2b2f;}.cls-2{fill:none;}</style></defs><g id="Layer_1-2"><g><rect class="cls-2" width="647" height="647"/><g><g><path class="cls-1" d="M357.01,297.48v317.61l255.18-123.34V171.33l-97.31,47.21v95.61c0,9.72-6.47,18.27-15.82,20.92l-2.81,.77c-7.64,2.16-15.58-2.28-17.74-9.92-.36-1.26-.54-2.55-.54-3.86v-85.06l-120.96,60.48Z"/><polygon class="cls-1" points="493.44 188.51 593.05 136.8 334.04 11.59 240.14 57.1 493.44 188.51"/><polygon class="cls-1" points="204.5 74.37 75.55 136.8 334.3 271.02 458.91 206.38 204.5 74.37"/></g><path class="cls-1" d="M51.09,174.53V494.86l257.98,131.84V304.93L51.09,174.53Zm98.16,282.77c-2.54,15.03-15.47,23.27-28.96,18.45l-.17-.06c-13.54-4.95-22.45-21.2-19.9-36.31,2.55-15.1,15.59-23.34,29.13-18.39,13.54,4.95,22.45,21.2,19.9,36.31Zm5.65-67.5c-2.54,15.03-15.47,23.27-28.96,18.45l-.17-.06c-13.54-4.95-22.45-21.2-19.9-36.31,2.55-15.1,15.59-23.34,29.13-18.39,13.54,4.95,22.45,21.2,19.9,36.31Zm0-67.5c-2.54,15.03-15.47,23.27-28.96,18.45l-.17-.06c-13.54-4.95-22.45-21.2-19.9-36.31,2.55-15.1,15.59-23.34,29.13-18.39,13.54,4.95,22.45,21.2,19.9,36.31Zm83.55,202.06l-45.73-16.71-33.99-110.9,67.49-76,44.92,17.67-66.64,74.85,33.95,111.08Z"/></g></g></g></svg>