<?xml version="1.0" encoding="UTF-8"?><svg id="Layer_2" xmlns="http://www.w3.org/2000/svg" viewBox="0 0 647 647"><defs><style>.cls-1{fill:#3b2b2f;}.cls-2{fill:none;}</style></defs><g id="Layer_1-2"><g><rect class="cls-2" width="647" height="647"/><g><path class="cls-1" d="M492.58,91.7h-56.34V50.67c0-7.88-6.43-14.31-14.31-14.31h-64.95c-7.88,0-14.31,6.43-14.31,14.31v41.03h-111.69V50.67c0-7.88-6.43-14.31-14.31-14.31h-64.95c-7.88,0-14.31,6.43-14.31,14.31v41.03h-53.44c-14.49,0-26.18,11.68-26.18,26.18V402.75l114.67,114.67h102.17c7.52,0,13.59-6.07,13.59-13.59s-6.07-13.59-13.59-13.59h-82.61v-103.62c0-7.34-5.98-13.32-13.32-13.32H84.97v-124.64H491.58v18.12c0,7.52,6.07,13.59,13.59,13.59s13.59-6.07,13.59-13.59V117.88c0-14.49-11.68-26.18-26.18-26.18ZM164.86,471.32l-70.83-70.83h70.83v70.83ZM369.75,63.53h39.22v51.36h-39.22V63.53h0Zm-205.35,0h39.22v51.36h-39.22V63.53Z"/><path class="cls-1" d="M468.21,340.34c65.58,0,119.02,52.63,119.02,117.21s-53.35,117.21-119.02,117.21-119.02-52.63-119.02-117.21,53.35-117.21,119.02-117.21m0-27.17c-80.71,0-146.2,64.67-146.2,144.39s65.49,144.39,146.2,144.39,146.2-64.67,146.2-144.39-65.49-144.39-146.2-144.39h0Z"/></g><path class="cls-1" d="M518.59,532.09c-3.24,0-6.49-1.2-9.03-3.61l-51.83-49.42c-2.59-2.47-4.05-5.89-4.05-9.47v-84.78c0-7.22,5.86-13.08,13.08-13.08s13.08,5.86,13.08,13.08v79.18l47.78,45.55c5.23,4.99,5.42,13.27,.44,18.5-2.57,2.69-6.02,4.05-9.47,4.05Z"/></g></g></svg>