<?xml version="1.0" encoding="utf-8"?>
<!-- Generator: Adobe Illustrator 27.5.0, SVG Export Plug-In . SVG Version: 6.00 Build 0)  -->
<svg version="1.1" id="Layer_1" xmlns="http://www.w3.org/2000/svg" xmlns:xlink="http://www.w3.org/1999/xlink" x="0px" y="0px"
	 viewBox="0 0 385.9 253.7" style="enable-background:new 0 0 385.9 253.7;" xml:space="preserve">
<style type="text/css">
	.st0{fill:#FFFFFF;}
</style>
<g>
	<g>
		<g>
			<polygon class="st0" points="340.2,8.7 340.2,169.6 312,188.1 194.4,173.7 194.4,12.8 227.4,1.5 			"/>
			<path d="M312.4,189.6l-119.5-14.6V11.8L227.2,0l114.5,7.3v163.1L312.4,189.6z M195.9,172.4l115.7,14.1l27-17.7V10.1L227.6,3
				l-31.7,10.9V172.4z"/>
		</g>
		<g>
			<polyline class="st0" points="340.2,8.7 312.1,21 194.4,12.8 			"/>
			<polygon points="312.4,22.5 312,22.5 194.3,14.3 194.5,11.3 311.8,19.5 339.6,7.3 340.8,10.1 			"/>
		</g>
		<g>
			<line class="st0" x1="312.1" y1="21" x2="312" y2="188.1"/>
			<rect x="310.5" y="21" width="3" height="167"/>
		</g>
	</g>
	<g>
		<g>
			<polygon class="st0" points="1.5,17.3 1.5,178.2 29.7,196.6 147.3,182.3 147.3,21.4 114.3,10.1 			"/>
			<path d="M29.3,198.2L0,179V15.8l114.5-7.3l34.3,11.8v163.3L29.3,198.2z M3,177.3l27,17.7L145.8,181V22.5l-31.7-10.9L3,18.7V177.3
				z"/>
		</g>
		<g>
			<polyline class="st0" points="1.5,17.3 29.6,29.6 147.3,21.4 			"/>
			<polygon points="29.3,31.1 0.9,18.6 2.1,15.9 29.8,28.1 147.2,19.9 147.4,22.9 			"/>
		</g>
		<g>
			<line class="st0" x1="29.6" y1="29.6" x2="29.7" y2="196.6"/>
			<rect x="28.1" y="29.6" width="3" height="167"/>
		</g>
	</g>
	<g>
		<g>
			<polygon class="st0" points="72.6,41.2 72.6,206 101.5,224.9 221.9,210.2 221.9,45.5 188.1,33.9 			"/>
			<path d="M101.1,226.5l-30-19.6v-167l117.2-7.5l35.1,12v167.2L101.1,226.5z M74.1,205.2l27.7,18.2l118.6-14.4V46.5l-32.5-11.1
				L74.1,42.6V205.2z"/>
		</g>
		<g>
			<polyline class="st0" points="72.6,41.2 101.4,53.8 221.9,45.5 			"/>
			<polygon points="101.1,55.4 72,42.6 73.2,39.9 101.7,52.3 221.8,44 222,46.9 			"/>
		</g>
		<g>
			<line class="st0" x1="101.4" y1="53.8" x2="101.5" y2="224.9"/>
			<rect x="99.9" y="53.8" width="3" height="171.1"/>
		</g>
	</g>
	<g>
		<g>
			<polygon class="st0" points="384.4,35.9 384.4,200.7 355.6,219.6 235.2,204.9 235.2,40.1 269,28.6 			"/>
			<path d="M356,221.2l-122.3-14.9V39.1l35.1-12l117.2,7.5v167L356,221.2z M236.7,203.6L355.2,218l27.7-18.2V37.3l-113.8-7.3
				l-32.5,11.1V203.6z"/>
		</g>
		<g>
			<polyline class="st0" points="384.4,35.9 355.7,48.5 235.2,40.1 			"/>
			<polygon points="356,50.1 355.6,50 235,41.6 235.3,38.6 355.4,47 383.8,34.5 385.1,37.3 			"/>
		</g>
		<g>
			<line class="st0" x1="355.7" y1="48.5" x2="355.6" y2="219.6"/>
			<rect x="354.1" y="48.5" width="3" height="171.1"/>
		</g>
	</g>
	<g>
		<g>
			<g>
				<path class="st0" d="M247.2,198.1l3.6,40.1c0,0,3.3,3.3,16.6,3.3c13.3,0,17.6-2.3,18.3-3.7c0.7-1.3,4.3-39.5,4.3-39.5"/>
				<path d="M267.4,243c-13.5,0-17.3-3.4-17.7-3.8l-0.4-0.4l-3.6-40.6l3-0.3l3.5,39.4c1.2,0.7,5.2,2.6,15.2,2.6
					c13.7,0,16.6-2.4,16.9-2.8c0.6-2.5,2.9-25.1,4.2-39l3,0.3c-1.7,17.6-3.8,38.8-4.5,40.1C285.6,241.4,278.5,243,267.4,243z"/>
			</g>
			<g>
				<path class="st0" d="M293.7,195.5c0,3-11.1,5.5-24.8,5.5c-9.4,0-17.5-1.1-21.7-2.8c-2-0.8-3.1-1.7-3.1-2.6
					c0-3,11.1-5.5,24.8-5.5C282.6,190,293.7,192.4,293.7,195.5z"/>
				<path d="M268.9,202.5c-9.2,0-17.7-1.1-22.3-3c-1-0.4-4-1.6-4-4c0-6.9,25.2-7,26.3-7s26.3,0.1,26.3,7
					C295.2,202.4,270,202.5,268.9,202.5z M245.7,195.5c0.1,0.2,0.6,0.7,2.1,1.3c4.2,1.7,12.3,2.7,21.2,2.7c16.1,0,22.6-3,23.2-4
					c-0.6-1-7.1-4-23.2-4C252.8,191.5,246.3,194.5,245.7,195.5z"/>
			</g>
		</g>
		<g>
			<g>
				<path class="st0" d="M309.2,207.4c0,0,10.8,1.5,14.4,2.7s9.1,6.9,9.1,15s-1.5,11.3-4.9,14.6c-3.4,3.3-15.5,7.6-15.5,7.6"/>
				<path d="M312.7,248.7l-1-2.8c3.3-1.2,12.4-4.7,15-7.2c3-2.9,4.5-5.6,4.5-13.5c0-7.6-5.3-12.6-8.1-13.5c-3.4-1.2-14-2.7-14.1-2.7
					l0.4-3c0.4,0.1,11,1.5,14.7,2.8c4.1,1.4,10.1,7.6,10.1,16.4c0,7.9-1.4,11.8-5.4,15.7C325.2,244.2,313.2,248.5,312.7,248.7z"/>
			</g>
			<g>
				<path class="st0" d="M320.3,228.5c0,13.1-9.3,23.8-20.8,23.8c-11.5,0-19.1-10.6-19.1-23.8s7.7-23.8,19.1-23.8
					c4.3,0,8.3,1.5,11.6,4.1C316.7,213,320.3,220.3,320.3,228.5z"/>
				<path d="M299.5,253.7c-12,0-20.6-10.6-20.6-25.3s8.7-25.3,20.6-25.3c4.5,0,8.8,1.5,12.5,4.4c6.1,4.7,9.7,12.5,9.7,20.9
					C321.8,242.4,311.8,253.7,299.5,253.7z M299.5,206.2c-10.2,0-17.6,9.4-17.6,22.3c0,12.9,7.4,22.3,17.6,22.3
					c10.6,0,19.3-10,19.3-22.3c0-7.4-3.2-14.4-8.6-18.5C307.1,207.5,303.4,206.2,299.5,206.2z"/>
			</g>
		</g>
	</g>
	<g>
		<g>
			<g>
				<path class="st0" d="M43,191.1l3.6,40.1c0,0,3.3,3.3,16.6,3.3s17.6-2.3,18.3-3.7c0.7-1.3,4.3-39.5,4.3-39.5"/>
				<path d="M63.2,236c-13.5,0-17.3-3.4-17.7-3.8l-0.4-0.4l-3.6-40.6l3-0.3l3.5,39.4c1.2,0.7,5.2,2.6,15.2,2.6
					c13.7,0,16.6-2.4,16.9-2.8c0.6-2.5,2.9-25.1,4.2-39l3,0.3c-1.7,17.6-3.8,38.8-4.5,40.1C81.4,234.4,74.3,236,63.2,236z"/>
			</g>
			<g>
				<path class="st0" d="M89.5,188.5c0,3-11.1,5.5-24.8,5.5c-9.4,0-17.5-1.1-21.7-2.8c-2-0.8-3.1-1.7-3.1-2.6c0-3,11.1-5.5,24.8-5.5
					S89.5,185.4,89.5,188.5z"/>
				<path d="M64.7,195.5c-9.2,0-17.7-1.1-22.3-3c-1-0.4-4-1.6-4-4c0-6.9,25.2-7,26.3-7c1.1,0,26.3,0.1,26.3,7
					C91,195.4,65.8,195.5,64.7,195.5z M41.5,188.5c0.1,0.2,0.6,0.7,2.1,1.3c4.2,1.7,12.3,2.7,21.2,2.7c16.1,0,22.6-3,23.2-4
					c-0.6-1-7.1-4-23.2-4C48.7,184.5,42.1,187.5,41.5,188.5z"/>
			</g>
		</g>
	</g>
</g>
</svg>
