<?xml version="1.0" encoding="UTF-8"?>
<svg width="177px" height="177px" viewBox="0 0 177 177" version="1.1" xmlns="http://www.w3.org/2000/svg" xmlns:xlink="http://www.w3.org/1999/xlink">
    <title>cnn_underscored_logo</title>
    <defs>
        <polygon id="path-1" points="0 17 23 17 23 19 0 19"></polygon>
    </defs>
    <g id="Page-1" stroke="none" stroke-width="1" fill="none" fill-rule="evenodd">
        <g id="Artboard" transform="translate(-725.000000, -1505.000000)">
            <g id="cnn_underscored_logo" transform="translate(725.000000, 1505.000000)">
                <rect id="Rectangle" fill="#000000" x="0" y="0" width="177" height="114"></rect>
                <rect id="Rectangle" fill="#E7E7E7" x="0" y="114" width="177" height="63"></rect>
                <g id="underscored" transform="translate(30.000000, 126.000000)">
                    <path d="M114.534773,8.32667888 C114.517067,8.32307536 114.552479,8.33028241 114.534773,8.32667888 C114.504869,7.99695655 114.511263,7.65832551 114.435422,7.33981413 C114.348368,6.97425677 114.238984,6.59598697 114.051103,6.27657472 C113.384177,5.14236593 111.856836,5.10072522 111.153317,6.17437481 C110.458356,7.23491158 110.454028,9.54256753 111.144858,10.605907 C111.777454,11.5795589 113.09852,11.6601376 113.817679,10.7505484 C114.007822,10.5100133 114.1778,10.2245342 114.26092,9.93164789 C114.408666,9.41153943 114.469752,9.16349695 114.534773,8.32667888 M117.998364,6.86855343 C117.998364,8.94528363 117.998364,11.0219137 117.998364,13.0985438 C117.998364,13.2148575 118.002889,13.3314715 117.996888,13.4473848 C117.982429,13.7240553 117.962263,13.7444753 117.67336,13.7586892 C117.526302,13.7658962 117.378653,13.7603908 117.2313,13.7603908 C116.478008,13.7603908 115.724715,13.7644948 114.971521,13.7581887 C114.674945,13.7557863 114.671011,13.7415724 114.657239,13.4502877 C114.654878,13.400539 114.65901,13.3504901 114.656256,13.3008416 C114.640714,13.0134606 114.623991,12.7261798 114.607662,12.438899 C114.428733,12.6288847 114.261313,12.8319832 114.068711,13.006654 C113.428048,13.5878221 112.686855,13.9606866 111.81808,13.9909162 C111.347002,14.0073322 110.861463,14.011136 110.403173,13.9167437 C108.911343,13.6095434 108.02073,12.5784354 107.511387,11.2040918 C106.837378,9.38561409 106.833148,7.53830818 107.477844,5.70031137 C107.705268,5.05167727 108.04542,4.47231089 108.515613,3.97001985 C109.402094,3.02299405 110.489145,2.67175067 111.757093,2.77525186 C112.692757,2.85172662 113.499954,3.18645384 114.174455,3.84960213 C114.219606,3.89394548 114.278626,3.92347435 114.331252,3.95990997 C114.349351,3.88543716 114.382993,3.81106446 114.383288,3.73659165 C114.386927,2.75643346 114.385845,1.77617517 114.385944,0.796016972 C114.385944,0.663087021 114.383681,0.53015707 114.386239,0.397327217 C114.393813,0.0111496929 114.394502,0.00434303877 114.764951,0.00274147309 C115.698353,-0.0012624411 116.631755,-0.000361560407 117.565157,0.00214088596 C117.992954,0.00334206022 117.997282,0.00724587656 117.997675,0.43916812 C117.999249,2.58226319 117.998364,4.72545836 117.998364,6.86855343" id="Fill-1" fill="#000000"></path>
                    <path d="M40.6100904,5.47100343 C39.8257427,5.46777821 39.3312776,5.74612451 39.0160326,6.3643895 C38.9001192,6.59162095 38.8299767,6.8465111 38.7726144,7.09622135 C38.7066329,7.38375464 38.7227815,7.39821927 39.0241565,7.39978301 C40.0285417,7.40515838 41.0329269,7.40457197 42.037213,7.40027168 C42.3378945,7.39900114 42.3728666,7.36430558 42.3002473,7.09856696 C42.2283216,6.83517396 42.1499561,6.56533051 42.0198755,6.32705513 C41.7056212,5.75159761 41.2061035,5.45341132 40.6100904,5.47100343 M42.3586994,9.38896217 C41.3364814,9.3890599 40.3142634,9.38896217 39.2920454,9.38915764 C39.1766273,9.38915764 39.0612092,9.39003724 38.9457911,9.39169872 C38.8296795,9.39326246 38.7615184,9.44379092 38.7640942,9.56634929 C38.7987692,11.182478 40.122065,11.8463847 41.2999241,11.3739388 C41.6225004,11.2446367 41.8478876,11.0064591 41.9881726,10.7064159 C42.096953,10.4735159 42.25943,10.4214237 42.4966067,10.4234761 C43.4692891,10.4318812 44.4421696,10.4244534 45.4148519,10.4281673 C45.82045,10.429731 45.8257998,10.4371588 45.7134529,10.8408978 C45.3689819,12.0789915 44.5667022,12.9325999 43.3994438,13.4676933 C42.2430832,13.9978022 41.0146977,14.058495 39.7703618,13.9619339 C38.7827197,13.8853104 37.8736411,13.5756893 37.0657144,13.000525 C35.9791991,12.2269607 35.3850683,11.1506167 35.1367955,9.88281184 C34.9385538,8.87019034 34.947173,7.85121614 35.2193219,6.84787937 C35.8064187,4.68287683 37.5695912,3.2395418 39.8157364,3.03498464 C40.5967158,2.96383432 41.3663019,2.99491372 42.1190459,3.18666773 C44.1102806,3.69371149 45.3061707,4.98262687 45.8009329,6.92000703 C45.9823325,7.63043514 46.0180973,8.36031231 45.992735,9.09165548 C45.982927,9.37586582 45.9779734,9.38583468 45.6726355,9.38710522 C44.5679902,9.39169872 43.4633448,9.38886443 42.3586994,9.38896217" id="Fill-4" fill="#000000"></path>
                    <path d="M101.452966,5.47675413 C101.034687,5.45671869 100.633596,5.61690448 100.312485,5.9586798 C99.9880947,6.30407126 99.8399583,6.73087503 99.7489503,7.18084172 C99.7129842,7.35813095 99.8119405,7.40729108 99.9731917,7.40699918 C100.997926,7.4050432 102.022661,7.40944123 103.047396,7.4038704 C103.313763,7.40250212 103.33264,7.36917487 103.314558,7.12063767 C103.245904,6.17926512 102.466375,5.46932635 101.452966,5.47675413 M103.349828,9.39363407 C102.274423,9.3937318 101.199018,9.39177712 100.123713,9.39470914 C99.7114939,9.39588195 99.7158655,9.40203918 99.7861086,9.81115312 C99.8672806,10.2842827 100.019491,10.7191007 100.381834,11.0645899 C101.156097,11.8027737 102.440443,11.6628188 102.981723,10.7495937 C103.131051,10.4976358 103.289918,10.4229671 103.566022,10.426681 C104.525481,10.4394841 105.485139,10.4286357 106.444698,10.4332291 C106.815983,10.4349884 106.850856,10.4808255 106.752198,10.8285626 C106.428801,11.9678462 105.728556,12.8138305 104.660503,13.3582081 C103.948931,13.7209962 103.188478,13.9287784 102.385401,13.9723677 C101.491913,14.0208437 100.601207,14.0317899 99.7293776,13.7797343 C97.8965989,13.2498213 96.7006777,12.0949002 96.2422595,10.2709909 C95.8475271,8.70060326 95.892733,7.14194365 96.6956107,5.68590459 C97.5698244,4.10056363 98.9591873,3.24773796 100.781633,3.04552661 C101.597427,2.95502505 102.403385,2.99509593 103.189273,3.20502827 C105.265468,3.75957019 106.471722,5.12725784 106.87182,7.16940686 C106.995316,7.79949706 106.972862,8.45851649 106.997999,9.10502598 C107.008729,9.38034226 106.986374,9.39050658 106.675198,9.39177712 C105.566808,9.39607741 104.458318,9.3934386 103.349828,9.39363407" id="Fill-6" fill="#000000"></path>
                    <path d="M12,8.67885363 C12,7.13461027 12,5.5902669 12,4.04602354 C12,3.92980522 12.0039663,3.81348689 12.0003346,3.69736859 C11.9946002,3.51614003 12.061979,3.41902473 12.2490149,3.41972484 C13.1721523,3.42342542 14.0951942,3.42282533 15.0183316,3.42282533 C15.1551918,3.42282533 15.223144,3.48983589 15.223144,3.63345852 C15.2233352,3.91580301 15.2230485,4.19804749 15.2272537,4.48029197 C15.2278271,4.52249862 15.2516247,4.56430521 15.2646226,4.60631183 C15.3039986,4.58190799 15.3499691,4.56440523 15.3816993,4.53190011 C15.5968336,4.31086527 15.7940002,4.06782697 16.024904,3.86689531 C16.8101299,3.18368764 17.7312603,2.94224959 18.7370682,3.01136048 C18.958797,3.02666289 19.1818639,3.04906642 19.3996742,3.09317337 C20.7244084,3.36131563 21.4672,4.26335779 21.7844061,5.5712639 C21.9119002,6.09674671 21.9809037,6.65093405 21.9867336,7.19311949 C22.00948,9.30165178 21.9960998,11.4106841 21.9960042,13.5195165 C21.9960042,13.6025296 21.9930414,13.6855426 21.9936149,13.7685557 C21.9946662,13.9106781 21.92356,13.9819894 21.7923386,13.992491 C21.7289739,13.9974918 21.6651313,13.9982919 21.6014798,13.9982919 C20.7102637,13.998692 19.818952,14.0010924 18.9277359,13.9973918 C18.5486943,13.9958916 18.5435333,13.9899906 18.543151,13.5701245 C18.541144,11.6273183 18.5458271,9.68451212 18.5387547,7.74170595 C18.5376078,7.42825655 18.5105607,7.11110657 18.4580913,6.80255794 C18.3661503,6.26107261 18.0670075,5.9158182 17.5290283,5.80690104 C16.8886908,5.67718059 16.2286652,5.9615254 15.8859412,6.54871794 C15.6324822,6.98288636 15.5058483,7.46086169 15.5031723,7.96784158 C15.4940929,9.71131634 15.4917991,11.4547911 15.4870205,13.1981658 C15.4865426,13.364292 15.4815728,13.5305182 15.4874983,13.6963443 C15.494953,13.903577 15.4114224,14 15.2068967,13.9993921 C14.2360684,13.9958916 13.2652402,13.9956915 12.294412,14 C12.0973409,14.0008923 11.9942179,13.9239802 12.0003346,13.7101465 C12.003584,13.5940282 12,13.4777099 12,13.3614916 C12,11.8006456 12,10.2396996 12,8.67885363" id="Fill-8" fill="#000000"></path>
                    <path d="M79.5911792,8.46851264 C79.5911792,8.62989592 79.5778824,8.79254381 79.5935086,8.95237065 C79.6551399,9.58000473 79.750256,10.1953818 80.1144147,10.7405246 C80.7487808,11.6899525 82.3550779,11.6592128 82.9100511,10.6781698 C83.0513664,10.428264 83.1867612,10.1620157 83.2546042,9.88603957 C83.4851152,8.948285 83.4786123,8.00080268 83.2471308,7.06382633 C83.1826848,6.80292822 83.0575781,6.54864498 82.9187862,6.31605461 C82.6948752,5.94095278 82.3563396,5.67616358 81.9222026,5.60777753 C81.0270438,5.46682251 80.2673769,5.67703907 79.8525543,6.76041798 C79.6419401,7.3102301 79.573903,7.88348608 79.5911792,8.46851264 M81.5202886,14 C80.3748193,13.9900777 79.2984546,13.751067 78.3267177,13.141332 C77.0245008,12.324396 76.3479149,11.1003539 76.0948867,9.61512188 C75.941051,8.71199808 75.9756034,7.81188988 76.1888381,6.92413592 C76.6675244,4.93131018 77.9215037,3.68129501 79.9027329,3.195686 C81.0474258,2.91513785 82.2092008,2.9347879 83.3501085,3.26407205 C85.2697064,3.81816437 86.4199316,5.10961974 86.8391217,7.03425399 C87.0711856,8.09963657 87.0573064,9.1850583 86.7640965,10.2466471 C86.2226142,12.2063012 84.9220474,13.3789808 82.9578032,13.8222741 C82.4892109,13.928112 82.0000425,13.94319 81.5202886,14" id="Fill-10" fill="#000000"></path>
                    <path d="M9.99876313,8.38863982 C9.99876313,9.95364424 9.99876313,11.5186487 9.99876313,13.0836531 C9.99876313,13.184559 10.0020589,13.2856676 9.99789073,13.3864721 C9.98509555,13.6936519 9.9741421,13.7217433 9.70282614,13.7241772 C8.79940891,13.7323916 7.89589475,13.7241772 6.99247752,13.7303634 C6.78736691,13.7317831 6.69876999,13.6547093 6.70720317,13.4353531 C6.71757502,13.1666089 6.71040197,12.8969519 6.70662157,12.6278019 C6.70594304,12.5830788 6.68355148,12.53866 6.67124096,12.4940383 C6.63430942,12.5237523 6.58923549,12.5469758 6.56170647,12.5842958 C6.0598834,13.2635596 5.40839551,13.714543 4.60733972,13.8878577 C3.72350299,14.0789196 2.84305892,14.038253 1.99760774,13.6695156 C1.06549829,13.2629511 0.520443022,12.493227 0.242341732,11.5172289 C0.115262334,11.0714176 0.0304458024,10.5953853 0.0249206112,10.1318268 C-0.00231761212,7.87721439 0.00214131412,5.62229777 0,3.36748256 C-0.000378948535,3.0141599 0.0104775675,3.00543838 0.357983014,3.00351154 C1.27758808,2.9985423 2.19719315,2.99935361 3.11679822,3.00280165 C3.50869906,3.00422143 3.51422426,3.00979914 3.51470892,3.42467946 C3.51684145,5.39351019 3.51228559,7.36234091 3.51945865,9.33117164 C3.52052491,9.61421515 3.55891045,9.89938832 3.60349971,10.1794908 C3.72011033,10.913112 4.29230688,11.2500058 5.00059762,11.1710051 C5.78372078,11.0836886 6.25142336,10.572973 6.40079739,9.67222334 C6.4609929,9.30946927 6.49249618,8.9372838 6.49472564,8.56905343 C6.50441896,6.91997769 6.49889377,5.27090195 6.4989907,3.62172479 C6.4989907,3.50398437 6.50490363,3.3858383 6.4989907,3.26840212 C6.48910352,3.07490624 6.57324152,2.99722394 6.75654216,3.0008748 C7.07913578,3.00726382 7.40182633,3.00178752 7.72451689,3.0016861 C8.3214314,3.00158469 8.91834592,3.00026632 9.51535737,3.00209176 C9.99507967,3.00351154 9.99789073,3.00513414 9.99827847,3.49171341 C9.99963553,5.12405602 9.99876313,6.75629721 9.99876313,8.38863982" id="Fill-12" fill="#000000"></path>
                    <path d="M55.7888042,10.4350948 C56.274778,10.4348995 56.7610437,10.4424153 57.2467256,10.4314833 C57.4704974,10.4264077 57.6115708,10.4771637 57.6574927,10.7260637 C57.7609142,11.2871135 58.1708056,11.5371848 58.6814916,11.6142949 C59.0136467,11.6644654 59.3611739,11.6508003 59.697999,11.6219084 C60.0569094,11.5910643 60.3184305,11.3564151 60.3744707,11.0847725 C60.4432562,10.7513441 60.3035448,10.3811176 59.9787839,10.2154771 C59.6943019,10.0704319 59.3804377,9.97135996 59.069395,9.89220001 C58.3649032,9.71308965 57.6526281,9.56501857 56.9463851,9.39235032 C56.3591302,9.24886681 55.822078,8.99899077 55.335034,8.6315949 C53.8861607,7.53868003 54.0098189,5.5185884 54.9320503,4.48228607 C55.3509899,4.01162112 55.8534061,3.6697985 56.4422176,3.45633018 C57.9485905,2.91001916 59.4841511,2.85984873 61.021171,3.27565809 C62.2187389,3.59961847 63.1498239,4.28541108 63.6247064,5.48139981 C63.713826,5.70570261 63.7785252,5.94103508 63.8376788,6.1755867 C63.9058805,6.44625321 63.8840871,6.47446187 63.5833573,6.47592599 C62.6113124,6.48080638 61.6392674,6.47778054 60.6673198,6.47787814 C60.651072,6.47787814 60.6347269,6.47641403 60.6186738,6.47778054 C60.4313865,6.49339779 60.3420724,6.4199967 60.2747463,6.22761167 C59.976838,5.3752025 59.0719246,5.02576647 58.2621628,5.42937484 C57.7534227,5.68295998 57.7020525,6.34386259 58.1821888,6.65347463 C58.3541038,6.76435712 58.5639628,6.82829025 58.7651628,6.88012001 C59.6410832,7.10578931 60.5202142,7.31916002 61.3981777,7.53682548 C61.9213171,7.66654629 62.4062207,7.88020983 62.8534723,8.1827941 C63.4802277,8.60690012 63.8635584,9.20055094 63.9582236,9.93836852 C64.1752822,11.6315715 63.5530995,12.8851489 61.937273,13.5626448 C61.3053611,13.8276501 60.6413428,13.9553211 59.9552392,13.9816752 C58.883178,14.0227681 57.8118952,14.0236466 56.7859505,13.6666948 C56.3170027,13.5034945 55.8536007,13.290319 55.4343692,13.0257042 C54.5700266,12.480174 54.1685022,11.6296194 54.0056353,10.6461229 C53.9711939,10.438023 54.1004951,10.4371445 54.2335906,10.4364613 C54.7519627,10.4337283 55.2704321,10.43529 55.7888042,10.4350948" id="Fill-14" fill="#000000"></path>
                    <path d="M74.1392631,7.15533395 C73.670852,7.15533395 73.2025415,7.15718317 72.7341304,7.15474998 C72.3549788,7.1527061 72.3567881,7.14998092 72.2529537,6.78276366 C72.0751384,6.15402697 71.6845278,5.72578526 71.0015122,5.60539094 C70.2389872,5.47098144 69.6359834,5.72753716 69.2381356,6.34508117 C69.1331954,6.50800767 69.0348894,6.68397608 68.980811,6.86704941 C68.6666942,7.93035411 68.656944,9.00212631 68.9728702,10.0641658 C69.0535856,10.3352233 69.2130062,10.5981053 69.3896153,10.8263387 C69.8037469,11.3615435 70.3931809,11.5053938 71.0454383,11.3854861 C71.6862366,11.2676223 72.0476972,10.8477507 72.2238036,10.2587237 C72.3728709,9.76050345 72.375987,9.76108741 72.9107395,9.76099009 C73.780617,9.7606981 74.650394,9.75972483 75.5202715,9.7613794 C76.0169279,9.76225535 76.0507018,9.79661201 75.9610403,10.2450005 C75.630338,11.8991815 74.6819564,13.0773328 73.0143729,13.6201292 C71.4328323,14.1349925 69.8219406,14.132754 68.246833,13.5750665 C66.8089318,13.0659455 65.8438643,12.0712568 65.3650999,10.6733396 C64.9024184,9.3226263 64.8806061,7.94067084 65.2933305,6.57603971 C65.8229567,4.82423914 67.0253457,3.70604164 68.8585819,3.24266464 C70.2498431,2.8910198 71.6419085,2.91301586 73.003316,3.3646162 C74.5721915,3.88502721 75.6077216,4.89665092 75.9398311,6.50713172 C75.9528983,6.57029737 75.9689811,6.63317104 75.976721,6.69701799 C76.0304978,7.13791229 76.0179331,7.15251144 75.5443957,7.15484731 C75.0759846,7.15708584 74.6076741,7.15533395 74.1392631,7.15533395" id="Fill-16" fill="#000000"></path>
                    <path d="M47.0004043,8.69511701 C47.0004043,7.06265143 46.9990099,5.43018585 47.0014004,3.79772027 C47.001998,3.39018105 47.0075758,3.38526247 47.4128652,3.38355603 C48.2252368,3.38014314 49.037708,3.37883821 49.8500796,3.38455982 C50.1774785,3.38696892 50.1842515,3.39640456 50.1888333,3.72093024 C50.1955068,4.18719124 50.1902278,4.65375338 50.1927179,5.12011475 C50.1929171,5.16669066 50.2116427,5.21326657 50.2218023,5.25974211 C50.253078,5.22390676 50.2944137,5.19288961 50.314235,5.15143304 C50.568624,4.61761689 50.921422,4.16059077 51.3709356,3.77935089 C52.0485427,3.2048812 52.8260529,2.94419663 53.7154185,3.00994496 C53.9297667,3.02580486 54.0010832,3.11052483 54,3.31650278 C53.994609,4.29931471 53.995107,5.28212665 53.9992904,6.26493858 C54.0000872,6.45314943 53.9302647,6.5273296 53.7383274,6.53375386 C53.3093323,6.54810807 52.8749585,6.54710428 52.4536329,6.61787156 C51.6073959,6.75990801 51.0543935,7.29201771 50.8017974,8.09535178 C50.6744036,8.50058228 50.6220119,8.94325419 50.6148404,9.37036733 C50.5919314,10.7192619 50.6064736,12.0687588 50.606374,13.4180548 C50.606374,13.5346954 50.6038839,13.6512355 50.6051787,13.7678761 C50.6071708,13.9389221 50.5161326,14.0043693 50.3557699,13.998748 C50.2729988,13.995837 50.1900286,13.9994507 50.1070583,13.9994507 C49.2284499,13.9995511 48.349742,14.000856 47.471034,13.9990492 C47.0046873,13.9980454 47.0014004,13.9956363 47.0010019,13.5425249 C46.9995079,11.9267223 47.0004043,10.3109197 47.0004043,8.69511701" id="Fill-21" fill="#000000"></path>
                    <path d="M89.7925505,13.9974801 C89.2954861,13.9972794 88.798322,13.9919597 88.3014569,13.999889 C88.0966544,14.0031009 87.9859853,13.9372578 88.0014252,13.7158402 C88.008398,13.6164733 88.0022221,13.5162031 88.0022221,13.4163343 C88.0021225,10.2706192 88.0021225,7.12490409 88.0022221,3.97918898 C88.0022221,3.89598174 88,3.81267414 88.0029194,3.72956728 C88.0142751,3.39593539 88.0147732,3.3859987 88.3333327,3.38389092 C89.1782426,3.3781698 90.0233517,3.37766794 90.8682616,3.38379055 C91.1912041,3.38609907 91.1978781,3.39703947 91.2028587,3.7274595 C91.2095327,4.17671833 91.2032572,4.62617789 91.2076401,5.07553709 C91.2081382,5.12803092 91.2411098,5.18012326 91.2590399,5.23231597 C91.2833453,5.19076254 91.3103402,5.15051393 91.3316572,5.10745494 C91.5704274,4.62467233 91.8917761,4.2058258 92.2921171,3.84710126 C92.9817317,3.22932019 93.7817166,2.94326397 94.7091053,3.00930782 C94.9175934,3.02416267 95.0007696,3.09141098 94.999375,3.30590296 C94.9926014,4.28792896 94.9917048,5.26995495 95,6.25188058 C95.0018653,6.47630925 94.9055404,6.52840159 94.7033278,6.53352049 C94.2911329,6.54415978 93.8738578,6.54446089 93.4688349,6.61120734 C92.6233274,6.75052174 92.0654996,7.27154555 91.8102933,8.07772224 C91.6870732,8.46705982 91.6244172,8.89012192 91.6173447,9.29943324 C91.5940355,10.6637709 91.60828,12.0288111 91.6081804,13.3936506 C91.6081804,13.4935193 91.6117664,13.5934884 91.6071843,13.6931565 C91.5940355,13.977406 91.5866642,13.9892497 91.2836441,13.9958742 C90.9524339,14.0031009 90.6209248,13.9975805 90.2896149,13.9976809 C90.1238604,13.9976809 89.9582054,13.9976809 89.7925505,13.9974801" id="Fill-23" fill="#000000"></path>
                    <path d="M30.5347608,8.32667888 C30.5170547,8.32307536 30.5524669,8.33028241 30.5347608,8.32667888 C30.5048572,7.99695655 30.5112511,7.65832551 30.43541,7.33981413 C30.3483552,6.97425677 30.238971,6.59598697 30.0510899,6.27657472 C29.3841611,5.14236593 27.8568155,5.10072522 27.1532942,6.17437481 C26.4583308,7.23491158 26.4539042,9.54256753 27.1448346,10.605907 C27.7774333,11.5795589 29.0985031,11.6601376 29.8176648,10.7505484 C30.0078084,10.5100133 30.1777867,10.2245342 30.2609069,9.93164789 C30.4086542,9.41153943 30.4697402,9.16349695 30.5347608,8.32667888 M33.9983639,6.86855343 C33.9983639,8.94528363 33.9983639,11.0219137 33.9983639,13.0985438 C33.9983639,13.2148575 34.0028888,13.3314715 33.9968884,13.4473848 C33.9824285,13.7240553 33.9622632,13.7444753 33.6733591,13.7586892 C33.5263987,13.7658962 33.3786514,13.7603908 33.2312975,13.7603908 C32.4780024,13.7603908 31.7247073,13.7644948 30.9715106,13.7581887 C30.6749339,13.7557863 30.6709992,13.7415724 30.6572278,13.4502877 C30.654867,13.400539 30.6589984,13.3504901 30.6562441,13.3008416 C30.6407021,13.0134606 30.6239797,12.7261798 30.6076508,12.438899 C30.4287211,12.6288847 30.2613003,12.8319832 30.068796,13.006654 C29.4280328,13.5878221 28.6868369,13.9606866 27.8180589,13.9909162 C27.3469789,14.0073322 26.861439,14.011136 26.4031468,13.9167437 C24.9113117,13.6095434 24.0206962,12.5784354 23.5113515,11.2040918 C22.8373403,9.38561409 22.8332089,7.53830818 23.4778083,5.70031137 C23.705233,5.05167727 24.0453864,4.47231089 24.515581,3.97001985 C25.4020651,3.02299405 26.4891197,2.67175067 27.7570713,2.77525186 C28.6927389,2.85172662 29.4999391,3.18645384 30.1744422,3.84960213 C30.2195927,3.89394548 30.2786129,3.92347435 30.3312393,3.95990997 C30.3493389,3.88543716 30.3829804,3.81106446 30.3832755,3.73659165 C30.3869151,2.75643346 30.385833,1.77617517 30.3859314,0.796016972 C30.3859314,0.663087021 30.383669,0.53015707 30.3862265,0.397327217 C30.3938008,0.0111496929 30.3944893,0.00434303877 30.7649398,0.00274147309 C31.6983449,-0.0012624411 32.6317501,-0.000361560407 33.5651553,0.00214088596 C33.9929537,0.00334206022 33.9973803,0.00724587656 33.9976754,0.43916812 C33.9992492,2.58226319 33.9983639,4.72545836 33.9983639,6.86855343" id="Fill-25" fill="#000000"></path>
                    <mask id="mask-2" fill="white">
                        <use xlink:href="#path-1"></use>
                    </mask>
                    <use id="Clip-19" fill="#000000" xlink:href="#path-1"></use>
                </g>
                <g id="CNN_International_logo-2" transform="translate(21.000000, 38.000000)" fill="#FFFFFF" fill-rule="nonzero">
                    <g id="CNN_International_logo">
                        <path d="M10.4482747,31.5695808 C10.4482747,43.0247832 19.7112553,52.3451546 31.0991918,52.3451546 L50.5901255,52.3451546 C51.6753197,52.3451546 52.5483978,51.2696838 52.5483978,50.3808564 L52.5483978,11.9162209 C52.5483978,9.3670615 54.608912,7.29414923 57.1438839,7.29414923 C58.7669875,7.29414923 60.2811518,8.16099988 61.0926745,9.55753593 C61.191161,9.72522057 67.0915211,19.9601211 73.3375608,30.7961049 C79.3042776,41.1452571 85.473566,51.8469254 85.5767955,52.0241531 C85.8514441,52.4956871 86.3893007,52.7995471 86.947968,52.7995471 C87.8343354,52.7995471 88.5540163,52.0746211 88.5540163,51.1829987 L88.5540163,11.9162209 C88.5540163,9.3670615 90.6164425,7.29414923 93.1495077,7.29414923 C94.7735356,7.29414923 96.2867175,8.16099988 97.1001523,9.55753593 C97.1967266,9.72522057 103.092402,19.9610509 109.334697,30.7961049 C115.296607,41.1433974 121.460286,51.8431528 121.566294,52.0241531 C121.838048,52.4956871 122.377869,52.7995471 122.937456,52.7995471 C123.822904,52.7995471 124.542595,52.0746211 124.542595,51.1829987 L124.542595,0.274316736 L117.074961,0.274316736 L117.074961,30.5779523 C117.074961,30.5779523 103.155869,6.47584306 102.704182,5.70137889 C100.672971,2.20716415 96.8189118,0 92.7196133,0 C86.2955574,0 81.0863824,5.2422254 81.0863824,11.7047527 L81.0863824,30.5779523 C81.0863824,30.5779523 67.1672953,6.47584306 66.715613,5.70137889 C64.6843976,2.20716415 60.8303327,0 56.7301151,0 C50.3069783,0 45.0978138,5.2422254 45.0978138,11.7047527 L45.0978138,42.7170974 C45.100703,43.8459374 44.2569237,44.8290164 43.0306497,44.8319282 L31.182535,44.8319282 C23.9023902,44.8319282 17.999199,38.8942509 17.999199,31.5686509 C17.999199,24.2440338 23.9023902,18.3072918 31.182535,18.3072918 L41.1055531,18.3072918 L41.1055531,10.7930717 L31.0991918,10.7930717 C19.7112553,10.7930717 10.4482747,20.1135016 10.4482747,31.5695808" id="Path"></path>
                        <path d="M127.532419,0.174114026 L127.532419,51.0827854 C127.532419,53.6319449 125.469887,55.7057976 122.936885,55.7057976 C121.312794,55.7057976 119.799675,54.8380118 118.986241,53.4414757 C118.888673,53.2737911 112.993062,43.0398736 106.751749,32.2029068 C100.789776,21.8566026 94.6261494,11.1568472 94.5200992,10.9758469 C94.2482817,10.5043075 93.7085131,10.1994645 93.1488634,10.1994645 C92.2625488,10.1994645 91.5438503,10.9253204 91.5438503,11.8160129 L91.5438503,51.0827854 C91.5438503,53.6319448 89.4813713,55.7057976 86.9483061,55.7057976 C85.3242782,55.7057976 83.8110963,54.8380118 82.9976721,53.4414757 C82.9001047,53.2747156 77.0006689,43.0398736 70.7536995,32.203895 C64.7879705,21.8546844 58.618624,11.152081 58.5144754,10.9758468 C58.2398268,10.5043075 57.7019649,10.1994645 57.1433029,10.1994645 C56.2569303,10.1994645 55.5353954,10.9253204 55.5353954,11.8160129 L55.5353954,50.281642 C55.5353954,52.9289424 53.2238692,55.2504699 50.5894917,55.2504699 L31.0995404,55.2504699 C18.0657802,55.2504699 7.4609893,44.5821175 7.4609893,31.4694312 C7.4609893,18.3557566 18.0657802,7.68739888 31.0995404,7.68739888 L41.1058437,7.68739888 L41.1058437,0.174114026 L31.1080337,0.174114026 C13.9267195,0.174114026 0,14.1851656 0,31.4694312 C0,48.7536383 13.9267195,62.7646952 31.1080337,62.7646952 L50.7855403,62.7646952 C58.2388972,62.7694668 63.0313562,58.3750217 63.0219333,50.2711743 L63.0219333,32.4220477 C63.0219333,32.4220477 77.0414136,56.6937013 77.3917836,57.2976275 C79.4248424,60.7918422 83.278902,63 87.3782005,63 C93.8022564,63 99.0114315,57.756781 99.0114315,51.2951888 L99.0114315,32.4220477 C99.0114315,32.4220477 112.929594,56.5231686 113.381282,57.2976275 C115.413411,60.7918422 119.267481,63 123.36678,63 C129.790772,63 135,57.756781 135,51.2951888 L135,0.174114026 L127.532419,0.174114026 Z" id="Path"></path>
                    </g>
                </g>
            </g>
        </g>
    </g>
</svg>