<?xml version="1.0" encoding="UTF-8"?>
<svg width="409px" height="104px" viewBox="0 0 409 104" version="1.1" xmlns="http://www.w3.org/2000/svg" xmlns:xlink="http://www.w3.org/1999/xlink">
    <title>logo_apartment_therapy</title>
    <g id="Page-1" stroke="none" stroke-width="1" fill="none" fill-rule="evenodd">
        <g id="Artboard" transform="translate(-2148.000000, -1541.000000)" fill-rule="nonzero">
            <g id="logo_apartment_therapy" transform="translate(2148.000000, 1541.000000)">
                <path d="M56.4583883,22.8324873 L56.4583883,23.2284264 C54.8729725,31.6751269 51.8342589,36.1624365 46.9458935,38.142132 C45.7568317,38.5380711 44.4356519,38.8020305 43.114472,38.8020305 C38.0939887,38.2741117 33.8662132,35.106599 32.0165614,30.3553299 C30.8274996,28.2436548 29.9026737,26 28.8457298,23.4923858 C25.8070162,17.4213198 21.5792407,9.76649746 16.9551113,9.76649746 C15.5018135,9.76649746 14.0485157,10.0304569 12.5952179,10.6903553 C9.42438627,12.4060914 9.42438627,14.1218274 9.42438627,14.7817259 C8.76379635,20.3248731 13.5200438,25.4720812 20.1259429,31.5431472 C20.7865328,32.2030457 21.7113587,32.8629442 22.6361846,33.786802 C26.8639601,37.3502538 30.5632636,41.4416244 33.4698592,46.0609137 C35.187393,48.7005076 36.2443369,51.7360406 36.3764549,54.9035533 C36.5085729,58.4670051 35.583747,61.8984772 33.7340952,64.8020305 C32.5450334,66.9137056 31.2238535,68.7614213 29.6384377,70.4771574 C25.0143083,75.6243655 23.5610105,79.9796954 25.2785443,84.071066 C26.3354881,86.1827411 28.1851399,87.7664975 30.4311456,88.4263959 C31.2238535,88.6903553 32.1486794,88.6903553 32.9413873,88.6903553 C38.8866966,88.6903553 41.5290562,84.8629442 42.8502361,73.9086294 C43.510826,69.2893401 45.2283598,64.9340102 47.6064835,60.9746193 C49.8524892,56.3553299 54.6087366,53.4517766 59.6292199,53.319797 L60.8182818,53.319797 C64.5175853,53.319797 68.0847709,54.9035533 70.5950126,57.6751269 C72.5767823,60.0507614 73.8979621,62.822335 74.4264341,65.857868 C74.822788,68.7614213 74.822788,71.7969543 74.4264341,74.7005076 C74.4264341,75.6243655 74.1621981,76.5482234 74.0300801,77.3401015 C73.3694902,82.0913706 72.4446643,89.7461929 74.69067,92.5177665 C75.4833779,93.3096447 76.6724398,93.7055838 77.8615016,93.7055838 L78.7863275,93.7055838 C80.9002153,93.8375635 82.881985,92.9137056 84.3352828,91.1979695 C87.1097605,87.106599 88.0345864,82.2233503 86.9776425,77.4720812 C86.7134065,76.284264 86.5812885,74.5685279 86.3170526,72.7208122 C85.2601087,68.1015228 84.7316368,63.3502538 84.7316368,58.4670051 C84.9958727,51.6040609 86.8455245,47.3807107 91.0733,44.7411168 C92.5265978,43.8172589 94.2441316,43.4213198 95.8295474,43.4213198 C99.132497,43.2893401 102.303329,44.7411168 104.417216,47.248731 C106.002632,48.964467 107.191694,50.9441624 108.248638,53.1878173 C109.173464,55.2994924 109.569818,57.2791878 110.362526,59.1269036 C111.287351,62.5583756 113.004885,65.857868 115.118773,68.6294416 C116.307835,69.9492386 118.025369,70.7411168 119.87502,70.7411168 C121.460436,70.6091371 122.913734,69.9492386 123.970678,68.6294416 C126.084566,66.1218274 127.141509,63.0862944 126.613037,59.786802 C126.48092,54.9035533 124.49915,50.284264 120.931964,46.8527919 C118.685958,45.4010152 116.307835,44.0812183 113.929711,43.0253807 C110.626762,41.3096447 107.588048,39.0659898 105.077806,36.5583756 C101.642739,32.4670051 100.585795,27.0558376 102.435447,22.0406091 C102.435447,21.7766497 102.699683,21.6446701 102.699683,21.3807107 C104.285098,16.3654822 104.417216,14.1218274 102.963918,12.8020305 C102.303329,12.4060914 101.510621,12.142132 100.717913,12.142132 C99.5288509,12.2741117 98.604025,12.6700508 97.8113171,13.4619289 C96.7543733,14.6497462 95.8295474,16.1015228 95.1689575,17.5532995 C93.8477776,19.928934 92.3944798,22.1725888 90.544828,24.4162437 C88.1667043,27.0558376 84.9958727,28.6395939 81.5608052,29.035533 L81.2965692,29.035533 C77.2009117,28.7715736 73.2373722,26.7918782 70.5950126,23.4923858 C69.4059507,22.1725888 68.2168889,20.5888325 67.159945,18.8730964 C66.1030011,17.1573604 64.9139393,15.4416244 63.5927594,13.857868 C59.6292199,9.10659898 57.6474502,15.9695431 56.4583883,22.8324873 M47.0780115,21.248731 L47.0780115,20.8527919 C48.0028374,15.3096447 48.7955453,7.25888325 55.0050905,3.69543147 C56.9868603,2.63959391 59.100748,1.97969543 61.3467537,2.11167513 C68.3490068,2.11167513 72.9731363,9.10659898 75.8797319,13.4619289 C77.4651477,15.9695431 78.7863275,19.0050761 80.9002153,19.0050761 C82.617749,19.0050761 84.3352828,17.4213198 86.8455245,12.9340102 C88.0345864,10.9543147 89.3557662,9.10659898 90.676946,7.25888325 C92.9229517,4.35532995 96.4901373,2.7715736 100.189441,2.9035533 C103.49239,2.9035533 106.663222,4.09137056 109.173464,6.07106599 C111.947941,8.7106599 113.269121,12.5380711 113.004885,16.4974619 C112.872767,19.1370558 112.344295,21.9086294 111.287351,24.4162437 C111.287351,24.680203 111.023115,24.8121827 111.023115,25.0761421 C110.362526,27.1878173 110.626762,29.2994924 111.683705,31.1472081 C113.797593,32.9949239 116.043599,34.7106599 118.553841,35.8984772 C121.328318,37.0862944 123.970678,38.5380711 126.48092,40.2538071 C132.029875,45.2690355 135.332824,52.1319797 135.861296,59.5228426 C136.521886,65.1979695 134.804352,70.8730964 131.105049,75.2284264 C128.330571,78.3959391 124.234914,80.3756345 120.007138,80.3756345 C115.911481,80.2436548 111.815823,78.6598985 108.909228,75.6243655 C105.47416,72.0609137 102.963918,67.7055838 101.642739,62.9543147 C101.114267,61.2385787 100.453677,59.5228426 99.5288509,57.9390863 C98.3397891,55.6954315 97.8113171,53.5837563 96.0937833,53.5837563 C94.5083675,53.5837563 94.3762496,57.1472081 94.3762496,59.2588832 C94.6404855,63.3502538 95.0368395,67.4416244 95.9616654,71.5329949 C96.3580193,73.6446701 96.6222553,75.3604061 96.8864912,77.0761421 C98.471907,93.4416244 90.809064,104 79.4469174,104 L78.1257376,104 C74.0300801,104 70.3307766,102.284264 67.6884169,99.248731 C62.6679336,93.177665 64.1212314,83.4111675 65.1781752,76.284264 C65.4424112,75.3604061 65.4424112,74.5685279 65.5745292,73.7766497 C66.1030011,70.6091371 65.4424112,67.4416244 63.8569954,64.8020305 C63.1964055,64.142132 62.4036976,63.8781726 61.6109897,63.8781726 L61.2146357,63.8781726 C57.3832142,64.142132 56.0620344,68.2335025 53.6839107,77.0761421 C52.6269668,82.0913706 51.041551,86.9746193 48.6634273,91.5939086 C45.4925957,96.8730964 39.6794045,100.040609 33.4698592,99.6446701 C32.1486794,99.6446701 30.8274996,99.3807107 29.3742018,99.248731 C26.4676061,98.5888325 23.8252465,97.1370558 21.4471228,95.1573604 C19.333235,93.4416244 17.4835833,91.1979695 16.4266394,88.6903553 C14.4448696,84.071066 14.4448696,78.9238579 16.4266394,74.4365482 C17.7478192,71.4010152 19.597471,68.6294416 21.5792407,65.9898477 C22.9004206,64.2741117 24.2216004,62.4263959 25.4106623,60.4467005 C27.128196,57.8071066 27.260314,54.2436548 25.6748982,51.4720812 C23.0325386,47.9086294 19.9938249,44.4771574 16.6908754,41.5736041 C15.7660495,40.6497462 14.9733416,39.9898477 14.1806337,39.3299492 C6.51779064,32.071066 -1.27717038,24.1522843 0.176127436,13.857868 C0.176127436,8.84263959 3.21484105,4.22335025 7.83897047,2.11167513 C10.4813301,0.659898477 13.6521617,0 16.6908754,0 C22.1077127,0 27.128196,2.63959391 30.0347917,7.25888325 C32.6771513,11.2182741 34.7910391,15.3096447 36.5085729,19.6649746 C39.4151685,26.2639594 44.0392979,40.2538071 47.0780115,21.248731" id="Shape" fill="#858585"></path>
                <g id="Group-4" transform="translate(142.033311, 2.800000)" fill="#000000">
                    <g id="Group-2" transform="translate(13.900000, 46.800000)">
                        <path d="M167.2,14.1 C166.7,13.2 167.2,12.5 168.2,12.5 L171.8,12.5 C172.3,12.4 172.7,12.7 173,13.2 L183,35 L192.4,13.2 C192.6,12.7 193,12.5 193.6,12.5 L196.8,12.5 C197.8,12.5 198.4,13.2 197.8,14.1 L180.4,50.9 C180.2,51.4 179.8,51.7 179.2,51.8 L176.6,51.8 C176,51.9 175.3,51.5 175.3,50.9 C175.3,50.7 175.3,50.4 175.5,50.1 L180.1,41 C180.2,40.9 167.2,14.1 167.2,14.1 Z" id="Path"></path>
                        <path d="M120.2,11.4 C127.4,11.4 130.8,15 130.8,23.4 L130.8,39.3 C130.8,40 130.3,40.6 129.5,40.6 L127.3,40.6 C126.7,40.6 126.2,40.2 126.1,39.6 L126.1,37.7 C123.7,39.9 120.5,41 117.3,40.9 C112,40.8 107.9,36.4 108,31.2 L108,31 C108,25.7 112.5,21.6 119.9,21.6 C122,21.8 124.1,22.4 125.9,23.5 C125.9,18.3 123.9,15.8 119.9,15.8 C117.5,15.7 115.1,16.3 112.9,17.4 C112.4,17.6 111.9,17.5 111.7,17 C111.6,16.9 111.6,16.8 111.6,16.7 L111.1,15 C110.9,14.4 111.1,13.7 111.7,13.4 C111.7,13.4 111.8,13.4 111.8,13.3 C114.4,12 117.3,11.3 120.2,11.4 Z M119.4,25.5 C115.5,25.5 112.7,27.2 112.7,30.8 C112.7,34 115,36.5 118,36.5 C121,36.6 123.9,35.3 125.9,33 L125.9,27.7 C124,26.3 121.7,25.5 119.4,25.5 Z" id="Combined-Shape"></path>
                        <path d="M69.6,11.9 C69.8,11.9 70,11.9 70.3,12 C77.1,12.3 82.4,18.1 82.2,24.9 C82.2,25.4 82,26.3 82,26.8 C81.9,27.5 81.3,28 80.7,28 L80.7,28 L60.9,28 C60.7,28 60.6,28.3 60.6,28.5 C61.2,33.3 65.1,36.9 69.9,37.1 C72.4,37.1 74.8,36.4 76.9,35.1 C77.9,34.4 78.4,34.2 78.9,34.9 C79.4,35.5 79.6,36 80.1,36.5 C80.5,37.2 80.8,37.7 79.8,38.4 C76.8,40.5 73.2,41.6 69.5,41.6 C69.1,41.7 68.8,41.6 68.4,41.6 C60.9,40.9 55.3,34.3 55.8,26.8 L55.8,26.8 L55.8,26 C55.8,18.3 61.9,12 69.6,11.9 Z M69.4,16.2 C65.1,16.1 61.4,19.2 60.7,23.4 C60.8,23.6 61,23.8 61.2,23.8 L61.2,23.8 L76.8,23.8 C77.3,23.8 77.3,23.5 77.3,23.4 C76.8,19.4 73.5,16.4 69.4,16.2 Z" id="Combined-Shape"></path>
                        <path d="M18.9,35.4 C18.6,34.9 18.4,34.4 17.2,34.9 C16,36 14.5,36.6 12.9,36.6 C10.2,36.6 9.7,33.3 9.8,33 L9.8,17.7 C9.8,17.2 10.1,16.8 10.6,16.8 L17.9,16.8 C18.6,16.8 19.2,16.3 19.2,15.5 L19.2,13.9 C19.2,13.2 18.7,12.6 17.9,12.6 L10.8,12.6 C9.9,12.6 9.8,12.1 9.8,11.7 L9.8,4.3 C9.8,3.6 9.3,3 8.5,3 L6.3,3 C5.5,3 4.9,3.5 4.9,4.3 L4.9,11.8 C4.9,12.3 4.5,12.7 4,12.8 L1.3,12.8 C0.6,12.8 1.13686838e-13,13.3 1.13686838e-13,14.1 L1.13686838e-13,15.7 C1.13686838e-13,16.4 0.5,17 1.3,17 L4,17 C4.4,17.1 4.7,17.5 4.7,17.9 L4.7,33.8 C4.4,37.7 7.4,41.2 11.3,41.5 C11.8,41.5 12.3,41.5 12.8,41.4 C15.1,41.3 17.4,40.5 19.2,39 C19.9,38.5 20.2,38.1 19.7,37.3 C19.6,37.3 18.9,35.4 18.9,35.4 Z" id="Path"></path>
                        <path d="M31.4,15 C31.4,15 30.9,15.5 30.9,14.7 L30.9,1.3 C30.9,0.6 30.4,0 29.6,0 L27.4,0 C26.7,0 26.1,0.5 26.1,1.3 L26.1,39.3 C26.1,40 26.6,40.6 27.4,40.6 L29.6,40.6 C30.3,40.6 30.9,40.1 30.9,39.3 L30.9,24 C30.7,20.3 33.6,17.1 37.3,16.8 C37.8,16.6 38.3,16.6 38.9,16.6 C42.9,16.5 46.2,19.7 46.4,23.7 L46.4,39.3 C46.4,40 46.9,40.6 47.7,40.6 L49.9,40.6 C50.6,40.6 51.2,40.1 51.2,39.3 L51.2,24.5 C52,18.3 47.6,12.7 41.4,11.9 C40.5,11.9 39.8,11.9 39.1,11.9 C36.3,11.8 33.4,12.9 31.4,15 Z" id="Path"></path>
                        <path d="M151.4,11.5 C159,12.1 164.7,18.8 164.2,26.4 L164.2,26.4 L164.200631,27.2156939 C164.132576,34.774179 158.094521,41.0027397 150.5,41.2 C147.9,41.2 145.2,40.4 143,38.8 L143,38.8 L143,50.3 C143,51.1 142.4,51.6 141.7,51.6 L141.7,51.6 L139.5,51.6 C138.7,51.6 138.2,51 138.2,50.3 L138.2,50.3 L138.2,13.8 C138.2,13 138.8,12.5 139.5,12.5 L139.5,12.5 L141.7,12.5 C142.5,12.5 143,13.1 143,13.8 L143,13.8 L143,14.1 C145.3,12.4 148.1,11.5 150.9,11.5 L150.9,11.5 Z M150.2,15.9 C147.4,15.9 144.8,17.2 143,19.4 L143,19.4 L143,34.1 C145.1,35.6 147.5,36.4 150,36.5 L150,36.5 L150,36.4 L150.6,36.4 C155.7,36 159.6,31.5 159.2,26.3 C159.2,20.8 155.9,15.9 150.2,15.9 Z" id="Combined-Shape"></path>
                        <path d="M92.6,14.7 L92.6,13.8 C92.6,13.1 92.1,12.5 91.3,12.5 L89.1,12.5 C88.4,12.5 87.8,13 87.8,13.8 L87.8,39.2 C87.8,39.9 88.3,40.5 89.1,40.5 L91.3,40.5 C92,40.5 92.6,40 92.6,39.2 L92.6,20.3 C94.3,17.8 97.2,16.3 100.3,16.4 C101.2,16.4 102.2,16.6 103,16.9 C103.7,17.2 104.3,17.2 104.7,16.4 L105.6,14 C106.4,11.9 102.9,11.5 100.7,11.5 C97.6,11.4 94.7,12.6 92.6,14.7 Z" id="Path"></path>
                    </g>
                    <g id="Group-3" transform="translate(0.000000, -0.000000)">
                        <path d="M200.8,8.8 C201,8.8 201.4,8.8 201.5,8.9 C208.4,9.2 213.6,15 213.3,21.8 C213.3,22.3 213.1,23.2 213.1,23.7 C213,24.4 212.4,24.9 211.8,24.9 L211.8,24.9 L192.1,24.9 C191.9,24.9 191.8,25.2 191.8,25.4 C192.4,30.2 196.3,33.8 201.1,34 C203.6,34 206,33.3 208.1,32 C209.1,31.3 209.6,31.1 210.1,31.8 C210.6,32.4 210.8,32.9 211.3,33.4 C211.7,34.1 212,34.6 211,35.3 C208,37.4 204.4,38.5 200.7,38.5 C200.3,38.6 200,38.5 199.6,38.5 C192.1,37.8 186.5,31.2 187,23.7 L187,23.7 L187,22.9 C187,15.2 193.1,8.9 200.8,8.8 Z M200.8,13.3 C196.5,13.2 192.8,16.3 192.1,20.5 C192.2,20.7 192.4,20.9 192.6,20.9 L192.6,20.9 L208.2,20.9 C208.4,20.9 208.6,20.7 208.7,20.5 C208.2,16.5 204.9,13.5 200.8,13.3 Z" id="Combined-Shape"></path>
                        <path d="M265.5,32.5 C265.2,32 265,31.5 263.8,32 C262.6,33.1 261.1,33.7 259.5,33.7 C256.8,33.7 256.3,30.4 256.4,30.1 L256.4,14.8 C256.4,14.3 256.7,13.9 257.2,13.9 L264.5,13.9 C265.2,13.9 265.8,13.4 265.8,12.6 L265.8,11 C265.8,10.3 265.3,9.7 264.5,9.7 L257.4,9.7 C256.5,9.7 256.4,9.2 256.4,8.8 L256.4,1.3 C256.4,0.6 255.9,0 255.1,0 L252.9,0 C252.1,0 251.5,0.5 251.5,1.3 L251.5,8.7 C251.5,9.2 251.1,9.6 250.6,9.7 L247.9,9.7 C247.2,9.7 246.6,10.2 246.6,11 L246.6,12.6 C246.6,13.3 247.1,13.9 247.9,13.9 L250.6,13.9 C251,14 251.3,14.4 251.3,14.8 L251.3,30.7 C251,34.6 254,38.1 257.9,38.4 C258.4,38.4 258.9,38.4 259.4,38.3 C261.7,38.2 264,37.4 265.8,35.9 C266.5,35.4 266.8,35 266.3,34.2 C266.2,34.3 265.5,32.5 265.5,32.5 Z" id="Path"></path>
                        <path d="M224,11.9 C224,11.9 223.5,12.4 223.5,11.6 L223.5,10.9 C223.5,10.2 223,9.6 222.2,9.6 L220,9.6 C219.3,9.6 218.7,10.1 218.7,10.9 L218.7,36.3 C218.7,37 219.2,37.6 220,37.6 L222.2,37.6 C222.9,37.6 223.5,37.1 223.5,36.3 L223.5,20.9 C223.3,17.2 226.2,14 229.9,13.7 C230.4,13.5 230.9,13.5 231.5,13.5 C235.5,13.4 238.8,16.6 239,20.6 L239,36.3 C239,37 239.5,37.6 240.3,37.6 L242.5,37.6 C243.2,37.6 243.8,37.1 243.8,36.3 L243.8,21.5 C243.5,13.3 238.6,8.8 231.7,8.8 C228.9,8.8 226,9.8 224,11.9 Z" id="Path"></path>
                        <path d="M42.8,8.6 C50.4,9.2 56.1,15.9 55.6,23.5 L55.6,23.5 L55.6006311,24.3156939 C55.5325765,31.874179 49.4945205,38.1027397 41.9,38.3 C39.3,38.3 36.6,37.5 34.4,35.9 L34.4,35.9 L34.4,47.4 C34.4,48.2 33.8,48.7 33.1,48.7 L33.1,48.7 L30.9,48.7 C30.1,48.7 29.6,48.1 29.6,47.4 L29.6,47.4 L29.6,10.9 C29.6,10.1 30.2,9.6 30.9,9.6 L30.9,9.6 L33.1,9.6 C33.9,9.6 34.4,10.2 34.4,10.9 L34.4,10.9 L34.4,11.2 C36.7,9.5 39.5,8.6 42.3,8.6 L42.3,8.6 Z M11.9,8.4 C19.1,8.4 22.5,12 22.5,20.4 L22.5,36.2 C22.5,36.9 22,37.5 21.2,37.5 L19.3,37.5 C18.7,37.5 18.2,37.1 18.1,36.5 L18.1,34.6 C15.7,36.8 12.5,37.9 9.3,37.8 C4,37.6 0,33.3 0,28.1 L0,27.9 C0,22.7 4.6,18.6 11.8,18.6 C13.9,18.8 16,19.4 17.8,20.5 C17.8,15.3 15.8,12.8 11.8,12.8 C9.4,12.7 7,13.3 4.8,14.4 C4.3,14.6 3.8,14.5 3.6,14 C3.5,13.9 3.5,13.8 3.5,13.7 L2.8,12 C2.6,11.4 2.8,10.7 3.4,10.4 C3.4,10.4 3.5,10.4 3.5,10.3 C6.1,9 9,8.3 11.9,8.4 Z M72,8.4 C79.2,8.4 82.6,12 82.6,20.4 L82.6,36.2 C82.6,36.9 82.1,37.5 81.3,37.5 L79.4,37.5 C78.8,37.5 78.3,37.1 78.2,36.5 L78.2,34.6 C75.8,36.8 72.6,37.9 69.4,37.8 C64.1,37.7 60,33.3 60.1,28.1 L60.1,27.9 C59.8,22.7 64.3,18.6 71.7,18.6 C73.8,18.8 75.9,19.4 77.7,20.5 C77.7,15.3 75.7,12.8 71.7,12.8 C69.3,12.7 66.9,13.3 64.7,14.4 C64.2,14.6 63.7,14.5 63.5,14 C63.4,13.9 63.4,13.8 63.4,13.7 L62.9,12 C62.7,11.4 62.9,10.7 63.5,10.4 C63.5,10.4 63.6,10.4 63.6,10.3 C66.2,9 69.1,8.3 72,8.4 Z M11.3,22.8 C7.4,22.8 4.6,24.5 4.6,28.1 C4.6,31.1 7,33.5 9.9,33.7 C12.9,33.8 15.8,32.5 17.8,30.2 L17.8,25 C15.9,23.6 13.6,22.8 11.3,22.8 Z M71.2,22.7 C67.3,22.7 64.5,24.4 64.5,28 C64.5,31.1 66.8,33.6 69.8,33.7 C72.8,33.8 75.7,32.5 77.7,30.2 L77.7,25 C75.8,23.5 73.5,22.7 71.2,22.7 Z M41.6,13 C38.8,13 36.2,14.3 34.4,16.5 L34.4,16.5 L34.4,31.3 C36.5,32.8 38.9,33.6 41.4,33.7 L41.4,33.7 L41.4,33.5 L42,33.5 C47.1,33.1 51,28.6 50.6,23.4 C50.6,17.9 47.3,13 41.6,13 Z" id="Combined-Shape"></path>
                        <path d="M128.1,32 C126.9,33.1 125.4,33.7 123.8,33.7 C121.1,33.7 120.6,30.4 120.7,30.1 L120.7,14.8 C120.7,14.3 121,13.9 121.5,13.9 L128.8,13.9 C129.5,13.9 130.1,13.4 130.1,12.6 L130.1,11 C130.1,10.3 129.6,9.7 128.8,9.7 L121.7,9.7 C120.8,9.7 120.7,9.2 120.7,8.8 L120.7,1.3 C120.7,0.6 120.2,0 119.4,0 L117.2,0 C116.4,0 115.8,0.5 115.8,1.3 L115.8,8.7 C115.8,9.2 115.4,9.6 114.9,9.7 L112.3,9.7 C111.6,9.7 111,10.2 111,11 L111,12.6 C111,13.3 111.5,13.9 112.3,13.9 L115,13.9 C115.4,14 115.7,14.4 115.7,14.8 L115.7,30.7 C115.4,34.6 118.4,38.1 122.3,38.4 C122.8,38.4 123.3,38.4 123.8,38.3 C126.1,38.2 128.4,37.4 130.2,35.9 C130.9,35.4 131.2,35 130.7,34.2 L129.8,32.5 C129.5,32 129.3,31.5 128.1,32 Z" id="Path"></path>
                        <path d="M94.1,11.8 L94.1,10.9 C94.1,10.2 93.6,9.6 92.8,9.6 L90.6,9.6 C89.9,9.6 89.3,10.1 89.3,10.9 L89.3,36.3 C89.3,37 89.8,37.6 90.6,37.6 L92.8,37.6 C93.5,37.6 94.1,37.1 94.1,36.3 L94.1,17.3 C95.8,14.8 98.7,13.3 101.8,13.4 C102.7,13.4 103.7,13.6 104.5,13.9 C105.2,14.2 105.8,14.2 106.2,13.4 L107.1,11 C107.9,8.8 104.4,8.6 102.2,8.6 C99.1,8.5 96.2,9.7 94.1,11.8 Z" id="Path"></path>
                        <path d="M160.2,14.5 C158.2,10.8 154.2,8.6 149.9,8.8 C147.1,8.7 144.2,9.8 142.2,11.9 C142.2,11.9 141.7,12.4 141.7,11.6 L141.7,10.9 C141.7,10.2 141.2,9.6 140.4,9.6 L138.2,9.6 C137.5,9.6 136.9,10.1 136.9,10.9 L136.9,36.3 C136.9,37 137.4,37.6 138.2,37.6 L140.4,37.6 C141.1,37.6 141.7,37.1 141.7,36.3 L141.7,20.9 C141.5,17.2 144.4,14 148.1,13.7 C148.6,13.5 149.1,13.5 149.7,13.5 C153.7,13.4 157,16.6 157.2,20.6 L157.2,36.3 C157.2,37 157.7,37.6 158.5,37.6 L160.9,37.6 C161.6,37.6 162.2,37.1 162.2,36.3 L162.2,20.9 C162,17.2 164.9,14 168.6,13.7 C169.1,13.5 169.6,13.5 170.2,13.5 C174.2,13.4 177.5,16.6 177.7,20.6 L177.7,36.3 C177.7,37 178.2,37.6 179,37.6 L181.2,37.6 C181.9,37.6 182.5,37.1 182.5,36.3 L182.5,21.5 C182.1,13.3 177.2,8.8 170.2,8.8 C166.1,8.7 162.3,10.9 160.2,14.5 Z" id="Path"></path>
                    </g>
                </g>
            </g>
        </g>
    </g>
</svg>