<?xml version="1.0" encoding="UTF-8"?>
<svg width="332px" height="170px" viewBox="0 0 332 170" version="1.1" xmlns="http://www.w3.org/2000/svg" xmlns:xlink="http://www.w3.org/1999/xlink">
    <title>logo_USA_today</title>
    <g id="Page-1" stroke="none" stroke-width="1" fill="none" fill-rule="evenodd">
        <g id="Artboard" transform="translate(-2677.000000, -1508.000000)" fill-rule="nonzero">
            <g id="logo_USA_today" transform="translate(2677.000000, 1508.000000)">
                <path d="M170.15,84.9958014 C170.15,38.0524574 132.059765,0 85.0707977,0 C38.0893949,0 0,38.0549765 0,84.9958014 C0,131.943344 38.0919163,170 85.0707977,170 C132.058084,170 170.15,131.945023 170.15,84.9958014" id="Path" fill="#808080" transform="translate(85.075000, 85.000000) scale(-1, 1) rotate(-180.000000) translate(-85.075000, -85.000000) "></path>
                <path d="M212.531688,59.730932 C212.531688,65.1664252 216.556092,67.5466328 221.114771,68.9414219 C224.50776,69.975658 226.526901,70.6019184 226.526901,72.8056852 C226.526901,74.6495964 225.132237,75.6378045 222.807796,75.6378045 C219.727045,75.6378045 217.048735,73.8838572 215.432034,71.9541664 L211.095392,77.9719841 C213.02433,80.0850896 217.492807,82.5573533 223.258807,82.5573533 C231.08558,82.5573533 235.415284,78.0180121 235.415284,71.9541664 C235.415284,66.1567254 231.481082,63.8183615 226.388129,62.2018009 C223.793082,61.3914284 221.427009,60.8537372 221.427009,58.8780184 C221.427009,57.620616 222.412295,56.6756464 224.736735,56.6756464 C227.415046,56.6756464 229.607652,57.935141 230.898237,59.416407 L234.971212,53.3930102 C232.695342,51.2373636 229.066439,49.7560976 224.285724,49.7560976 C217.402605,49.7560976 212.531688,53.754958 212.531688,59.730932 Z M247.822356,50.4539966 L236.110138,81.8594542 L245.265316,81.8594542 L246.700603,77.3406234 L258.593973,77.3406234 L260.078031,81.8594542 L269.463134,81.8594542 L257.743949,50.4539966 L247.822356,50.4539966 Z M181.216667,70.4950203 C181.216667,78.2524095 185.926716,82.5573533 195.110269,82.5573533 C204.036405,82.5573533 209.010829,78.2524095 209.010829,70.4950203 L209.010829,50.4539966 L200.001207,50.4539966 L200.001207,67.8964655 C200.001207,71.346823 199.639431,74.7115827 195.110269,74.7115827 C190.588065,74.7115827 190.226289,71.346823 190.226289,67.8964655 L190.226289,50.4539966 L181.216667,50.4539966 L181.216667,70.4950203 Z M252.913094,58.1308863 C253.086142,59.5062091 253.472172,61.4343647 253.944726,62.9455834 L256.260906,70.6930693 L249.312366,70.6930693 L251.628546,62.9455834 C252.1011,61.4343647 252.48713,59.5062091 252.660178,58.1308863 L252.913094,58.1308863 Z M223.578293,87.4426467 C211.817934,87.4426467 206.231413,96.1159987 206.231413,103.888957 C206.231413,111.616581 211.817934,120.243902 223.578293,120.243902 C235.380604,120.243902 240.974117,111.616581 240.974117,103.888957 C240.974117,96.1159987 235.380604,87.4426467 223.578293,87.4426467 Z M181.216667,95.4326111 L188.906806,95.4326111 L188.906806,119.546003 L197.84642,119.546003 L197.84642,95.4326111 L205.536559,95.4326111 L205.536559,88.1405458 L181.216667,88.1405458 L181.216667,95.4326111 Z M272.24255,119.546003 L281.397728,119.546003 L282.833014,115.025784 L294.733352,115.025784 L296.21741,119.546003 L305.595545,119.546003 L293.87636,88.1405458 L283.961735,88.1405458 L272.24255,119.546003 Z M310.96711,108.360022 L310.96711,119.546003 L320.367862,119.546003 L320.367862,108.360022 L332,88.1405458 L322.502831,88.1405458 L318.287988,95.8797726 C317.399566,97.534409 316.153019,100.041707 315.891313,101.694261 L315.712251,101.694261 C315.450545,100.041707 314.203999,97.534409 313.315576,95.8797726 L309.100734,88.1405458 L299.341859,88.1405458 L310.96711,108.360022 Z M244.448387,119.546003 L256.091223,119.546003 C267.063968,119.546003 273.632258,113.463227 273.632258,103.846052 C273.632258,94.0448662 267.245451,88.1405458 256.091223,88.1405458 L244.448387,88.1405458 L244.448387,119.546003 Z M223.908609,95.8174354 C228.288661,95.8174354 231.941014,98.6823417 231.941014,104.234979 C231.941014,109.741783 228.288661,112.567013 223.908609,112.567013 C219.618654,112.567013 215.95937,109.741783 215.95937,104.234979 C215.95937,98.6823417 219.618654,95.8174354 223.908609,95.8174354 Z M253.48149,95.8174354 L255.465764,95.8174354 C261.418586,95.8174354 264.599155,98.564666 264.599155,104.196007 C264.599155,109.822534 261.418586,112.567013 255.465764,112.567013 L253.48149,112.567013 L253.48149,95.8174354 Z M288.350652,95.8174354 C288.5237,97.19498 288.90973,99.1187066 289.382284,100.63493 L291.698464,108.379618 L284.749923,108.379618 L287.066103,100.63493 C287.532002,99.1187066 287.918032,97.19498 288.09108,95.8174354 L288.350652,95.8174354 Z" id="Shape" fill="#000000" transform="translate(256.608333, 85.000000) rotate(-360.000000) translate(-256.608333, -85.000000) "></path>
            </g>
        </g>
    </g>
</svg>