<?xml version="1.0" encoding="UTF-8"?>
<svg width="406px" height="90px" viewBox="0 0 406 90" version="1.1" xmlns="http://www.w3.org/2000/svg" xmlns:xlink="http://www.w3.org/1999/xlink">
    <title>Men_s_Health_logo</title>
    <g id="Page-1" stroke="none" stroke-width="1" fill="none" fill-rule="evenodd">
        <g id="Artboard" transform="translate(-1622.000000, -1548.000000)" fill="#000000" fill-rule="nonzero">
            <g id="Men_s_Health_logo" transform="translate(1622.000000, 1548.000000)">
                <path d="M313.56175,1.45927422 C313.366,1.82816977 313.53346,2.56093197 313.477715,3.07008846 C313.477715,4.07661051 313.477715,5.08314154 313.477715,6.08966359 C314.649039,6.14126353 315.855357,5.97003902 317.003312,6.21401171 C317.99719,6.57133184 317.916831,7.80151349 317.931558,8.67145645 C317.925588,33.2020807 317.943498,57.7333065 317.922603,82.2635536 C317.923356,82.9809058 317.843445,83.9760411 316.951152,84.0766457 C316.320125,84.1410423 315.680699,84.0869549 315.046364,84.1047086 C315.046364,85.6481718 315.046364,87.1916349 315.046364,88.735098 C321.946556,88.735098 328.846738,88.735098 335.74693,88.735098 C335.74693,87.1916349 335.74693,85.6481718 335.74693,84.1047086 C334.536937,84.0425301 333.29419,84.2368336 332.105423,83.9924568 C331.132565,83.7374475 331.038249,82.5274173 331.068994,81.6800684 C331.068994,54.5001475 331.068994,27.3202357 331.068994,0.140314829 C325.232786,0.567284997 319.397546,1.02173442 313.56175,1.45927422 Z M362.918173,1.45927422 C362.722424,1.82816977 362.889884,2.56093197 362.834138,3.07008846 C362.834138,4.07661051 362.834138,5.08314154 362.834138,6.08966359 C363.929369,6.16966774 365.082237,5.90685469 366.135643,6.27013764 C367.135446,6.65283568 367.262202,8.07996097 367.25997,9.1204639 C367.253363,33.5554585 367.273173,57.9919169 367.250074,82.4259955 C367.210364,83.2267105 366.801942,83.9759692 365.971436,84.0485827 C365.443151,84.1352142 364.907372,84.0964559 364.374776,84.1047086 C364.374776,85.6481718 364.374776,87.1916349 364.374776,88.735098 C370.686724,88.735098 376.998663,88.735098 383.310611,88.735098 C383.310611,87.1916349 383.310611,85.6481718 383.310611,84.1047086 C382.465172,84.0369624 381.543237,84.2811686 380.761557,83.8802049 C380.221099,83.1867758 380.503142,82.1927182 380.425417,81.3657632 C380.435367,67.37558 380.405518,53.38484 380.440351,39.394998 C380.500497,37.0967982 380.577245,34.6453343 381.729359,32.6000425 C382.050197,32.0719109 382.416015,31.5650983 382.890437,31.262144 C384.351648,30.2291754 386.374407,30.0549605 388.016559,30.7289476 C388.744394,31.0780689 389.114021,31.805443 389.357287,32.6137372 C389.907489,35.2685656 389.625016,38.0088491 389.697254,40.7025257 C389.689832,54.6661905 389.712098,68.6317142 389.686139,82.5942296 C389.664707,83.3573178 389.135893,84.0961685 388.319989,84.0893436 C387.707517,84.1257222 387.090222,84.0940941 386.475921,84.1047086 C386.475921,85.6481718 386.475921,87.1916349 386.475921,88.735098 C392.937258,88.735098 399.398605,88.735098 405.859942,88.735098 C405.859942,87.1916349 405.859942,85.6481718 405.859942,84.1047086 C404.955611,84.0289252 403.800189,84.3746699 403.142818,83.5715123 C402.655273,82.4557557 402.943752,81.1802513 402.862702,79.9962904 C402.853138,64.4552085 402.881821,48.9133633 402.848369,33.3727663 C402.719596,30.539206 402.245568,27.5275604 400.425693,25.2566693 C399.244554,23.7729511 397.454313,22.8251502 395.595043,22.4232975 C392.703879,21.8178559 389.559123,21.8559227 386.874663,23.2092581 C384.612393,24.2671287 382.852037,26.1487393 381.325714,28.0799114 C381.031696,28.4215791 380.613772,29.2072434 380.425417,29.2921238 C380.425417,19.5748571 380.425417,9.85758148 380.425417,0.140314829 C374.589209,0.567284997 368.753969,1.02173442 362.918173,1.45927422 Z M0.056023182,1.54346312 C0.056023182,3.05886328 0.056023182,4.57426343 0.056023182,6.08966359 C1.15734034,6.17040411 2.42820605,5.81651439 3.36139092,6.56673401 C3.73729303,6.77929414 4.04584182,7.22168322 4.29868116,7.64389391 C5.36773793,9.44683844 5.4101811,11.6481514 5.40623706,13.6947273 C5.39934397,34.990648 5.42001428,56.2870894 5.39590191,77.5826778 C5.37312512,79.4521114 5.0327462,81.5155072 3.97764592,83.010253 C3.43807545,83.720951 2.61050997,84.1952196 1.66388851,84.1047086 C1.15566413,84.1605562 0.424243389,83.992789 0.056023182,84.1888975 C0.056023182,85.7042977 0.056023182,87.2196979 0.056023182,88.735098 C5.8917743,88.735098 11.7275164,88.735098 17.5632676,88.735098 C17.5632676,87.1916349 17.5632676,85.6481718 17.5632676,84.1047086 C16.3718293,84.043931 15.1480499,84.2347412 13.9777839,83.9924568 C13.0406729,83.6366812 12.4890284,82.9038562 12.0985513,81.9807238 C11.0221711,79.2714936 11.4243369,76.2970617 11.3446944,73.4520068 C11.3446944,56.4421048 11.3446944,39.4322117 11.3446944,22.4223097 C15.944108,44.4895533 20.5741147,66.5536269 25.1544087,88.6228461 C27.4326878,88.6228461 29.7109579,88.6228461 31.9892369,88.6228461 C36.5696116,66.4788043 41.1995198,44.3398812 45.7989513,22.197806 C45.7914845,41.2673681 45.8138848,60.3375587 45.7877556,79.4067347 C45.7301728,80.8981309 45.6700083,82.6452189 44.4824065,83.7118271 C43.9871795,84.0384711 43.2317181,84.1689347 42.5776183,84.1047086 C41.6532358,84.1047086 40.7288533,84.1047086 39.8044708,84.1047086 C39.8044708,85.6481718 39.8044708,87.1916349 39.8044708,88.735098 C48.1892767,88.735098 56.5740736,88.735098 64.9588795,88.735098 C64.9588795,87.1916349 64.9588795,85.6481718 64.9588795,84.1047086 C63.8391509,84.0037448 62.5695222,84.3865327 61.5818021,83.7140722 C60.786022,83.2354033 60.5132384,82.0663136 60.3586951,81.1411158 C60.0505496,78.5371419 60.2570735,75.9055452 60.1969091,73.2892416 C60.2043758,52.4554484 60.1819755,31.6210356 60.2081047,10.7876376 C60.3200704,9.30078529 60.3302442,7.5363656 61.5414654,6.48254511 C62.093361,6.1024154 62.9890507,6.05487449 63.7151649,6.08966359 C64.165403,5.97760031 65.1606437,6.41153009 64.9588795,5.64626873 C64.9588795,4.2506009 64.9588795,2.85494205 64.9588795,1.45927422 C57.9466416,1.45927422 50.9344126,1.45927422 43.9221747,1.45927422 C40.3491327,19.6555707 36.7289057,37.8472334 33.1377122,56.0417428 C29.32265,37.8471885 25.4768064,19.6558401 21.6809714,1.45927422 C14.4726524,1.45927422 7.26434225,1.45927422 0.056023182,1.45927422 L0.056023182,1.54346312 Z M179.022078,1.54346312 C179.022078,3.05886328 179.022078,4.57426343 179.022078,6.08966359 C180.323842,6.17101476 181.680123,5.89698551 182.941576,6.29450977 C184.118601,6.71032659 184.211662,8.12538256 184.311814,9.23209613 C184.387145,14.4674063 184.322956,19.7058416 184.34428,24.942364 C184.338866,44.0193258 184.355109,63.0972663 184.336168,82.1736084 C184.330907,83.0760864 183.78542,83.9166464 182.859666,83.9924568 C181.594394,84.2075403 180.299828,84.0617656 179.022078,84.1047086 C179.022078,85.6481718 179.022078,87.1916349 179.022078,88.735098 C187.481579,88.735098 195.941079,88.735098 204.40058,88.735098 C204.40058,87.1916349 204.40058,85.6481718 204.40058,84.1047086 C203.050152,84.0315833 201.661378,84.2724848 200.338899,83.9363308 C199.219923,83.5810133 198.983954,82.1893326 198.896172,81.1135647 C198.800511,76.8460901 198.880674,72.5743948 198.854285,68.3052589 C198.854285,61.3175804 198.854285,54.3299019 198.854285,47.3422234 C204.419251,47.3422234 209.984226,47.3422234 215.549193,47.3422234 C215.53832,58.4249756 215.57093,69.5087156 215.532915,80.5908571 C215.454339,81.7382867 215.364038,83.1969862 214.26066,83.824079 C213.042778,84.3365671 211.677803,84.0127609 210.39506,84.1047086 C209.681477,83.9379832 210.125387,84.9308644 210.002898,85.3563169 C210.002898,86.4825803 210.002898,87.6088347 210.002898,88.735098 C218.425046,88.735098 226.847204,88.735098 235.269353,88.735098 C235.269353,87.1916349 235.269353,85.6481718 235.269353,84.1047086 C233.97839,84.0166583 232.618623,84.319442 231.37999,83.8633851 C230.1794,83.2944927 230.115731,81.7516851 230.075,80.5802785 C229.975763,76.1611112 230.058202,71.7381274 230.031185,67.3174425 C230.038347,48.3432765 230.016861,29.3685448 230.041933,10.3947381 C230.11833,9.08945545 229.97855,7.37609688 231.039603,6.51060808 C232.200098,5.809456 233.631163,6.1878256 234.916407,6.08966359 C235.594843,6.20434907 235.135507,5.17915729 235.269353,4.74825382 C235.269353,3.65193028 235.269353,2.55559776 235.269353,1.45927422 C226.847204,1.45927422 218.425046,1.45927422 210.002898,1.45927422 C210.002898,3.00273735 210.002898,4.54620047 210.002898,6.08966359 C211.33495,6.16130722 212.704452,5.92388106 214.008555,6.25804138 C215.148927,6.59403366 215.427349,8.02009929 215.500834,9.11306426 C215.611553,12.380716 215.518537,15.6553184 215.549193,18.9256642 C215.549193,26.6018238 215.549193,34.2779744 215.549193,41.9541339 C209.984226,41.9541339 204.419251,41.9541339 198.854285,41.9541339 C198.864691,31.1706991 198.833489,20.3863573 198.869854,9.60348816 C198.913517,8.60795781 198.998134,7.4001996 199.638609,6.67898587 C200.693709,5.76874 202.19937,6.18840033 203.470595,6.08966359 C204.093429,6.16548299 204.62469,6.14954322 204.40058,5.37686426 C204.40058,4.07099792 204.40058,2.76514056 204.40058,1.45927422 C195.941079,1.45927422 187.481579,1.45927422 179.022078,1.45927422 L179.022078,1.54346312 Z M145.128053,1.51540016 C143.492373,1.65600235 142.029039,2.58743239 141.038361,3.84462632 C140.418977,4.56210431 139.889814,5.64332324 139.765989,6.68380821 C139.41117,8.93182689 140.550107,11.1562098 142.168335,12.6334803 C143.377485,13.8213564 144.851056,14.7214278 146.416586,15.3785053 C144.209784,17.8586698 141.811839,20.1573904 139.4417,22.4784356 C140.408624,23.5117634 141.35997,24.560106 142.326894,25.5934249 C145.139123,23.4433437 147.89169,21.1506128 150.166151,18.4018431 C151.92829,16.377502 153.365092,13.8828345 153.660572,11.1586434 C153.938348,8.091707 152.506046,4.95318082 150.114116,3.08692624 C149.417842,2.53443155 148.438324,1.97587526 147.478104,1.74618999 C146.718798,1.53455481 145.914843,1.43862886 145.128053,1.51540016 Z M347.791914,5.97741173 C346.34432,10.2371993 344.939106,14.5602341 342.796026,18.5247454 C342.048516,19.8534752 341.217069,21.1804 340.032703,22.0574912 C338.756872,23.0755886 337.079224,23.2283499 335.50603,23.1519468 C334.705051,22.9145027 334.736971,23.5114761 334.794536,24.1341506 C334.794536,25.4624673 334.794536,26.7907751 334.794536,28.1190918 C336.27915,28.1190918 337.763764,28.1190918 339.248379,28.1190918 C339.257746,44.591909 339.229662,61.06531 339.26238,77.5377591 C339.367121,80.2711908 339.506704,83.1244086 340.746923,85.6152865 C341.531955,87.1627457 342.932517,88.3900897 344.600305,88.9363521 C347.386414,89.9251833 350.409926,89.9340018 353.325669,89.746622 C355.755667,89.487392 358.279471,88.6415249 359.869884,86.7048839 C361.107889,85.4114999 361.78144,83.6287158 362.151426,81.8838639 C362.870925,78.6978686 362.529247,75.4090866 362.610046,72.1723356 C362.610046,70.6681606 362.610046,69.1639856 362.610046,67.6598107 C360.966702,67.6598107 359.323349,67.6598107 357.680006,67.6598107 C357.651358,71.7149856 357.741541,75.774435 357.626501,79.8267003 C357.509363,81.0388229 357.440683,82.5778229 356.279426,83.2628197 C355.170669,83.8476788 353.444671,83.6468019 352.890023,82.3928677 C352.145534,80.4913212 352.459703,78.3857007 352.385815,76.387393 C352.385815,60.3353766 352.385815,44.2833601 352.385815,28.2313436 C355.719194,28.2313436 359.052573,28.2313436 362.385953,28.2313436 C362.385953,26.5382084 362.385953,24.8450821 362.385953,23.1519468 C359.089925,23.1519468 355.793889,23.1519468 352.497861,23.1519468 C352.497861,17.4083961 352.497861,11.6648365 352.497861,5.92128579 C350.938552,5.92128579 349.379234,5.92128579 347.819925,5.92128579 L347.791914,5.97741173 Z M82.1019732,22.0855541 C78.4796129,22.2999552 75.0019806,24.0083836 72.5353023,26.6465 C70.6795546,28.5095936 69.2177798,30.7366166 68.1311452,33.1361394 C65.575027,38.6400009 64.5327627,44.7186279 64.1209789,50.7371149 C63.6974168,57.7079286 63.9349102,64.7482128 65.1796826,71.6282912 C65.9947706,75.6772877 67.2721977,79.7151399 69.6043218,83.1539354 C70.9997562,85.0671561 72.7036945,86.7939759 74.8189596,87.921272 C77.8554877,89.5985304 81.4152276,90.0120034 84.8356087,89.809034 C87.8163109,89.6186549 90.9430947,89.0716201 93.3906444,87.2477608 C94.8029754,86.1251165 96.0114357,84.7017988 96.7322345,83.0218553 C98.2690803,79.5443195 98.5286156,75.6656764 98.474412,71.9086874 C98.4604824,70.6400617 98.3829643,69.3735284 98.2926728,68.1088181 C96.686672,68.1088181 95.08068,68.1088181 93.4746792,68.1088181 C93.4834815,71.6579167 93.5802806,75.2512066 92.8584242,78.7446822 C92.4808459,80.2374344 91.9308416,81.8054852 90.6455085,82.7576863 C89.7487521,83.3153176 88.5061221,83.6487595 87.3744538,83.6500437 C85.4439398,83.7383365 83.2314633,83.665723 81.6537878,82.5612455 C80.7425999,81.8375622 80.2054675,80.9535384 79.7910663,79.8688891 C78.5723873,76.2989745 78.4918573,72.4728203 78.3386496,68.7376081 C78.1782261,63.9089281 78.2137672,59.0764046 78.2083621,54.245713 C85.2766232,54.245713 92.3448754,54.245713 99.4131365,54.245713 C99.3657005,48.4382506 99.2044255,42.5921735 98.1240296,36.8718545 C97.4038763,33.2601553 96.3382347,29.5481119 94.034911,26.6317546 C92.7237444,25.0412714 91.0822562,23.7339054 89.1353117,23.023827 C86.8963654,22.1870927 84.4743354,21.9815191 82.1019732,22.0855541 Z M127.28467,22.0855541 C124.367699,22.2800462 121.557657,23.6168491 119.511108,25.6814393 C118.319481,26.7809418 117.306914,28.0256803 116.416172,29.3819252 C116.416172,27.0526991 116.416172,24.7234729 116.416172,22.3942467 C110.626629,22.7827549 104.838529,23.2124461 99.0489858,23.6009543 C99.0489858,25.1444174 99.0489858,26.6878805 99.0489858,28.2313436 C100.089314,28.2837787 101.163677,28.119424 102.182421,28.3276288 C103.187996,28.6107819 103.464599,29.8367339 103.474817,30.8131365 C103.540163,36.4389484 103.484166,42.06855 103.502829,47.6958168 C103.490916,59.1583664 103.526672,70.6218679 103.484919,82.0838159 C103.487241,82.907987 103.214637,83.8922473 102.324191,84.0171252 C101.283863,84.1975095 100.213623,84.0632742 99.1610322,84.1047086 C99.1610322,85.6481718 99.1610322,87.1916349 99.1610322,88.735098 C105.949177,88.735098 112.737314,88.735098 119.525459,88.735098 C119.525459,87.1916349 119.525459,85.6481718 119.525459,84.1047086 C118.68002,84.0369624 117.758084,84.2811686 116.976404,83.8802049 C116.413483,83.0943161 116.727303,82.0110857 116.640265,81.0963587 C116.650215,67.195977 116.620366,53.2950385 116.655198,39.394998 C116.710773,37.0969509 116.795167,34.6448583 117.954829,32.6077115 C118.227083,32.0845999 118.62258,31.6469703 119.105285,31.234081 C119.752205,30.8371404 120.617714,30.4350812 121.463072,30.3803203 C122.679788,30.2344467 124.310269,30.4024294 124.987719,31.3743958 C126.016672,32.8729402 125.827072,34.8048936 125.912102,36.5379815 C125.90468,51.8898337 125.926936,67.2435358 125.900987,82.5942296 C125.853309,83.3490291 125.403339,84.0566918 124.623568,84.0766457 C123.983201,84.1409525 123.334435,84.086892 122.690769,84.1047086 C122.690769,85.6481718 122.690769,87.1916349 122.690769,88.735098 C129.152106,88.735098 135.613452,88.735098 142.07479,88.735098 C142.07479,87.1916349 142.07479,85.6481718 142.07479,84.1047086 C141.170459,84.0289252 140.015037,84.3746699 139.357665,83.5715123 C138.87012,82.4557557 139.158599,81.1802513 139.077549,79.9962904 C139.067985,64.4552085 139.096669,48.9133633 139.063216,33.3727663 C138.934444,30.539206 138.460416,27.5275604 136.640541,25.2566693 C135.581102,23.9297265 134.031026,23.007995 132.377015,22.5667105 C130.733349,22.1060468 128.983651,22.0005121 127.28467,22.0855541 Z M158.377536,22.1136171 C154.703625,22.3689946 151.03607,23.9610852 148.687309,26.8476553 C147.362706,28.3120213 146.509647,30.1698615 145.932698,32.0608474 C144.944458,35.3529431 145.061686,38.8577606 145.420844,42.2394692 C145.906184,46.1871248 147.522036,49.9423357 149.931543,53.0917818 C152.443246,56.5005207 155.398465,59.578808 158.139217,62.8193936 C159.418939,64.2908808 160.751072,65.7330568 161.866095,67.2623582 C163.517093,69.3963111 165.035841,71.7401569 165.479204,74.4554397 C165.8447,76.6320572 165.815774,78.9300145 165.148479,81.046465 C164.803681,82.0003364 164.319058,82.7798044 163.444272,83.3425185 C161.824763,84.4477593 159.72038,84.4209626 157.842868,84.2213967 C156.749744,84.0304338 155.651824,83.5915021 154.882702,82.8798612 C153.908687,82.1232028 153.36918,81.0326894 152.815411,79.9271613 C151.253431,76.2649846 151.028316,72.2349272 150.362214,68.3520185 C150.270865,67.8343039 149.354971,68.2351688 148.909618,68.1088181 C147.695779,68.1088181 146.48195,68.1088181 145.268111,68.1088181 C145.268111,74.9842447 145.268111,81.8596714 145.268111,88.735098 C146.696702,88.735098 148.125293,88.735098 149.553884,88.735098 C149.819856,87.5056617 150.202731,86.1553706 151.19712,85.3177292 C151.789801,84.8147062 152.267656,85.6300498 152.67053,85.9923001 C155.082234,88.4774306 158.553592,89.815832 162.007425,89.8444966 C165.453138,89.8961864 169.039733,89.0408721 171.767076,86.8548793 C173.452316,85.4341928 174.869003,83.655315 175.69561,81.5805234 C177.374997,77.6736467 177.413146,73.2909658 176.923028,69.1322767 C176.523211,65.2404777 174.960684,61.5431438 172.719094,58.3648086 C169.301196,53.6283277 165.069518,49.5348345 161.313007,45.0602508 C160.109665,43.4942475 158.735564,41.8338897 157.896982,39.9529436 C156.734156,37.4340208 156.427525,34.552264 156.826464,31.8195328 C156.997725,30.6392718 157.575732,29.4279126 158.489582,28.8206659 C160.185103,27.6467988 162.410595,27.7994075 164.352771,28.1205555 C165.451829,28.3638996 166.47829,28.9608281 167.201187,29.7467438 C167.400495,30.0472286 167.704624,30.3501559 167.875276,30.7463062 C169.172459,32.94497 169.292931,35.5819908 169.627277,38.0588955 C169.795472,39.45107 169.991733,40.8414845 170.142404,42.2347636 C171.823099,42.2347636 173.503795,42.2347636 175.18449,42.2347636 C175.18449,35.8738277 175.18449,29.5128828 175.18449,23.1519468 C173.802582,23.1519468 172.420683,23.1519468 171.038775,23.1519468 C170.880144,24.2668952 171.023357,25.5022763 170.506554,26.5195027 C170.08786,26.6028475 169.847964,25.991003 169.494059,25.8234244 C168.763696,25.1938262 167.806811,24.5222008 166.889303,24.0037499 C164.304708,22.5614841 161.347105,21.7936903 158.377536,22.1136171 Z M252.412447,22.0855541 C248.919415,22.2986261 245.547249,23.8893158 243.111173,26.3806157 C239.850929,29.5416282 237.879612,33.7840751 236.567791,38.0912959 C234.707597,44.3580839 234.204661,50.9443857 234.246038,57.4560355 C234.319253,62.5737416 234.639455,67.719825 235.735932,72.7287366 C236.534993,76.3261394 237.744385,79.9025736 239.809256,82.9733715 C241.677374,85.7098744 244.363565,87.9640085 247.566235,88.9665344 C250.797509,90.0470798 254.298976,90.0142304 257.64044,89.5478554 C260.217112,89.1582067 262.86051,88.274129 264.702732,86.3699153 C266.516413,84.676798 267.517991,82.3201644 268.075757,79.9263441 C268.996769,76.0632186 268.877212,72.0437668 268.603146,68.1088181 C266.997145,68.1088181 265.391153,68.1088181 263.785152,68.1088181 C263.838971,71.549661 263.878922,75.0294508 263.235829,78.4228246 C262.941174,79.9225724 262.376308,81.5037252 261.264109,82.5051196 C259.574522,83.867031 257.250555,83.7120426 255.208828,83.615506 C253.656242,83.4815132 252.069943,82.9611675 251.117908,81.7245022 C250.228394,80.5391764 249.712945,78.9168047 249.436029,77.3978843 C248.785201,74.1373538 248.753927,70.7926973 248.603516,67.4812135 C248.508518,63.0700205 248.515886,58.6576782 248.518835,54.245713 C255.587096,54.245713 262.655349,54.245713 269.72361,54.245713 C269.676174,48.4382506 269.514899,42.5921735 268.434503,36.8718545 C267.711768,33.2618615 266.652222,29.543532 264.345384,26.6317546 C263.034218,25.0412714 261.39273,23.7339054 259.445785,23.023827 C257.209187,22.1803127 254.783231,21.9846532 252.412447,22.0855541 Z M289.331723,22.0855541 C285.649853,22.2242884 281.904636,23.28215 278.967435,25.5653619 C277.707397,26.7095766 276.488028,27.9785884 275.805988,29.5706341 C274.421812,32.5044757 274.880889,36.0444595 276.448202,38.8003774 C277.026666,39.8104197 277.870743,40.7008733 278.855388,41.3367487 C280.425167,42.2305339 282.419915,42.3048537 284.033669,41.4649673 C285.230862,40.9158311 286.203299,39.9439635 286.866703,38.8110818 C287.88568,36.7907548 287.281643,34.2210941 285.734677,32.6611344 C284.408048,31.08387 282.672996,29.9323994 280.844211,29.0171067 C282.455474,27.8659234 284.489044,27.4786814 286.42395,27.2715992 C288.165957,27.1715783 290.03887,27.1884699 291.616349,28.0045949 C292.31516,28.4176907 292.840541,28.9801713 293.095836,29.8012533 C293.813264,32.1566746 293.481984,34.6616333 293.561474,37.0880157 C293.561474,40.3190015 293.561474,43.5499783 293.561474,46.7809641 C289.693983,48.0834359 285.817259,49.4294256 282.18001,51.2987962 C279.221251,52.8065543 276.511872,54.969064 274.807548,57.8608875 C272.801021,61.4651332 272.267215,65.6587102 272.094457,69.7250564 C271.915595,74.028272 272.042503,78.4436855 273.426419,82.5604373 C274.079811,84.4238901 275.05742,86.1775426 276.54657,87.4884378 C278.493479,89.3496006 281.345937,90.0042625 283.992508,89.8210136 C286.620219,89.6804742 289.221551,88.6417673 291.119795,86.8213654 C292.592909,85.4324327 293.809473,83.8068461 294.737961,81.9999862 C295.149189,83.8074747 295.621083,85.6924529 296.754795,87.1916349 C297.774991,88.4556537 299.259426,89.2900982 300.876739,89.5645315 C303.564202,90.0118866 306.449701,90.0309066 308.989953,88.943635 C310.95876,88.0320062 312.243439,86.1527304 312.830392,84.1003802 C313.627176,81.4438995 313.686229,78.6362199 313.729819,75.8822596 C312.33858,75.8822596 310.947332,75.8822596 309.556092,75.8822596 C309.518534,77.9949385 309.662626,80.1519164 309.214709,82.224903 C309.043422,83.1199186 307.941361,83.3104504 307.23113,82.98219 C306.611621,82.3554385 306.814246,81.3637786 306.737015,80.5578102 C306.703535,66.3208525 306.753526,52.0827902 306.711988,37.8458953 C306.660043,34.0377015 305.966449,30.0204138 303.589623,26.9404472 C302.407982,25.5279685 300.946611,24.3314984 299.235663,23.6036663 C296.145989,22.2409825 292.670149,21.9647352 289.331723,22.0855541 Z M83.1103905,27.6700843 C84.2717645,27.6346756 85.555278,27.9070166 86.0499045,29.0516803 C86.7946363,30.5408584 86.7997367,32.2766853 86.9143466,33.9108838 C87.1226184,39.0776395 86.99874,44.2495049 87.0320132,49.4188829 C84.0907962,49.4188829 81.1495791,49.4188829 78.2083621,49.4188829 C78.3165989,44.4264139 78.3293722,39.4211751 78.804135,34.4468461 C79.0549844,32.5812021 79.1839453,30.5773447 80.1925687,28.9435413 C80.7792883,27.904996 81.9570121,27.6199661 83.1103905,27.6700843 Z M253.420864,27.6700843 C254.582238,27.6346756 255.865751,27.9070166 256.360378,29.0516803 C257.298421,31.0165997 257.143412,33.2862696 257.294396,35.4139363 C257.395776,40.0809916 257.31806,44.7507409 257.342487,49.4188829 C254.401269,49.4188829 251.460052,49.4188829 248.518835,49.4188829 C248.634431,43.8225438 248.648728,38.2041764 249.345962,32.6428688 C249.640975,31.01105 249.932412,29.1196151 251.291983,28.0910288 C251.951174,27.7405246 252.68489,27.6558957 253.420864,27.6700843 Z M293.561474,73.973978 C293.551407,75.9737314 293.512989,78.1051878 292.570087,79.9072523 C292.040252,80.9682299 291.102146,81.6348713 289.939669,81.8918023 C288.886622,82.0990732 287.61027,82.0581776 286.726646,81.5509788 C286.020341,81.0347998 285.658324,80.2560592 285.436651,79.3532848 C284.915152,76.9179043 285.010113,74.3986582 284.961915,71.9197689 C285.044525,67.6490524 284.831198,63.3116315 285.780723,59.117848 C286.11048,57.6832781 286.675418,56.3099888 287.538982,55.1156649 C287.951877,54.5110405 288.669171,53.7819511 289.265222,53.3524216 C290.099286,52.6133913 291.079234,52.0316213 292.074869,51.4149186 C292.575394,51.1323851 293.065467,50.8317566 293.561474,50.5414015 C293.561474,58.3522633 293.561474,66.1631162 293.561474,73.973978 Z M252.720574,27.3894547 C251.239276,27.3672557 250.101782,28.4980451 249.695322,29.8309327 C248.717462,32.7824652 248.724266,35.9194378 248.490824,38.9513966 C248.31094,42.4899705 248.264885,46.0479055 248.210708,49.5872607 L248.210708,49.7275755 L248.350766,49.7275755 C251.404029,49.7275755 254.457293,49.7275755 257.510556,49.7275755 L257.650614,49.7275755 L257.650614,49.5872607 C257.61735,44.737576 257.733896,39.8780402 257.594591,35.0225814 C257.452973,32.9150033 257.563944,30.6181505 256.502139,28.6522881 L256.502139,28.6242252 C256.100233,27.9662945 255.475866,27.6307513 254.793432,27.4736436 C254.110998,27.3165359 253.384767,27.3415815 252.720574,27.3894547 Z M252.720574,27.6700843 C253.374172,27.6229745 254.103979,27.6084536 254.737409,27.7542732 C255.370838,27.9000929 255.922142,28.2099799 256.278046,28.792603 C257.276263,30.6616953 257.171791,32.9271893 257.314475,35.0506443 C257.452166,39.8496629 257.340147,44.6387585 257.370498,49.4469458 C254.41061,49.4469458 251.450712,49.4469458 248.490824,49.4469458 C248.544391,45.9545479 248.593763,42.4647362 248.77094,38.9794596 C249.005636,35.9313006 248.989116,32.8357175 249.947427,29.9431846 L249.975438,29.9151216 C250.351493,28.6819316 251.389634,27.6501304 252.720574,27.6700843 Z M145.128053,1.37508533 C143.446022,1.51967471 141.938138,2.47641081 140.926314,3.76043742 C140.281349,4.50810667 139.728781,5.61860987 139.60977,6.70704884 C139.234853,9.13865768 140.550618,11.4743855 142.326894,12.9931532 C143.426239,14.0493085 144.780198,14.8199041 146.164482,15.4346312 C143.999163,17.8528686 141.653199,20.0907667 139.329654,22.3661838 L139.245619,22.4784356 L139.329654,22.5626245 C140.295583,23.5948837 141.246928,24.6432263 142.214848,25.6776137 L142.298882,25.7898656 L142.410929,25.7056767 C145.226358,23.5531529 147.996485,21.2558512 150.282186,18.4934945 C152.057269,16.4542912 153.511801,13.9334915 153.811646,11.1690604 C154.094191,8.0492309 152.629557,4.87173087 150.198151,2.97467438 C149.487481,2.41075694 148.49882,1.8363417 147.509038,1.59958905 C146.735354,1.38394873 145.935629,1.29628452 145.128053,1.37508533 Z M145.128053,1.65571498 C145.894056,1.5809732 146.708041,1.6725797 147.453015,1.88021871 C148.383672,2.10283661 149.348203,2.65810616 150.030081,3.19917811 C152.382535,5.03463078 153.804493,8.12694511 153.53153,11.1409974 C153.240416,13.8249485 151.807298,16.2875837 150.058093,18.2970537 C147.820043,21.0018208 145.103197,23.2701435 142.326894,25.3969841 C141.429716,24.4360902 140.536805,23.4691257 139.637781,22.5064986 C141.979631,20.2142707 144.343182,17.9188637 146.528633,15.4626942 L146.66869,15.3223794 L146.472609,15.2381905 C145.039214,14.617734 143.637594,13.8394694 142.522975,12.7686495 C140.804587,11.2993803 139.562683,9.03892415 139.917897,6.7351118 C140.028823,5.72068722 140.545706,4.62980566 141.150407,3.92881522 C142.11994,2.69845397 143.538725,1.79232999 145.128053,1.65571498 Z M380.425417,0 C374.588734,0.436085019 368.753691,0.900197083 362.918173,1.34702236 L362.834138,1.34702236 L362.778115,1.43121126 C362.653887,1.66531476 362.683241,1.94659099 362.69408,2.24503727 C362.704702,2.54348354 362.719448,2.85520248 362.69408,3.08692624 C362.69408,4.08409996 362.69408,5.09248988 362.69408,6.08966359 L362.69408,6.22997842 L362.834138,6.22997842 C363.959944,6.31505635 365.082021,6.0484447 366.083483,6.39835621 C366.488902,6.55003991 366.737484,6.92322797 366.895819,7.38056002 C367.054154,7.83789207 367.118074,8.36350917 367.119912,8.83983424 C367.113305,33.3647381 367.143011,57.8972212 367.119912,82.4209307 C367.10116,82.7991925 366.974377,83.1632298 366.783773,83.4311975 C366.593168,83.6991651 366.346281,83.8754903 365.971436,83.9082679 L365.943425,83.9082679 C365.438409,83.9937499 364.91674,83.9546863 364.374776,83.9643938 L364.234718,83.9643938 L364.234718,84.1047086 C364.234718,85.6481718 364.234718,87.1916349 364.234718,88.735098 L364.234718,88.8754128 L364.374776,88.8754128 C370.686724,88.8754128 376.998663,88.8754128 383.310611,88.8754128 L383.450669,88.8754128 L383.450669,88.735098 C383.450669,87.1916349 383.450669,85.6481718 383.450669,84.1047086 L383.450669,83.9643938 L383.310611,83.9643938 C382.449522,83.8953903 381.585106,84.0750472 380.873603,83.7398901 C380.658169,83.4368999 380.571741,83.0795977 380.565475,82.6734974 C380.558905,82.2476048 380.60635,81.7894466 380.565475,81.354538 C380.575425,67.3640674 380.558654,53.389806 380.593487,39.400404 C380.653616,37.1027251 380.72459,34.6702901 381.854009,32.6652922 C382.202993,32.129312 382.468605,31.72851 382.974472,31.3463329 C383.529935,31.0289295 384.228029,30.6610038 384.907272,30.5886328 C385.990357,30.4140946 387.290382,30.4548645 388.156617,30.9815143 C388.765521,31.4461741 389.098326,32.1163178 389.27708,32.861733 C389.455834,33.6071482 389.495427,34.4133501 389.529184,35.1628962 C389.608881,40.506058 389.534787,45.8664347 389.557196,51.2149127 C389.549765,61.6765978 389.555152,72.1294913 389.529184,82.5893085 C389.51936,82.9390404 389.406651,83.291628 389.193045,83.5434493 C388.97944,83.7952707 388.689303,83.9393841 388.324686,83.9363308 C387.722782,83.9720898 387.096774,83.9536625 386.475921,83.9643938 L386.335863,83.9643938 L386.335863,84.1047086 C386.335863,85.6481718 386.335863,87.1916349 386.335863,88.735098 L386.335863,88.8754128 L386.475921,88.8754128 C392.937258,88.8754128 399.398605,88.8754128 405.859942,88.8754128 L406,88.8754128 L406,88.735098 C406,87.1916349 406,85.6481718 406,84.1047086 L406,83.9643938 L405.859942,83.9643938 C405.38474,83.9245758 404.869309,83.9869519 404.403339,83.9643938 C403.951093,83.9425002 403.576321,83.8520252 403.282876,83.5153864 C403.279183,83.5069271 403.286479,83.4958096 403.282876,83.4873234 C402.838527,82.4409025 403.079166,81.2031776 403.00276,80.0075156 C403.002751,79.9981673 403.002769,79.988801 403.00276,79.9794527 C402.993249,64.4479705 403.036194,48.8984922 403.00276,33.3668664 C402.872293,30.5223234 402.387419,27.4823723 400.53774,25.1724804 C399.350425,23.680231 397.572258,22.730715 395.719746,22.3100578 C392.812358,21.6901492 389.627086,21.6837104 386.896095,23.039695 C384.562142,24.1068689 382.757506,26.015887 381.209742,27.9787769 C381.049211,28.1653126 380.869139,28.4604542 380.705533,28.7084141 C380.653795,28.7868197 380.612024,28.8389585 380.565475,28.9048548 C380.565475,19.3185277 380.565475,9.72664192 380.565475,0.140314829 L380.565475,0 L380.425417,0 Z M380.285359,0.280629658 C380.285359,9.95113667 380.285359,19.6272383 380.285359,29.2977363 L380.285359,29.5222401 L380.481441,29.4099882 C380.585742,29.3629861 380.630776,29.3102996 380.705533,29.2135474 C380.780291,29.1167953 380.874661,28.9744869 380.957638,28.8487289 C381.123583,28.5972219 381.300338,28.3303408 381.433835,28.1752177 C382.970716,26.2261213 384.74147,24.3286696 387.008141,23.2922617 C389.660252,21.9754485 392.798464,21.979768 395.663723,22.5906875 C397.463887,22.9994549 399.176475,23.9116315 400.313647,25.3408582 C402.101297,27.5732873 402.565205,30.5449354 402.694632,33.3668664 C402.728085,48.9070772 402.71308,64.4662092 402.722644,80.0075156 C402.801632,81.1613211 402.490851,82.4561329 403.00276,83.6276382 L403.030771,83.6557012 C403.391874,84.0968869 403.901174,84.2207142 404.403339,84.2450235 C404.857226,84.2669979 405.317942,84.2287604 405.719884,84.2450235 C405.719884,85.6949404 405.719884,87.1448663 405.719884,88.5947832 C399.351922,88.5947832 392.983941,88.5947832 386.615979,88.5947832 C386.615979,87.1448663 386.615979,85.6949404 386.615979,84.2450235 C387.179267,84.2406681 387.748866,84.2792378 388.324686,84.2450235 C388.775973,84.2487951 389.157002,84.0184992 389.417138,83.7118271 C389.677274,83.405155 389.825695,83.0026558 389.837312,82.5893085 C389.86328,72.1286112 389.829881,61.67605 389.837312,51.2149127 C389.814921,45.8696496 389.889077,40.5113293 389.8093,35.1628962 C389.775615,34.4148857 389.745192,33.5895651 389.557196,32.8056071 C389.3692,32.021649 389.027844,31.2722197 388.352698,30.7570106 L388.324686,30.7570106 C387.365641,30.1602617 386.009001,30.1018279 384.87926,30.2799401 C384.870512,30.2813231 384.85997,30.2785303 384.851249,30.2799401 C384.096549,30.3681073 383.356326,30.8075957 382.806403,31.1218291 C382.260701,31.5340898 381.951507,31.9880453 381.601904,32.5249774 C380.427094,34.6105632 380.345515,37.1016745 380.285359,39.400404 C380.250526,53.390686 380.295309,67.3646152 380.285359,81.354538 L380.285359,81.382601 C380.322209,81.7746473 380.278404,82.2222629 380.285359,82.6734974 C380.292315,83.1247319 380.351458,83.5819831 380.64951,83.9643938 L380.677522,83.9924568 L380.705533,84.0205197 C381.502963,84.4295566 382.390908,84.2139611 383.170553,84.2450235 C383.170553,85.6949404 383.170553,87.1448663 383.170553,88.5947832 C376.95198,88.5947832 370.733407,88.5947832 364.514834,88.5947832 C364.514834,87.1448663 364.514834,85.6949404 364.514834,84.2450235 C364.987069,84.2436764 365.477482,84.2683449 365.971436,84.1888975 C365.980624,84.1880983 365.99035,84.1898584 365.999448,84.1888975 C366.441861,84.1422726 366.809373,83.9180113 367.035877,83.5995753 C367.267042,83.2745837 367.379079,82.8433838 367.400028,82.4209307 C367.423127,57.89688 367.393421,33.3645316 367.400028,8.83983424 C367.398109,8.34355528 367.350638,7.77292069 367.175935,7.26830815 C367.001232,6.76369562 366.702848,6.33559395 366.195529,6.14578952 C365.138394,5.77642701 364.001617,5.99903592 362.974196,5.94934876 C362.974196,5.00809443 362.974196,4.05625251 362.974196,3.11498921 C362.974196,3.10566781 362.974196,3.09624764 362.974196,3.08692624 C362.999913,2.81622863 362.984101,2.52321535 362.974196,2.24503727 C362.965179,1.99159052 363.006277,1.77108296 363.058231,1.62765202 C368.801459,1.18762471 374.542428,0.710150189 380.285359,0.280629658 Z M331.068994,0 C325.232311,0.436085019 319.397268,0.900197083 313.56175,1.34702236 L313.477715,1.34702236 L313.421692,1.43121126 C313.297464,1.66531476 313.326818,1.94659099 313.337657,2.24503727 C313.348279,2.54348354 313.363024,2.85520248 313.337657,3.08692624 C313.337657,4.08409996 313.337657,5.09248988 313.337657,6.08966359 L313.337657,6.22997842 L313.477715,6.22997842 C314.748984,6.30954254 316.030947,6.0665397 317.175245,6.45448214 C317.183985,6.45744559 317.194535,6.45144685 317.203257,6.45448214 C317.588293,6.77244228 317.718643,7.21604369 317.763488,7.71731561 C317.808737,8.22305066 317.761463,8.77830226 317.7915,9.2888417 C317.792038,9.29795655 317.790908,9.30782573 317.7915,9.31690466 C317.785548,33.6287365 317.812385,57.9413496 317.7915,82.2525529 L317.7915,82.2806159 C317.805232,82.6309225 317.775069,83.028339 317.651442,83.3470086 C317.527814,83.6656781 317.313187,83.8917264 316.923141,83.9363308 C316.311869,84.0220374 315.689062,83.9820847 315.046364,83.9924568 L314.906306,83.9924568 L314.906306,84.1327716 C314.906306,85.6668774 314.906306,87.2009922 314.906306,88.735098 L314.906306,88.8754128 L315.046364,88.8754128 C321.946556,88.8754128 328.846738,88.8754128 335.74693,88.8754128 L335.886988,88.8754128 L335.886988,88.735098 C335.886988,87.1916349 335.886988,85.6481718 335.886988,84.1047086 L335.886988,83.9643938 L335.74693,83.9643938 C334.516714,83.9011736 333.288364,84.0895591 332.133435,83.8521419 C331.678356,83.7181671 331.473867,83.3806482 331.34911,82.954127 C331.224353,82.5276059 331.20846,82.0147047 331.209052,81.5790417 C331.209052,54.4290517 331.209052,27.2902959 331.209052,0.140314829 L331.209052,0 L331.068994,0 Z M330.928936,0.280629658 C330.928936,27.3838331 330.928936,54.4758293 330.928936,81.5790417 C330.928345,82.017731 330.928156,82.5567914 331.068994,83.0383159 C331.209832,83.5198405 331.520819,83.9689018 332.077411,84.1327716 C333.253396,84.3745172 334.458137,84.2041997 335.606872,84.2450235 C335.606872,85.6949404 335.606872,87.1448663 335.606872,88.5947832 C328.800055,88.5947832 321.993239,88.5947832 315.186422,88.5947832 C315.186422,87.1542236 315.186422,85.713646 315.186422,84.2730864 C315.770318,84.2700242 316.37622,84.3014996 316.979164,84.2169605 C317.472473,84.1605382 317.755224,83.8415903 317.903546,83.4592604 C318.051869,83.0769306 318.086146,82.6233971 318.071616,82.2525529 C318.09251,57.931687 318.065646,33.6098423 318.071616,9.2888417 C318.040261,8.80646401 318.093057,8.24205266 318.043604,7.68925264 C317.994151,7.13645263 317.831335,6.58323952 317.343314,6.20191545 L317.315303,6.17385249 C316.112418,5.75470403 314.80801,5.99948493 313.617773,5.94934876 C313.617773,5.00809443 313.617773,4.05625251 313.617773,3.11498921 C313.617773,3.10566781 313.617773,3.09624764 313.617773,3.08692624 C313.64349,2.81622863 313.627678,2.52321535 313.617773,2.24503727 C313.608755,1.99159052 313.649854,1.77108296 313.701808,1.62765202 C319.445035,1.18762471 325.186004,0.710150189 330.928936,0.280629658 Z M178.88202,1.34702236 L178.88202,1.48733719 L178.88202,1.57152609 C178.88202,3.07756893 178.88202,4.58362075 178.88202,6.08966359 L178.88202,6.22997842 L179.022078,6.22997842 C180.349908,6.312955 181.672145,6.04336194 182.887678,6.42641918 C183.349013,6.56796429 183.65247,6.92091109 183.840072,7.38056002 C184.024339,7.83202803 184.096425,8.38832133 184.148199,8.86789721 C184.148612,8.87722758 184.147796,8.8866298 184.148199,8.89596017 C184.312513,12.6759025 184.192659,16.4671957 184.232234,20.2614613 C184.227268,40.7828621 184.249597,61.31098 184.232234,81.8316084 C184.245689,82.2635805 184.158131,82.7714798 183.952118,83.1505678 C183.746105,83.5296558 183.419405,83.7844047 182.943701,83.824079 C181.683305,84.0874308 180.353243,83.9033737 179.022078,83.9643938 L178.88202,83.9643938 L178.88202,84.1047086 C178.88202,85.6481718 178.88202,87.1916349 178.88202,88.735098 L178.88202,88.8754128 L179.022078,88.8754128 C187.481579,88.8754128 195.941079,88.8754128 204.40058,88.8754128 L204.540638,88.8754128 L204.540638,88.735098 C204.540638,87.1916349 204.540638,85.6481718 204.540638,84.1047086 L204.540638,83.9643938 L204.40058,83.9643938 C203.037495,83.890586 201.670888,84.1123148 200.394922,83.796016 C199.872051,83.6270186 199.559074,83.2216636 199.358493,82.7015604 C199.157912,82.1814571 199.057958,81.5624733 199.022354,81.0177824 C198.936858,76.3341767 199.018231,71.6484696 198.994342,66.9582365 C198.994342,60.4663341 198.994342,53.9744317 198.994342,47.4825382 C204.465934,47.4825382 209.937543,47.4825382 215.409135,47.4825382 C215.398683,58.5095506 215.418825,69.543352 215.381123,80.5687749 C215.381087,80.5781233 215.381159,80.5874896 215.381123,80.5968379 C215.344148,81.1641319 215.319211,81.8085204 215.15703,82.3648048 C214.996186,82.9164912 214.693454,83.3905533 214.204636,83.6837642 C213.09138,84.1664921 211.801717,83.8817315 210.535118,83.9643938 C210.516214,83.9656241 210.49799,83.9629839 210.479095,83.9643938 C210.292166,83.9207413 210.114496,83.9275662 210.002898,84.0205197 C209.878338,84.1242764 209.841865,84.2661897 209.834828,84.4134013 C209.820764,84.7078244 209.896194,85.0521233 209.86284,85.2272273 L209.86284,85.2552902 C209.86284,86.4114755 209.86284,87.5789038 209.86284,88.735098 L209.86284,88.8754128 L210.002898,88.8754128 C218.425046,88.8754128 226.847204,88.8754128 235.269353,88.8754128 L235.409411,88.8754128 L235.409411,88.735098 C235.409411,87.1916349 235.409411,85.6481718 235.409411,84.1047086 L235.409411,83.9643938 L235.269353,83.9643938 C233.949447,83.8743678 232.619367,84.1771605 231.431765,83.7398901 C230.876185,83.4763766 230.588316,83.0006532 230.423348,82.4209307 C230.258379,81.8412082 230.245794,81.1536431 230.227266,80.5687749 C230.12811,76.153532 230.198278,71.7461107 230.171243,67.3230551 C230.178405,48.3581027 230.146235,29.3755853 230.171243,10.4113603 C230.171252,10.402012 230.171234,10.3926457 230.171243,10.3832974 C230.205933,9.72802487 230.206766,8.97877511 230.311301,8.30663789 C230.417243,7.62545766 230.633932,7.02820591 231.123637,6.62285994 C232.212423,5.96503708 233.59244,6.32375811 234.905202,6.22997842 C234.914515,6.22931389 234.923909,6.23068785 234.933214,6.22997842 C235.02087,6.24133831 235.084163,6.25485343 235.157306,6.22997842 C235.239593,6.20199627 235.311097,6.12897868 235.353388,6.06160062 C235.437969,5.92685349 235.44454,5.77098504 235.437422,5.61259317 C235.430305,5.4542013 235.422561,5.28485365 235.409411,5.13552275 C235.396261,4.98619185 235.38762,4.8689111 235.409411,4.79876716 L235.409411,4.77070419 L235.409411,4.74264123 C235.409411,3.65565704 235.409411,2.57431239 235.409411,1.48733719 L235.409411,1.34702236 L235.269353,1.34702236 C226.847204,1.34702236 218.425046,1.34702236 210.002898,1.34702236 L209.86284,1.34702236 L209.86284,1.48733719 C209.86284,3.021443 209.86284,4.55555778 209.86284,6.08966359 L209.86284,6.22997842 L210.002898,6.22997842 C211.349363,6.30553739 212.696448,6.0795699 213.952532,6.39835621 C214.478137,6.54722912 214.801458,6.92367697 215.016973,7.43668595 C215.232487,7.94969493 215.317517,8.58000261 215.353112,9.1204639 C215.463634,12.3821528 215.378443,15.6404742 215.409135,18.914439 C215.409135,26.5438569 215.409135,34.1844281 215.409135,41.8138191 C209.937543,41.8138191 204.465934,41.8138191 198.994342,41.8138191 C199.004337,31.0861241 198.986293,20.3517657 199.022354,9.62559729 C199.02239,9.61624895 199.022318,9.60688265 199.022354,9.59753432 C199.083917,8.52479265 199.140218,7.25554736 199.918725,6.62285994 C201.008676,5.96636614 202.386318,6.31831614 203.70029,6.22997842 C203.7188,6.22873018 203.737839,6.23139728 203.756313,6.22997842 C203.940212,6.27942312 204.10276,6.30320255 204.23251,6.25804138 C204.377471,6.20759091 204.46813,6.07869883 204.512626,5.94934876 C204.601618,5.69064863 204.555804,5.39164558 204.540638,5.10745978 C204.540638,3.90075225 204.540638,2.69404472 204.540638,1.48733719 L204.540638,1.34702236 L204.40058,1.34702236 C195.941079,1.34702236 187.481579,1.34702236 179.022078,1.34702236 L178.88202,1.34702236 Z M179.162136,1.62765202 C187.528262,1.62765202 195.894396,1.62765202 204.260522,1.62765202 C204.260522,2.78759093 204.260522,3.94752087 204.260522,5.10745978 C204.276271,5.40241278 204.283756,5.71618817 204.23251,5.86515986 C204.206883,5.93964122 204.17854,5.95719741 204.120464,5.97741173 C204.062388,5.99762604 203.96618,6.00569021 203.784325,5.94934876 L203.756313,5.94934876 L203.728301,5.94934876 C202.469806,6.04615477 200.984089,5.65543746 199.750655,6.39835621 C198.831499,7.14534297 198.775942,8.52348155 198.714227,9.59753432 C198.677861,20.3810051 198.724633,31.1710673 198.714227,41.9541339 L198.714227,42.0944488 L198.854285,42.0944488 C204.419251,42.0944488 209.984226,42.0944488 215.549193,42.0944488 L215.689251,42.0944488 L215.689251,41.9541339 C215.689251,34.2779744 215.689251,26.5905986 215.689251,18.914439 C215.658631,15.6477122 215.744153,12.3940785 215.633228,9.1204639 L215.633228,9.09240093 C215.596503,8.5349043 215.505127,7.88633099 215.269077,7.32443409 C215.033027,6.76253718 214.661992,6.29486898 214.036567,6.11772655 L214.008555,6.11772655 C212.720425,5.79081321 211.403343,5.99937717 210.142956,5.94934876 C210.142956,4.50878917 210.142956,3.06821161 210.142956,1.62765202 C218.471729,1.62765202 226.800521,1.62765202 235.129295,1.62765202 C235.129295,2.65840251 235.129295,3.68381879 235.129295,4.71457826 C235.129295,4.72394456 235.129295,4.73327493 235.129295,4.74264123 C235.093099,4.88021711 235.088035,5.01307842 235.101283,5.16358572 C235.11541,5.32407894 235.15113,5.50322393 235.157306,5.64065614 C235.163482,5.77808834 235.153578,5.88259931 235.129295,5.92128579 C235.117158,5.94062903 235.096246,5.94153603 235.073272,5.94934876 C235.050298,5.95716149 235.002091,5.96099601 234.933214,5.94934876 L234.905202,5.94934876 C233.655742,6.0447808 232.180055,5.65854459 230.955568,6.39835621 C230.391015,6.86566521 230.142515,7.56271336 230.031185,8.27857492 C229.919856,8.99443649 229.926686,9.73766955 229.891127,10.3832974 C229.866056,29.3573376 229.898289,48.3490418 229.891127,67.3230551 C229.918126,71.7413692 229.819803,76.1737283 229.919139,80.5968379 C229.937712,81.1832865 229.964881,81.8502961 230.143232,82.4770566 C230.321583,83.1038171 230.675694,83.686988 231.319719,83.9924568 C232.563335,84.4503456 233.904655,84.1879187 235.129295,84.2450235 C235.129295,85.6949404 235.129295,87.1448663 235.129295,88.5947832 C226.800521,88.5947832 218.471729,88.5947832 210.142956,88.5947832 C210.142956,87.4945353 210.142956,86.3835921 210.142956,85.2833532 C210.144766,85.2738522 210.141441,85.264917 210.142956,85.2552902 C210.187057,84.9758729 210.104376,84.6625555 210.114944,84.4414642 C210.120412,84.327111 210.174158,84.2656958 210.198979,84.2450235 C210.223799,84.2243512 210.279222,84.1942587 210.451083,84.2450235 L210.479095,84.2450235 L210.507106,84.2450235 C211.727471,84.1540635 213.074349,84.503086 214.316683,83.9643938 L214.344694,83.9363308 C214.935672,83.5996112 215.232012,83.0565277 215.409135,82.4489937 C215.586258,81.8414596 215.651908,81.1709837 215.689251,80.5968379 C215.727266,69.5140857 215.678378,58.4245984 215.689251,47.3422234 L215.689251,47.2019086 L215.549193,47.2019086 C209.984226,47.2019086 204.419251,47.2019086 198.854285,47.2019086 L198.714227,47.2019086 L198.714227,47.3422234 C198.714227,53.8808944 198.714227,60.4195655 198.714227,66.9582365 C198.738097,71.6445542 198.656626,76.3277379 198.742238,81.0177824 L198.742238,81.0458454 C198.778622,81.6024081 198.85917,82.2454227 199.078377,82.8138122 C199.297585,83.3822018 199.662004,83.8759842 200.282876,84.0766457 L200.310887,84.0766457 C201.625729,84.4108599 202.9731,84.195489 204.260522,84.2450235 C204.260522,85.6949404 204.260522,87.1448663 204.260522,88.5947832 C195.894396,88.5947832 187.528262,88.5947832 179.162136,88.5947832 C179.162136,87.1448663 179.162136,85.6949404 179.162136,84.2450235 C180.404685,84.2048373 181.701277,84.3637141 182.971712,84.1047086 C182.986825,84.1034514 182.984844,84.078316 182.999724,84.0766457 C183.550902,84.0147994 183.971686,83.7187778 184.204222,83.2908826 C184.443034,82.851439 184.527158,82.3071522 184.51235,81.8316084 C184.529713,61.3106746 184.507384,40.7826735 184.51235,20.2614613 C184.472766,16.4662079 184.595121,12.6718614 184.428315,8.86789721 C184.375815,8.37348612 184.298843,7.77467182 184.092176,7.26830815 C183.885509,6.76194449 183.532025,6.31770549 182.971712,6.14578952 C181.711021,5.74850773 180.398536,6.00269084 179.162136,5.94934876 C179.162136,4.50878917 179.162136,3.06821161 179.162136,1.62765202 Z M0,1.40314829 L0,1.57152609 L0,6.00547469 L0,6.14578952 L0.168069546,6.14578952 L1.93279978,6.14578952 C2.98622384,6.14578952 3.83109824,6.7628874 4.42583138,7.91375637 C5.02056451,9.06462533 5.35021388,10.7553 5.35021388,12.7967124 L5.35021388,77.3134709 C5.35022285,79.3014963 5.02176565,81.0018247 4.42583138,82.196427 C3.82989711,83.3910293 2.98145515,84.0485827 1.93279978,84.0485827 L0.168069546,84.0485827 L0,84.0485827 L0,84.1888975 L0,88.6509091 L0,88.7912239 L0.168069546,88.7912239 L17.4792328,88.7912239 L17.6192907,88.7912239 L17.6192907,88.6509091 L17.6192907,84.1888975 L17.6192907,84.0485827 L17.4792328,84.0485827 L14.8181316,84.0485827 C13.6526971,84.0485827 12.8090417,83.3892781 12.2410653,82.196427 C11.6730888,81.0035758 11.4007175,79.3041455 11.4007175,77.3134709 L11.4007175,22.9555061 L25.0983855,88.5667202 L25.1263971,88.6789721 L25.2384435,88.6789721 L31.9052022,88.6789721 L32.0172485,88.6789721 L32.0452601,88.5667202 L45.7429281,22.8713172 L45.7429281,78.4079266 C45.7429281,80.4039443 45.579932,81.8501794 45.1546847,82.7576863 C44.7294374,83.6651932 44.0982936,84.0485827 43.0258038,84.0485827 L39.9165172,84.0485827 L39.7484476,84.0485827 L39.7484476,84.1888975 L39.7484476,88.6509091 L39.7484476,88.7912239 L39.9165172,88.7912239 L64.8748448,88.7912239 L65.0149027,88.7912239 L65.0149027,88.6509091 L65.0149027,84.1888975 L65.0149027,84.0485827 L64.8748448,84.0485827 L62.9980682,84.0485827 C61.9255873,84.0485827 61.2672835,83.6652022 60.8411757,82.7576863 C60.4150678,81.8501704 60.2529322,80.4038994 60.2529322,78.4079266 L60.2529322,11.7864457 C60.2529233,9.79227783 60.4150947,8.37134884 60.8411757,7.46474892 C61.2672566,6.55814899 61.9255424,6.14578952 62.9980682,6.14578952 L64.8748448,6.14578952 L65.0149027,6.14578952 L65.0149027,6.00547469 L65.0149027,1.57152609 L65.0149027,1.40314829 L64.8748448,1.40314829 L44.0062095,1.40314829 L43.8941631,1.40314829 L43.8661515,1.54346312 L33.1377122,55.7891761 L21.7369946,1.51540016 L21.708983,1.40314829 L21.5969367,1.40314829 L0.168069546,1.40314829 L0,1.40314829 Z M0.308127501,1.71184092 L21.4848903,1.71184092 L32.9976542,56.5468762 L33.2777701,56.5188132 L33.2777701,56.4626873 L44.1182558,1.71184092 L64.7347868,1.71184092 L64.7347868,5.86515986 L62.9980682,5.86515986 C61.8493868,5.86515986 61.051294,6.34093714 60.5890713,7.32443409 C60.1268487,8.30793103 59.9728074,9.77636501 59.9728163,11.7864457 L59.9728163,78.4079266 C59.9728163,80.4197943 60.1268756,81.8855611 60.5890713,82.8699381 C61.0512671,83.8543151 61.8493509,84.3572753 62.9980682,84.3572753 L64.7347868,84.3572753 L64.7347868,88.5105943 L40.0565751,88.5105943 L40.0565751,84.3572753 L43.0258038,84.3572753 C44.174521,84.3572753 44.9455255,83.8543241 45.406789,82.8699381 C45.8680525,81.8855522 46.0510556,80.4197584 46.0510556,78.4079266 L46.0510556,21.38398 L46.0510556,21.355917 L45.9109977,21.355917 L45.7709397,21.327854 L45.7709397,21.355917 L45.7429281,21.355917 L45.7429281,21.4681689 L31.7931558,88.3983424 L25.3504899,88.3983424 L11.4007175,21.5804207 L11.4007175,21.5523578 L11.2606596,21.5804207 L11.1206016,21.5804207 L11.1206016,21.6084837 L11.1206016,77.3134709 C11.1206016,79.3306369 11.391216,81.0533168 11.9889609,82.3086788 C12.5867059,83.5640408 13.540077,84.3572753 14.8181316,84.3572753 L17.3391748,84.3572753 L17.3391748,88.5105943 L0.308127501,88.5105943 L0.308127501,84.3572753 L1.93279978,84.3572753 C3.10535153,84.3572753 4.0525646,83.5622987 4.6779357,82.3086788 C5.30330679,81.055059 5.63033876,79.333295 5.63032979,77.3134709 L5.63032979,12.7967124 C5.63032979,10.7243185 5.30450793,9.01398627 4.6779357,7.80150451 C4.05136347,6.58902274 3.10058284,5.86515986 1.93279978,5.86515986 L0.308127501,5.86515986 L0.308127501,1.71184092 Z M347.735891,5.78097096 L347.679868,5.86515986 L347.651856,5.92128579 C346.168703,10.2909814 344.741859,14.7377357 342.525735,18.7741242 C341.80326,19.9754705 341.018487,21.1635622 339.948668,21.9452393 C338.664196,23.0002452 336.907927,23.0692756 335.270733,23.011632 C335.2615,23.0113087 335.251945,23.0119643 335.242721,23.011632 C335.041307,22.9661565 334.873273,22.9828147 334.766524,23.0958209 C334.65368,23.2152838 334.626977,23.3901453 334.626454,23.5448283 C334.625955,23.6995114 334.641812,23.8434542 334.654478,23.9938358 C334.667143,24.1442174 334.674404,24.2786951 334.654478,24.3586544 L334.654478,24.3867173 L334.654478,24.4147803 C334.654478,25.6532955 334.654478,26.8805766 334.654478,28.1190918 L334.654478,28.2594066 L334.794536,28.2594066 C336.232467,28.2594066 337.670389,28.2594066 339.108321,28.2594066 C339.117446,44.6852397 339.075693,61.1119439 339.108321,77.5379746 C339.241548,80.4482793 339.366744,83.5582307 340.873051,86.1813681 L340.901063,86.1813681 C341.91078,87.6879318 343.426892,88.8553602 345.214848,89.2963573 C347.946753,90.0907413 350.822159,90.0818779 353.618325,89.8576166 L353.646336,89.8576166 C356.095795,89.5489959 358.589571,88.6004676 360.173037,86.6023126 C361.590262,84.9113865 362.258274,82.6934064 362.554022,80.540712 C362.910948,77.4268992 362.689419,74.2961408 362.750103,71.1957444 C362.750103,70.0208535 362.750103,68.8347105 362.750103,67.6598107 L362.750103,67.5194958 L362.610046,67.5194958 C360.966702,67.5194958 359.323349,67.5194958 357.680006,67.5194958 L357.539948,67.5194958 L357.539948,67.6598107 C357.511282,71.7177874 357.59883,75.7636498 357.483924,79.8110749 C357.42506,80.4202523 357.37497,81.0898301 357.203808,81.6912936 C357.036411,82.2795293 356.741989,82.8018147 356.223403,83.1225048 C355.702056,83.3975129 355.007978,83.5017904 354.402649,83.3750715 C353.797321,83.2483526 353.2863,82.9159883 353.030081,82.3367418 C352.303689,80.4814071 352.600451,78.4044333 352.525873,76.387393 C352.525873,60.3821452 352.525873,44.3768704 352.525873,28.3716585 C355.812569,28.3716585 359.099256,28.3716585 362.385953,28.3716585 L362.526011,28.3716585 L362.526011,28.2313436 C362.526011,26.5382084 362.526011,24.8450821 362.526011,23.1519468 L362.526011,23.011632 L362.385953,23.011632 C359.136608,23.011632 355.887264,23.011632 352.637919,23.011632 C352.637919,17.3148499 352.637919,11.6180679 352.637919,5.92128579 L352.637919,5.78097096 L352.497861,5.78097096 C350.938552,5.78097096 349.379234,5.78097096 347.819925,5.78097096 L347.735891,5.78097096 Z M347.931972,6.06160062 C349.407246,6.06160062 350.882529,6.06160062 352.357803,6.06160062 C352.357803,11.7583827 352.357803,17.4551648 352.357803,23.1519468 L352.357803,23.2922617 L352.497861,23.2922617 C355.747206,23.2922617 358.99655,23.2922617 362.245895,23.2922617 C362.245895,24.8918507 362.245895,26.4914398 362.245895,28.0910288 C358.959199,28.0910288 355.672511,28.0910288 352.385815,28.0910288 L352.245757,28.0910288 L352.245757,28.2313436 C352.245757,44.2833601 352.245757,60.3353766 352.245757,76.387393 C352.318955,78.3669681 351.987378,80.5012352 352.749966,82.4489937 C353.048394,83.1236812 353.673102,83.5147128 354.346626,83.6557012 C355.02015,83.7966895 355.748039,83.7129856 356.335449,83.4031345 L356.335449,83.3750715 L356.363461,83.3750715 C356.983364,83.0093999 357.301145,82.4177966 357.483924,81.7754825 C357.666703,81.1331683 357.705776,80.442083 357.76404,79.8391378 C357.877888,75.8287649 357.794427,71.8059904 357.820063,67.8001255 C359.370032,67.8001255 360.920019,67.8001255 362.469988,67.8001255 C362.469988,68.9284004 362.469988,70.0674784 362.469988,71.1957444 C362.408963,74.3134186 362.626817,77.4057779 362.273906,80.484586 C361.982514,82.6055446 361.314843,84.8042443 359.948944,86.4339348 C358.435261,88.3440305 356.011151,89.2709076 353.618325,89.576987 C353.609415,89.5781275 353.599223,89.5758645 353.590313,89.576987 C350.818878,89.7976921 347.970157,89.7924746 345.298882,89.0157277 L345.270871,89.0157277 C343.557816,88.5932117 342.097771,87.4922633 341.125155,86.0410533 C339.664313,83.4971028 339.549721,80.4490965 339.416448,77.5379746 C339.383731,61.0658758 339.397804,44.5921246 339.388437,28.1190918 L339.388437,27.9787769 L339.248379,27.9787769 C337.810447,27.9787769 336.372525,27.9787769 334.934594,27.9787769 C334.934594,26.7965583 334.934594,25.6250619 334.934594,24.4428433 C334.934594,24.433459 334.934594,24.4241645 334.934594,24.4147803 C334.963833,24.2760819 334.947134,24.1146278 334.934594,23.9657728 C334.921265,23.8076144 334.906161,23.6717089 334.906573,23.5448283 C334.907003,23.4179478 334.938349,23.3179449 334.962605,23.2922617 C334.986861,23.2665784 335.04837,23.2484655 335.21471,23.2922617 L335.242721,23.2922617 C336.901599,23.3520964 338.731155,23.3077973 340.116738,22.169743 C341.245789,21.3447816 342.024466,20.1205808 342.749828,18.914439 L342.749828,18.886376 C344.978896,14.8264147 346.452512,10.4210948 347.931972,6.06160062 Z M127.28467,21.9452393 C124.363755,22.1464395 121.527136,23.4473129 119.469436,25.509236 C118.376473,26.5586741 117.411009,27.7067144 116.584242,28.9890437 C116.584242,26.7907751 116.584242,24.5925154 116.584242,22.3942467 L116.584242,22.2539319 L116.444184,22.2539319 C110.644637,22.6425119 104.847188,23.0721582 99.0489858,23.4606394 L98.9089278,23.4606394 L98.9089278,23.6009543 C98.9089278,25.1444174 98.9089278,26.6878805 98.9089278,28.2313436 L98.9089278,28.3716585 L99.0489858,28.3716585 C100.183585,28.4540962 101.313434,28.1930882 102.326342,28.5400363 C102.740734,28.7076597 102.986358,29.0657073 103.138678,29.5222401 C103.290998,29.9787729 103.331192,30.5170161 103.334759,30.9815143 C103.374029,44.1509209 103.351548,57.3230215 103.362771,70.4941702 C103.338676,74.4696822 103.421501,78.453438 103.334759,82.4209307 C103.315254,82.7977647 103.188884,83.162233 102.99862,83.4311975 C102.808356,83.7001619 102.561487,83.8777084 102.186284,83.9082679 L102.158272,83.9082679 C101.175115,84.0245159 100.180116,83.9356484 99.1610322,83.9643938 L99.0209742,83.9643938 L99.0209742,84.1047086 C99.0209742,85.6481718 99.0209742,87.1916349 99.0209742,88.735098 L99.0209742,88.8754128 L99.1610322,88.8754128 C105.958509,88.8754128 112.755994,88.8754128 119.55347,88.8754128 L119.693528,88.8754128 L119.693528,88.735098 C119.693528,87.1916349 119.693528,85.6481718 119.693528,84.1047086 L119.693528,83.9643938 L119.55347,83.9643938 C118.683229,83.8944474 117.808783,84.0773282 117.08845,83.7398901 C116.860987,83.373042 116.785387,82.9437999 116.780323,82.4770566 C116.775151,81.9998695 116.817092,81.5006181 116.780323,81.0177824 C116.779615,81.0084969 116.781094,80.9989869 116.780323,80.9897194 C116.79021,67.1283565 116.773528,53.2607164 116.808334,39.400404 C116.889788,37.1033178 116.923411,34.6589213 118.068856,32.6652922 C118.341299,32.1929364 118.77421,31.6519453 119.18932,31.3743958 C120.556751,30.4175789 122.411128,30.2394397 123.979302,30.7850735 C124.486549,30.9755964 124.858991,31.3927602 125.127777,31.9075922 C125.396563,32.4224241 125.566138,33.0269408 125.631986,33.5913701 C125.902026,36.2391312 125.717616,38.9337057 125.772044,41.6173784 C125.764622,55.2819054 125.769991,68.9264697 125.744032,82.5893085 L125.772044,82.5893085 C125.745843,82.9720604 125.606887,83.3047929 125.407893,83.5434493 C125.208899,83.7821058 124.950313,83.9190261 124.567545,83.9363308 C123.956211,83.9722694 123.320899,83.9535817 122.690769,83.9643938 L122.550711,83.9643938 L122.550711,84.1047086 C122.550711,85.6481718 122.550711,87.1916349 122.550711,88.735098 L122.550711,88.8754128 L122.690769,88.8754128 C129.152106,88.8754128 135.613452,88.8754128 142.07479,88.8754128 L142.214848,88.8754128 L142.214848,88.735098 C142.214848,87.1916349 142.214848,85.6481718 142.214848,84.1047086 L142.214848,83.9643938 L142.07479,83.9643938 C141.600107,83.9259947 141.085519,83.9879308 140.618187,83.9643938 C140.164614,83.9415483 139.786256,83.8489181 139.497723,83.5153864 C139.49403,83.5069271 139.501327,83.4958096 139.497723,83.4873234 C139.053374,82.4409025 139.294014,81.2031776 139.217607,80.0075156 C139.217007,79.9981673 139.218244,79.988792 139.217607,79.9794527 C139.208097,64.4479705 139.251042,48.8984922 139.217607,33.3668664 C139.082981,30.6561366 138.673331,27.7478345 137.004692,25.481173 C135.384501,23.1674555 132.50456,22.1288384 129.777701,21.9733023 C128.940921,21.8837163 128.119334,21.8967465 127.28467,21.9452393 Z M127.28467,22.225869 C128.10847,22.1780048 128.933302,22.1665281 129.74969,22.2539319 L129.777701,22.2819949 C132.443212,22.4340288 135.228963,23.4337349 136.780599,25.6495508 L136.780599,25.6776137 C138.392803,27.8676207 138.775741,30.6739981 138.90948,33.3668664 C138.942932,48.9070772 138.927927,64.4662092 138.937491,80.0075156 C139.01648,81.1613211 138.705699,82.4561329 139.217607,83.6276382 L139.245619,83.6557012 C139.601953,84.0948754 140.114857,84.2196725 140.618187,84.2450235 C141.073122,84.2679408 141.531929,84.2294339 141.934732,84.2450235 C141.934732,85.6949404 141.934732,87.1448663 141.934732,88.5947832 C135.566769,88.5947832 129.198789,88.5947832 122.830827,88.5947832 C122.830827,87.1448663 122.830827,85.6949404 122.830827,84.2450235 C123.403446,84.2405514 123.982475,84.2794174 124.567545,84.2450235 C125.021145,84.2245128 125.38491,84.0081451 125.631986,83.7118271 C125.879061,83.4155091 126.022741,83.0471255 126.05216,82.6173715 L126.05216,82.5893085 C126.078118,68.9257872 126.044738,55.2534294 126.05216,41.5893154 C125.998072,38.922723 126.18545,36.2435045 125.912102,33.5633072 C125.843,32.9709945 125.670574,32.3240735 125.379881,31.7672773 C125.089188,31.2104812 124.681832,30.7262356 124.091348,30.5044439 C122.437983,29.9291576 120.473801,30.1335188 119.02125,31.1498921 C118.53825,31.4728272 118.131754,32.0274053 117.844763,32.5249774 C116.651416,34.6019961 116.581544,37.1064968 116.500207,39.400404 C116.465374,53.2709627 116.510157,67.1476189 116.500207,81.0177824 C116.537998,81.470346 116.494685,81.967981 116.500207,82.4770566 C116.505729,82.9861323 116.566117,83.5190143 116.864358,83.9643938 L116.892369,83.9924568 L116.920381,84.0205197 C117.727294,84.4321967 118.624382,84.2128566 119.413412,84.2450235 C119.413412,85.6949404 119.413412,87.1448663 119.413412,88.5947832 C112.709311,88.5947832 106.005192,88.5947832 99.3010901,88.5947832 C99.3010901,87.1448663 99.3010901,85.6949404 99.3010901,84.2450235 C100.253879,84.228033 101.238829,84.3042386 102.214296,84.1888975 C102.671481,84.1516569 103.020088,83.9256085 103.250724,83.5995753 C103.481361,83.273542 103.593102,82.8414711 103.614875,82.4209307 C103.701778,78.445733 103.618828,74.4650035 103.642887,70.4941702 C103.631664,57.3236681 103.682157,44.1519805 103.642887,30.9815143 C103.639194,30.5003938 103.586846,29.9417298 103.418794,29.4380512 C103.250742,28.9343726 102.950225,28.4945069 102.438388,28.2874696 C101.371501,27.9220314 100.227212,28.1396294 99.1890437,28.0910288 C99.1890437,26.6411119 99.1890437,25.191186 99.1890437,23.7412691 C104.89561,23.3582837 110.598859,22.9174662 116.304126,22.5345616 C116.304126,24.8170191 116.304126,27.0994677 116.304126,29.3819252 L116.304126,29.8870586 L116.55623,29.4661141 C117.398953,28.0685335 118.48574,26.8665406 119.665517,25.7337397 C121.673719,23.721423 124.436272,22.4220762 127.28467,22.225869 Z M289.359735,21.9452393 C285.641884,22.0735297 281.862202,23.150061 278.8834,25.45311 C277.503392,26.6981359 276.140837,28.1223067 275.493998,29.9431846 L275.522009,29.9431846 C274.208691,33.1299701 274.908488,36.8897879 276.838554,39.6529707 C277.710346,40.7780757 278.878246,41.7594982 280.340003,42.0663858 C282.40811,42.5687084 284.624001,41.7027347 286.026356,40.1861671 C287.549989,38.7263002 287.958815,36.2917638 287.034773,34.3771332 C286.261707,32.6192241 284.757095,31.3445997 283.253208,30.2799401 L283.253208,30.2518772 C282.594044,29.7925964 281.892374,29.3878252 281.18035,29.0171067 C282.547361,28.0809172 284.262925,27.7282757 285.914309,27.4455806 C285.923452,27.444925 285.933169,27.4462361 285.942321,27.4455806 C287.836102,27.3105012 289.857597,27.2552194 291.544639,28.1190918 C292.221525,28.5192382 292.728987,29.0453942 292.97323,29.8309327 C293.678818,32.1474699 293.341397,34.6565864 293.421416,37.0992408 C293.421416,40.2927794 293.421416,43.4752904 293.421416,46.6687122 C289.221551,48.1202276 284.970395,49.5606704 281.068304,51.748109 C278.259893,53.3677507 275.73851,55.6300838 274.261488,58.5674097 C272.645582,61.8997724 272.152156,65.614887 271.964537,69.2593997 C271.765856,73.6852841 271.852285,78.2656182 273.25307,82.5331826 C273.953396,84.5054119 275.017818,86.3801168 276.642473,87.7528942 C278.619679,89.527677 281.411776,90.1477742 284.009521,89.9698685 C287.010831,89.8176909 289.944267,88.4642837 291.936801,86.2094311 C293.02098,85.0532279 293.927283,83.7414257 294.681937,82.3367418 C295.195199,84.4811565 295.776182,86.817459 297.623154,88.2580276 C299.378867,89.7539498 301.83149,89.9430089 304.009797,89.9979315 C306.502641,89.9861765 309.334796,89.5422428 311.09673,87.5564534 C312.546,86.0720707 313.106913,83.9637562 313.477715,81.9999862 C313.79763,79.9736245 313.85947,77.9208702 313.869877,75.8822596 L313.869877,75.7419448 L313.729819,75.7419448 C312.33858,75.7419448 310.947332,75.7419448 309.556092,75.7419448 L309.416034,75.7419448 L309.416034,75.8822596 C309.388668,77.9362622 309.489788,79.9976734 309.135918,81.9999862 C309.043494,82.6114356 308.524011,83.0627689 307.903408,82.98219 L307.875397,82.98219 C307.569385,83.0315359 307.364349,82.9060653 307.203119,82.7015604 C307.041888,82.4970554 306.937649,82.1989504 306.951014,81.9157973 C306.774761,78.882734 306.909512,75.8198746 306.866979,72.7672704 C306.854269,61.0655794 306.883643,49.3629006 306.838968,37.6605002 C306.771211,33.8941807 306.06851,29.9228804 303.70167,26.8562583 C302.508286,25.4297437 301.039726,24.1990771 299.30385,23.4606394 C296.193299,22.084719 292.700716,21.826863 289.359735,21.9452393 Z M289.359735,22.225869 C292.678127,22.1083008 296.140808,22.3916964 299.191804,23.7412691 C300.877823,24.4584957 302.307678,25.6261934 303.477577,27.0246361 C305.788125,30.0183215 306.491678,33.9268685 306.558852,37.6605002 C306.603527,49.3615536 306.574153,61.0647443 306.586864,72.7672704 C306.629235,75.8087212 306.493515,78.8631752 306.670898,81.9157973 C306.654414,82.2652329 306.7387,82.6287044 306.951014,82.8980011 C307.15069,83.1512683 307.503376,83.269887 307.875397,83.2347567 C307.898953,83.2325296 307.907406,83.2666901 307.93142,83.2628197 C307.934172,83.2630621 307.928668,83.2345322 307.93142,83.2347567 C308.676152,83.2947172 309.306309,82.7819866 309.416034,82.0561121 C309.769222,80.0576249 309.675202,78.0195172 309.69615,76.0225745 C310.994015,76.0225745 312.291897,76.0225745 313.589761,76.0225745 C313.577105,78.009199 313.506497,79.9873013 313.197599,81.9438603 C312.829791,83.8918073 312.280576,85.946654 310.900649,87.3600127 L310.872637,87.3600127 C309.198046,89.2473616 306.469573,89.7056995 304.009797,89.7173018 C301.843376,89.6626845 299.483563,89.4515792 297.819236,88.0335239 C295.984346,86.6023755 295.409916,84.1978058 294.878018,81.9719232 L294.793984,81.5790417 L294.597903,81.9438603 C293.829318,83.4432219 292.857437,84.8202918 291.712709,86.0410533 C289.77557,88.2332244 286.907686,89.5408688 283.98151,89.6892388 C281.442566,89.8631215 278.711951,89.2351396 276.810542,87.5283905 C275.238344,86.1999391 274.22263,84.3625377 273.533186,82.4209307 C272.150238,78.2076962 272.046537,73.7009006 272.244653,69.2874627 C272.431448,65.6589706 272.952356,61.9570658 274.541603,58.6796616 C275.986786,55.8056457 278.436102,53.5994655 281.208362,52.0006757 C285.10477,49.8164251 289.388661,48.3834986 293.617497,46.9212789 L293.701532,46.8932159 L293.701532,46.7809641 C293.701532,43.5499783 293.701532,40.3302356 293.701532,37.0992408 L293.701532,37.0711779 C293.62257,34.6610675 293.954604,32.1410491 293.225335,29.7467438 C292.958987,28.8901184 292.405397,28.3206333 291.684697,27.8945881 L291.684697,27.8665251 C289.903922,26.9546538 287.825336,27.0276714 285.914309,27.1649509 L285.886298,27.1649509 C284.141942,27.4633703 282.264072,27.7934267 280.788188,28.9048548 L280.592107,29.0451697 L280.8162,29.1574215 C281.607812,29.554407 282.358531,29.99817 283.085139,30.5044439 C284.573554,31.5581476 286.04431,32.8103845 286.782669,34.489385 C287.65006,36.2866272 287.256885,38.6228309 285.830275,39.9897263 L285.802263,39.9897263 C284.465666,41.4351891 282.345427,42.2592435 280.396026,41.7857561 C279.023315,41.4975652 277.907387,40.574783 277.062647,39.4845929 C275.183781,36.794706 274.505014,33.1349181 275.774113,30.0554364 C276.394904,28.3078725 277.68385,26.9114503 279.05147,25.6776137 C281.97181,23.4197708 285.69036,22.3524891 289.359735,22.225869 Z M252.412447,21.9452393 C248.601042,22.1809502 244.958871,24.0403171 242.44032,26.8843213 C239.948284,29.4505695 238.31298,32.7087562 237.090106,36.0328481 C234.74546,42.6013512 234.134296,49.629647 234.092866,56.5468762 C234.179178,62.9976585 234.538219,69.5622014 236.389816,75.7980708 C237.285927,78.7145627 238.500313,81.5566273 240.367462,83.9924568 C241.834078,85.7988138 243.633193,87.4024259 245.773699,88.3983424 C249.133683,90.0159456 252.978747,90.2140118 256.614185,89.8295537 C259.584283,89.5086121 262.737483,88.6417943 264.877605,86.4058718 C265.643607,85.6548889 266.224984,84.9298496 266.754381,83.9643938 C268.487837,80.777294 268.853036,77.0699203 268.939285,73.5249705 C268.948007,71.7137732 268.881792,69.9140885 268.743204,68.1088181 L268.743204,67.9685033 L268.603146,67.9685033 C266.997145,67.9685033 265.391153,67.9685033 263.785152,67.9685033 L263.645095,67.9685033 L263.645095,68.1088181 C263.698904,71.5492569 263.724414,75.0332494 263.084863,78.4079266 C262.793237,79.8923452 262.254527,81.4254632 261.180075,82.3928677 C259.544502,83.7112434 257.25743,83.5558958 255.213606,83.4592604 C253.766101,83.344988 252.308172,82.8761165 251.348006,81.7754825 C250.928827,81.2405979 250.444321,80.4213209 250.199531,79.6426971 C249.098241,76.4101936 249.025159,72.9506361 248.826963,69.5400294 C248.662595,64.4931407 248.646685,59.4376939 248.658893,54.3860278 C255.680471,54.3860278 262.702032,54.3860278 269.72361,54.3860278 L269.863668,54.3860278 L269.863668,54.245713 C269.820938,47.3037883 269.617551,40.2714695 267.818822,33.5071812 L267.818822,33.4791183 C266.974225,30.806132 265.94771,28.0683899 263.981234,25.9863064 C262.142284,23.8460854 259.469951,22.5688478 256.69822,22.169743 C255.281309,21.9219448 253.837587,21.8921666 252.412447,21.9452393 Z M252.412447,22.225869 C253.82692,22.1731914 255.28277,22.207729 256.670208,22.4503727 C259.381202,22.8407308 261.969992,24.1028189 263.757141,26.1827471 C265.665739,28.2035501 266.698932,30.9089906 267.538706,33.5633072 C267.541054,33.5721526 267.536357,33.5825247 267.538706,33.5913701 C269.30764,40.2598402 269.538904,47.2228413 269.583552,54.1053982 C262.561974,54.1053982 255.540414,54.1053982 248.518835,54.1053982 L248.378777,54.1053982 L248.378777,54.245713 C248.366076,59.3449918 248.380767,64.4404811 248.546847,69.5400294 C248.744595,72.9428773 248.799068,76.4665171 249.919415,79.7549489 C250.180232,80.584562 250.686717,81.3860044 251.123913,81.9438603 C252.151056,83.1212566 253.689219,83.6498192 255.185594,83.7679531 L255.213606,83.7679531 C257.253235,83.8643909 259.604541,84.0228187 261.348144,82.6173715 C262.498089,81.5819872 263.067339,79.9791114 263.364979,78.4640525 L263.364979,78.4359895 C264.002872,75.0700231 263.977845,71.6451469 263.92521,68.2491329 C265.437836,68.2491329 266.950462,68.2491329 268.463088,68.2491329 C268.593905,70.0005763 268.667631,71.7683905 268.659169,73.5249705 C268.573297,77.0540793 268.199627,80.7033604 266.502277,83.824079 C265.985358,84.7667612 265.432091,85.4735797 264.681523,86.2094311 L264.653512,86.2094311 C262.585118,88.3704231 259.523267,89.2315476 256.586174,89.548924 C252.981284,89.9301493 249.204613,89.7300985 245.913757,88.1457757 L245.885746,88.1457757 C243.796332,87.1736387 242.038181,85.6058124 240.591555,83.824079 C238.753394,81.4260739 237.559984,78.6106445 236.669932,75.7138819 C234.831099,69.5210274 234.459186,62.989765 234.372982,56.5468762 C234.414323,49.6456855 235.041979,42.6676517 237.370222,36.1451 C238.585656,32.8412134 240.185732,29.6044084 242.636401,27.080762 L242.664413,27.080762 C245.133287,24.2928478 248.682235,22.456551 252.412447,22.225869 Z M160.310335,21.9171763 C159.67782,21.9192148 159.024769,21.8989287 158.377536,21.9733023 C158.368159,21.9743799 158.3589,21.9721887 158.349524,21.9733023 C154.650389,22.2370492 150.946172,23.8280263 148.573479,26.7440065 C146.308269,29.3671349 145.262571,32.8918883 145.07203,36.3134778 C144.91867,39.9166369 145.162949,43.6074961 146.416586,47.0335308 C147.578095,50.3089503 149.65737,53.1736269 151.850835,55.7891761 C154.869265,59.391051 158.062094,62.8232909 161.066648,66.4250402 C161.723123,67.3631784 162.580968,68.3502404 163.195529,69.3716516 L163.223541,69.3997145 C164.897594,71.8004676 165.719019,74.7496294 165.548503,77.6782895 C165.47526,79.3162327 165.277297,81.0384547 164.315993,82.3648048 C163.784463,83.0763199 162.79374,83.6944326 161.850973,83.9082679 C160.405996,84.2907863 158.838351,84.2852276 157.369118,83.9924568 C156.051068,83.6669803 154.967203,82.9723118 154.119774,81.9157973 C153.545092,81.0752015 152.951462,80.0225215 152.607148,78.9972489 C151.371698,75.5259453 151.090676,71.809798 150.478267,68.164944 L150.478267,68.1088181 L150.394232,68.0526922 C150.160557,67.9282363 149.879796,67.9578618 149.581896,67.9685033 C149.283996,67.9791448 148.972848,67.9939171 148.741548,67.9685033 C147.58748,67.9685033 146.422188,67.9685033 145.268111,67.9685033 L145.128053,67.9685033 L145.128053,68.1088181 C145.128053,74.9842447 145.128053,81.8596714 145.128053,88.735098 L145.128053,88.8754128 L145.268111,88.8754128 C146.696702,88.8754128 148.125293,88.8754128 149.553884,88.8754128 L149.665931,88.8754128 L149.693942,88.763161 C149.958488,87.5403161 150.340306,86.2241675 151.290603,85.423668 C151.418551,85.3198934 151.501447,85.3029659 151.598731,85.3114162 C151.696014,85.3198665 151.825736,85.3694459 151.93487,85.451731 C152.153127,85.6163012 152.361488,85.8975774 152.579136,86.0971792 C155.006293,88.6220649 158.537726,89.965118 162.019042,89.9979315 C165.48902,90.0482293 169.092063,89.1852908 171.851111,86.9671312 C173.390529,85.6827274 174.719032,84.0872423 175.548641,82.2244899 C177.472629,78.2352114 177.56621,73.6695419 177.11729,69.3716516 C176.718629,65.4246336 175.21433,61.6545515 172.943563,58.4270949 C171.347028,56.140704 169.499661,54.0720369 167.677384,51.9726127 C165.472975,49.4844469 163.152351,47.110311 161.066648,44.5359268 C160.382511,43.5773767 159.527839,42.5270495 158.881744,41.4770635 C157.377284,39.1125993 156.69771,36.2542717 156.808886,33.4510553 C156.819589,32.0948103 157.111779,30.604797 157.873327,29.578366 C159.002718,28.1740503 161.067724,27.9166972 162.85939,28.0629658 C164.227709,28.1160924 165.608658,28.5074293 166.640955,29.4099882 C166.984597,29.6379044 167.315384,30.0937637 167.565337,30.5044439 C168.822184,32.422927 169.0824,34.8222971 169.358079,37.0992408 C169.567606,38.8196309 169.810827,40.5453641 170.002346,42.2628266 L170.002346,42.3750784 L170.142404,42.3750784 C171.832439,42.3750784 173.522466,42.3750784 175.212502,42.3750784 L175.35256,42.3750784 L175.35256,42.2347636 C175.35256,35.8738277 175.35256,29.5128828 175.35256,23.1519468 L175.35256,23.011632 L175.212502,23.011632 C173.821262,23.011632 172.430014,23.011632 171.038775,23.011632 L170.926728,23.011632 L170.898717,23.1238839 C170.759349,24.2131849 170.82906,25.3615754 170.450531,26.323062 C170.405291,26.4134651 170.40894,26.4075562 170.394508,26.4072509 C170.380077,26.4069455 170.323946,26.3811815 170.25445,26.323062 C170.184954,26.2649424 170.108369,26.1777991 170.030357,26.0985582 C169.961498,26.0286029 169.885916,25.9522896 169.806265,25.9021175 C169.796584,25.8936492 169.787952,25.8825048 169.778253,25.8740545 C167.177603,23.6079408 163.809122,22.0643879 160.310335,21.9171763 Z M160.310335,22.197806 C163.745247,22.3423325 167.048857,23.8846551 169.610184,26.1266212 L169.638195,26.1266212 C169.671325,26.1445097 169.731749,26.2193053 169.806265,26.294999 C169.88078,26.3706927 169.968911,26.4727521 170.058369,26.5475657 C170.147827,26.6223793 170.261684,26.6851057 170.394508,26.6878805 C170.527332,26.6906554 170.658471,26.579562 170.730647,26.4353138 C171.127327,25.4277052 171.035494,24.3122539 171.150821,23.2922617 C172.458026,23.2922617 173.765239,23.2922617 175.072444,23.2922617 C175.072444,29.5596514 175.072444,35.8270591 175.072444,42.0944488 C173.466443,42.0944488 171.860451,42.0944488 170.25445,42.0944488 C170.064706,40.4104104 169.842702,38.750376 169.638195,37.0711779 C169.362875,34.7971437 169.123911,32.3583508 167.817442,30.364129 C167.559081,29.9396374 167.22391,29.4606542 166.809024,29.1854845 C165.712135,28.2264584 164.2726,27.8372139 162.85939,27.7823362 C161.023909,27.6324934 158.873587,27.8876015 157.649234,29.4099882 C156.829978,30.5141873 156.539778,32.0559891 156.528771,33.4510553 C156.415478,36.307524 157.090006,39.1976323 158.62964,41.6173784 C159.290687,42.6916826 160.16731,43.758201 160.842556,44.7043046 C162.938907,47.2918358 165.254529,49.6872636 167.453291,52.1690535 C169.277486,54.2706868 171.108037,56.3278683 172.691459,58.5954727 C174.93616,61.7858951 176.443972,65.506766 176.837174,69.3997145 C177.283495,73.6727299 177.184787,78.1970547 175.296536,82.1122381 C174.488673,83.9261384 173.19573,85.4805124 171.683041,86.7426274 C168.991472,88.906547 165.439298,89.7388182 162.019042,89.6892388 C158.609167,89.6570899 155.141188,88.3619728 152.775217,85.9007385 L152.775217,85.8726755 C152.591766,85.7044414 152.371241,85.4295321 152.102939,85.2272273 C151.968788,85.1260749 151.799249,85.0457654 151.626742,85.0307865 C151.454236,85.0158076 151.266302,85.0598463 151.094522,85.1991643 C150.086624,86.0481835 149.708535,87.3871507 149.441838,88.5947832 C148.097282,88.5947832 146.752725,88.5947832 145.408169,88.5947832 C145.408169,81.8129028 145.408169,75.0310134 145.408169,68.2491329 C146.506403,68.2491329 147.615312,68.2491329 148.713537,68.2491329 C148.722841,68.2491329 148.732244,68.2491329 148.741548,68.2491329 C149.01175,68.274897 149.304227,68.259056 149.581896,68.2491329 C149.846191,68.2396858 150.084868,68.2751484 150.226163,68.3333218 C150.822375,71.9247439 151.087423,75.626514 152.327032,79.1095007 C152.684917,80.175166 153.311695,81.2299833 153.895681,82.0841751 C154.779592,83.1861651 155.910481,83.9336458 157.285083,84.2730864 L157.313095,84.2730864 C158.81838,84.5730414 160.410747,84.584994 161.906996,84.1888975 C162.922064,83.9586645 163.955437,83.3158025 164.540086,82.5331826 C165.558506,81.1280407 165.754731,79.3586819 165.828619,77.7063524 C166.002954,74.7121732 165.159424,71.6862042 163.447634,69.2313367 C162.813962,68.1781718 161.933287,67.1749006 161.290741,66.2566624 C158.279983,62.6474776 155.087415,59.1875249 152.074928,55.5927353 C149.890427,52.9878725 147.839826,50.1448381 146.696702,46.9212789 C145.461566,43.5458205 145.199727,39.8945906 145.352146,36.3134778 C145.540034,32.9396627 146.586269,29.5011547 148.797571,26.9404472 C151.116546,24.0904802 154.738001,22.5069207 158.377536,22.2539319 L158.405547,22.2539319 C159.033464,22.1790554 159.661399,22.1998984 160.310335,22.197806 Z M83.1103905,22.0013652 C77.6748421,22.0013652 72.85943,24.8982446 69.4127225,30.6447587 C65.966015,36.3912728 63.8664275,44.9607328 63.8664275,56.3784984 C63.8668667,68.9074228 65.7924059,77.2814387 69.1606182,82.5331826 C72.5288305,87.7849264 77.3572938,89.9137426 83.1103905,89.9137426 C88.5731258,89.9137426 92.7348057,88.7222295 95.3514558,85.3956051 C97.9681059,82.0689807 99.0160083,76.6354427 98.348696,68.164944 L98.348696,68.0526922 L98.2086381,68.0526922 L93.558714,68.0526922 L93.3906444,68.0526922 L93.418656,68.193007 C93.5865373,75.3040817 93.0710254,79.1793932 91.9060301,81.2422861 C91.3235324,82.2737281 90.5847704,82.8410221 89.6651028,83.1786308 C88.7454352,83.5162395 87.6294086,83.5995753 86.3317235,83.5995753 C84.4288356,83.5995753 83.0000383,83.3660465 81.9058921,82.6454344 C80.8117459,81.9248224 80.039854,80.7279571 79.4968953,78.7727451 C78.4109867,74.8623123 78.2643853,67.9723109 78.2643853,56.1820576 C78.2643763,55.768414 78.2643853,55.1011889 78.2643853,54.3018389 L99.3291017,54.3018389 L99.4691597,54.3018389 L99.4691597,54.1615241 C99.4691597,42.2518798 98.3325165,34.2304424 95.7156065,29.1574215 C93.0986964,24.0844006 88.9730776,22.0013652 83.1103905,22.0013652 Z M83.1103905,22.2819949 C88.9059035,22.2819949 92.8877265,24.3044592 95.4635021,29.2977363 C98.0282524,34.2696498 99.1792912,42.2139476 99.1890437,54.0212093 L78.1243273,54.0212093 L77.9842694,54.0212093 L77.9842694,54.1615241 C77.9842694,55.0514569 77.9842604,55.7375313 77.9842694,56.1820576 C77.9842694,67.9745739 78.1094924,74.8695503 79.2167794,78.856934 C79.7704229,80.8506259 80.5730334,82.1027999 81.7378225,82.8699381 C82.9026117,83.6370764 84.4039703,83.9082679 86.3317235,83.9082679 C87.6415813,83.9082679 88.7747376,83.8169667 89.7491376,83.4592604 C90.7235376,83.1015542 91.5470066,82.4647448 92.1581344,81.382601 C93.370252,79.2362735 93.8547942,75.348273 93.6987719,68.3333218 L98.0685801,68.3333218 C98.7083738,76.6819778 97.6576299,82.0104301 95.127363,85.2272273 C92.581589,88.4637448 88.5322872,89.6331129 83.1103905,89.6331129 C77.4266908,89.6331129 72.7047702,87.5695375 69.3847109,82.3928677 C66.0646517,77.2161979 64.1469826,68.8781565 64.1465434,56.3784984 C64.1465434,44.9956655 66.2287503,36.4671551 69.6368152,30.7850735 C73.0448802,25.102992 77.7760514,22.2819949 83.1103905,22.2819949 Z M82.4101007,27.3894547 C80.8883408,27.359452 79.7566277,28.5817401 79.3568373,29.9431846 C78.4018527,32.9316794 78.4135772,36.0847265 78.1803505,39.1478374 C78.0118507,42.6266663 77.9517938,46.1075157 77.9002346,49.5872607 L77.9002346,49.7275755 L78.0402925,49.7275755 C81.093556,49.7275755 84.1468194,49.7275755 87.2000828,49.7275755 L87.3401407,49.7275755 L87.3401407,49.5872607 C87.3068764,44.737576 87.4234226,39.8780402 87.2841176,35.0225814 C87.1425268,32.9150033 87.2534706,30.6181505 86.1916655,28.6522881 L86.1916655,28.6242252 C85.7897597,27.9662945 85.1653925,27.6307513 84.4829585,27.4736436 C83.8005244,27.3165359 83.0742936,27.3415815 82.4101007,27.3894547 Z M82.4101007,27.6700843 C83.0636985,27.6229745 83.7935058,27.6084536 84.4269353,27.7542732 C85.0603648,27.9000929 85.6116687,28.2099799 85.9675728,28.792603 C86.9657894,30.6616953 86.8613442,32.9271893 87.0040017,35.0506443 C87.1416932,39.8496629 87.0296737,44.6387585 87.0600248,49.4469458 C84.1001364,49.4469458 81.140239,49.4469458 78.1803505,49.4469458 C78.2314795,46.0144455 78.2945123,42.5741145 78.4604664,39.1478374 C78.6949122,36.0688136 78.672234,32.9586737 79.6089416,30.0273735 L79.6089416,29.9993105 C79.9801019,28.7353725 81.0435205,27.6431349 82.4101007,27.6700843 Z M293.869601,49.9520792 L293.645508,50.092394 L293.589485,50.120457 L293.505451,50.1765829 C292.099322,51.0416048 290.592765,51.7939706 289.331723,52.8986906 C288.534384,53.4207246 287.806262,54.3157581 287.174831,55.059539 L287.146819,55.059539 C285.258757,57.8125204 284.999043,61.2657021 284.793846,64.4606325 C284.65974,68.5573047 284.547424,72.6784119 284.765834,76.7802746 C284.901598,78.1947199 284.991038,79.794749 285.802263,81.0458454 C286.486741,82.1166114 287.784211,82.3602159 288.939561,82.3086788 C288.948776,82.3087417 288.958358,82.3086609 288.967573,82.3086788 C290.300279,82.3109149 291.668625,81.8002856 292.469022,80.6810268 C293.626156,79.1255662 293.776011,77.051969 293.869601,75.2087485 C293.900176,66.8737513 293.860844,58.5389516 293.869601,50.2046459 L293.869601,49.9520792 Z M293.589485,50.4572126 C293.581508,58.7081287 293.591735,66.9592333 293.561474,75.2087485 C293.468081,77.0479459 293.335409,79.0467923 292.244929,80.512649 C291.505064,81.547261 290.206752,82.0369665 288.939561,82.0280492 C287.828303,82.0823342 286.637824,81.8340241 286.026356,80.8774676 C285.272409,79.7146999 285.210694,78.1767865 285.073962,76.7522116 C284.856323,72.6649147 284.939918,68.5554458 285.073962,64.4606325 C285.278137,61.2817047 285.557975,57.9225991 287.370912,55.2559798 C287.379239,55.2461644 287.390552,55.237777 287.398924,55.2279168 C288.026554,54.4883027 288.77177,53.5998517 289.499793,53.1231943 C290.699066,52.0725887 292.194607,51.3089348 293.589485,50.4572126 Z" id="path5"></path>
            </g>
        </g>
    </g>
</svg>