<?xml version="1.0" encoding="UTF-8"?>
<svg width="300px" height="130px" viewBox="0 0 300 130" version="1.1" xmlns="http://www.w3.org/2000/svg" xmlns:xlink="http://www.w3.org/1999/xlink">
    <title>the_spoon_logo</title>
    <g id="Page-1" stroke="none" stroke-width="1" fill="none" fill-rule="evenodd">
        <g id="Artboard" transform="translate(-225.000000, -1528.000000)" fill="#000000">
            <g id="the_spoon_logo" transform="translate(225.000000, 1528.000000)">
                <path d="M39.0763764,29.8884851 C39.750996,29.8571644 40.275342,29.8135495 40.799981,29.8120859 C43.1888313,29.8044753 45.5817826,29.7269052 47.965653,29.8390159 C49.4059935,29.9066336 49.8960667,29.5331263 49.8834245,28.0013367 C49.8090663,19.1931805 49.8486119,10.3838534 49.8430462,1.57481906 C49.8427533,1.05583129 49.7838742,0.536843524 49.7545811,0.0535672655 L0,0.0535672655 L0,29.8325761 L11.3733294,29.8325761 L11.3733294,31.7750481 C11.3733294,40.4866076 11.4035012,49.1984599 11.3428646,57.9094339 C11.3331979,59.3258929 11.6126538,59.8302448 13.1722171,59.8136802 C21.2160956,59.7257448 29.2617316,59.7392098 37.3061959,59.804193 C38.7198797,59.815609 39.1168009,59.4172207 39.1071342,58.0092505 C39.0462046,49.2493927 39.0763764,40.4886567 39.0763764,31.7285061 L39.0763764,29.8884851 Z M61.8391464,67.3601046 C61.7720652,67.8184999 61.7202165,68.0070098 61.7202165,68.1955198 C61.7149437,87.6603419 61.7190448,107.125164 61.6959005,126.589986 C61.6947315,127.575858 62.0729051,127.822326 62.9927077,127.819399 C71.1827586,127.793933 79.3731024,127.788371 87.5628604,127.824713 C88.6103807,127.829351 88.8921801,127.468138 88.8748972,126.471436 C88.8224626,123.455277 88.8836851,120.437069 88.8400384,117.42091 C88.8271495,116.541001 89.1233025,116.211694 90.0006301,116.199108 C95.1890195,116.124172 99.5191219,113.90274 103.316676,110.599718 C112.101669,102.959212 114.216629,88.6828035 107.988629,78.7383187 C103.349484,71.3308147 96.8147852,67.1967683 87.7781645,67.3513231 C79.6393764,67.4903638 71.4961945,67.3674225 63.355063,67.3601046 C62.8790505,67.3598119 62.4030381,67.3601046 61.8391464,67.3601046 L61.8391464,67.3601046 Z M31.679875,67.2381878 C31.679875,67.2632152 31.679875,67.2878034 31.679875,67.3123917 C28.2171405,67.3123917 24.7544061,67.3056592 21.2916717,67.314148 C16.8048514,67.3249785 12.3159805,67.2638006 7.83208951,67.3908399 C3.87664557,67.5026579 0.110141963,71.0515624 0.0685457959,74.5788059 C0.0128889531,79.3003359 0.0509699508,84.0230368 0.0180583326,88.7451522 C0.0105455071,89.8656741 0.423577867,90.6879169 1.32375407,91.3544342 C5.86388779,94.7148288 10.397577,98.0842976 14.9095894,101.482453 C17.0919235,103.12606 19.4608545,103.996016 22.2445754,103.857854 C24.4805159,103.746914 26.7378402,103.765355 28.9702655,103.932204 C34.0165836,104.309224 38.4389591,106.040939 41.7115815,110.128151 C44.0263203,113.019612 42.6199597,115.493073 40.6019598,116.88553 C39.8139761,117.429398 38.9055978,117.876085 37.9863811,118.142165 C33.1670844,119.536378 28.3164441,119.483396 23.5970367,117.827494 C19.0112058,116.21872 15.858685,113.273106 15.3378542,108.072397 C15.2388436,107.081256 14.5542644,105.876139 13.7571998,105.273727 C10.1122625,102.517794 6.37446609,99.8774838 2.58071992,97.3279161 C0.684579167,96.053425 0.0606366656,96.4652783 0.0588790811,98.6902224 C0.0512628816,107.891498 0.07791958,117.092774 0.0298789367,126.293756 C0.0231415294,127.558295 0.358840171,127.950536 1.66589719,127.94878 C17.0280646,127.926826 32.390232,127.971905 47.7526924,127.984496 C53.4701148,127.989175 57.1103652,124.465444 57.2008809,118.744577 C57.2785075,113.828976 57.2773358,108.910154 57.1762747,103.995431 C57.1598705,103.210948 56.6364033,102.164484 56.0066022,101.709601 C51.9020565,98.7452533 47.7301367,95.8710621 43.5227723,93.0524873 C41.6767227,91.8157567 39.6361671,91.1846582 37.3129333,91.3081849 C34.2040592,91.4732775 31.0591547,91.6050002 27.9690282,91.3234062 C23.409561,90.9077476 19.3896723,89.1479312 16.5417996,85.3426064 C15.2113081,83.5646415 15.2130657,81.644416 16.7254671,80.0230549 C17.5286833,79.1621733 18.5636076,78.3519319 19.6536029,77.9494456 C25.050852,75.9563335 30.5380309,75.7824594 35.9472901,77.863094 C39.9850476,79.416252 42.6431013,82.1847722 43.3095187,86.699351 C43.4741458,87.8148967 44.3174935,89.1169032 45.2454981,89.7819569 C48.4853122,92.1046687 51.8774503,94.2201366 55.2569924,96.3429224 C56.7207673,97.2623475 57.2111334,96.9081595 57.2120122,95.1310728 C57.2152345,86.7576018 57.2184567,78.3841308 57.2210931,70.010367 C57.2219719,67.2412614 57.221386,67.2392124 54.3582808,67.2389196 C46.7989099,67.2381878 39.2392459,67.2381878 31.679875,67.2381878 L31.679875,67.2381878 Z M117.256079,59.4151717 C117.690495,59.4470779 117.974638,59.486302 118.258781,59.486302 C132.737762,59.4895219 147.21645,59.4766423 161.695139,59.5141241 C162.862468,59.5170373 163.052873,59.0589347 163.047893,58.0493528 C163.020064,52.4048851 163.001903,46.7595393 163.08656,41.1162425 C163.108237,39.6678773 162.6208,39.311055 161.243732,39.3529135 C158.093262,39.4486321 154.937519,39.3830634 151.823958,39.3830634 C151.291117,36.9072605 151.383097,36.7878319 153.661806,36.7872464 C156.343294,36.7863683 159.025368,36.7486077 161.705391,36.8056876 C162.716881,36.827056 163.061075,36.5106286 163.049943,35.4834836 C163.00864,31.6401055 163.012448,27.794971 163.075135,23.9518856 C163.094469,22.7698932 162.638962,22.4525876 161.521724,22.4792249 C158.841993,22.5430373 156.159919,22.5011787 153.478431,22.4997151 C151.384855,22.4985442 151.332713,22.4268285 151.81312,19.9949332 C152.288253,19.9949332 152.808791,19.9949332 153.329329,19.9949332 C156.059444,19.9949332 158.791316,19.936097 161.518794,20.0206923 C162.77576,20.0596237 163.084802,19.5857144 163.075428,18.4163088 C163.030024,12.7721339 163.05756,7.12708077 163.049943,1.4823204 C163.049358,1.01163098 162.980519,0.540941567 162.940973,0.0389314006 L117.256079,0.0389314006 L117.256079,59.4151717 Z M110.814239,0 L84.3122078,0 L84.3122078,21.7529933 L81.8401652,21.7529933 L81.8401652,0.041273139 L55.5762869,0.041273139 L55.5762869,59.3680442 L81.9075393,59.3680442 L81.9075393,57.5122165 C81.9075393,51.477264 81.9069534,45.4423115 81.9078322,39.407359 C81.9078322,37.2968672 82.078025,37.1695352 84.3546828,37.7666785 L84.3546828,59.4901073 C85.0916965,59.4901073 85.62278,59.4901073 86.1538634,59.4901073 C93.7601033,59.4901073 101.366636,59.4517614 108.971997,59.5241741 C110.416732,59.5372348 110.857007,59.220222 110.852357,57.6942867 C110.793734,39.0054581 110.814239,20.3166295 110.814239,1.62780089 L110.814239,0 Z" id="Fill-1"></path>
                <path d="M300,127.750914 C299.47795,127.826356 298.956194,127.96718 298.434144,127.967476 C280.718261,127.979014 263.002378,127.974576 245.286495,127.984496 C244.346511,127.984496 243.621229,128.044693 243.624161,126.656862 C243.664758,106.593826 243.652699,86.5304941 243.65564,66.4674579 C243.65564,66.2787059 243.691522,66.0902497 243.750638,65.503876 C253.204893,73.4968429 262.463858,81.3244299 272.009876,89.3946135 L272.009876,66.9283915 L300,66.9283915 L300,127.750914 Z" id="Fill-3"></path>
                <path d="M205.95949,130 C203.770282,129.426883 201.503968,129.055732 199.404959,128.246695 C188.59276,124.079155 182.245976,115.934335 180.008467,104.763233 C177.43897,91.9357113 180.917146,80.7511452 190.966148,72.2114651 C202.357073,62.5316974 218.429599,63.468062 229.031722,74.1181481 C236.638959,81.7595153 239.472652,91.1594566 238.356225,101.733439 C237.259875,112.114529 232.252687,120.242958 223.45861,125.904466 C220.319406,127.925304 216.819698,129.037877 213.169563,129.703197 C212.795384,129.771397 212.432262,129.899602 212.064193,130 C210.029195,130 207.994488,130 205.95949,130" id="Fill-5"></path>
                <path d="M142.447151,130 C140.307265,129.435405 138.124338,128.99862 136.035347,128.283056 C128.91335,125.842926 123.877437,120.939214 120.116787,114.502067 C112.279363,101.086922 115.314696,82.4722824 127.045677,72.3939943 C139.526693,61.6710827 157.833502,63.6823432 168.105417,76.9054793 C178.676881,90.5138066 177.227994,110.362289 164.781004,122.248688 C160.548347,126.29085 155.483932,128.659746 149.771852,129.696303 C149.453399,129.754052 149.149779,129.896813 148.839469,130 L142.447151,130 Z" id="Fill-7"></path>
                <path d="M110.700073,0 L110.700073,1.62597385 C110.700073,20.2938262 110.679533,38.9616785 110.738255,57.6295308 C110.742913,59.1537533 110.301897,59.4704104 108.85473,59.4573643 C101.236565,59.3853252 93.6172267,59.4233358 85.9981816,59.4233358 C85.4662041,59.4233358 84.9342266,59.4233358 84.195972,59.4233358 L84.195972,37.7242893 C81.9154815,37.1278162 81.7450022,37.2550053 81.7450022,39.3631282 C81.7441219,45.3913071 81.7447087,51.419486 81.7447087,57.447665 L81.7447087,59.3014097 L55.3691275,59.3014097 L55.3691275,0.0412268141 L81.6772212,0.0412268141 L81.6772212,21.7285778 L84.1534256,21.7285778 L84.1534256,0 L110.700073,0 Z" id="Fill-9"></path>
                <path d="M116.778523,59.3587313 L116.778523,0 L162.939449,0 C162.979407,0.502152288 163.048963,0.972700586 163.049555,1.44324888 C163.05725,7.0863169 163.029428,12.7293849 163.075305,18.3721603 C163.084777,19.5412153 162.772515,20.0146899 161.502451,19.9757702 C158.746553,19.8914929 155.986215,19.9500188 153.227653,19.9503114 C152.701691,19.9503114 152.175729,19.9503114 151.695645,19.9503114 C151.210232,22.381185 151.262917,22.4531718 153.378308,22.4543424 C156.087737,22.4558055 158.797758,22.4976515 161.505411,22.4338583 C162.63429,22.407229 163.094544,22.7244394 163.075009,23.9057849 C163.011669,27.7480107 163.007821,31.5916997 163.049555,35.4342182 C163.060802,36.4610552 162.713022,36.7773878 161.690992,36.7560258 C158.983043,36.698963 156.273023,36.7367122 153.563594,36.7375901 C151.261142,36.7381754 151.168203,36.8572756 151.7063,39.3326289 C154.8526,39.3326289 158.041225,39.3981779 161.224523,39.302488 C162.61594,39.260642 163.108455,39.6173574 163.086553,41.0649957 C163.001013,46.7068932 163.019364,52.3505465 163.047483,57.9933219 C163.052515,59.0026012 162.860126,59.4605664 161.680633,59.4573643 C147.051079,59.4201835 132.421524,59.4330592 117.791673,59.4298403 C117.50457,59.4295477 117.217466,59.390628 116.778523,59.3587313" id="Fill-11"></path>
                <path d="M31.7419167,67.5193798 C39.3204119,67.5193798 46.8989071,67.5193798 54.4776959,67.5199859 C57.3477507,67.5205686 57.3486317,67.5226081 57.3477507,70.2789013 C57.3451076,78.6136288 57.3418773,86.9483562 57.3386469,95.2830837 C57.3377658,97.0522393 56.8461592,97.4047884 55.3786811,96.4893261 C51.9905892,94.3766537 48.5898695,92.2709739 45.3415654,89.9590092 C44.4115067,89.2970327 43.5660255,88.0007591 43.4009819,86.890375 C42.7328785,82.3966848 40.0681004,79.6412657 36.0201279,78.0952941 C30.597184,76.0242866 25.0961233,76.1970648 19.6849262,78.1812462 C18.592467,78.5818702 17.5546308,79.3880714 16.7496763,80.2452611 C15.2334487,81.8591202 15.2316866,83.7701696 16.5655441,85.5399079 C19.4206216,89.3276258 23.4503864,91.079591 28.0213884,91.4933263 C31.1196261,91.7736174 34.2724869,91.6425041 37.389226,91.4778841 C39.7183372,91.3552203 41.7640552,91.9833987 43.614775,93.214407 C47.8324898,96.0199405 52.014964,98.8808329 56.1301873,101.831174 C56.7615817,102.283952 57.2863733,103.325866 57.3025252,104.106427 C57.403842,108.99841 57.4053104,113.894764 57.3274873,118.787621 C57.2367427,124.481727 53.5872829,127.989153 47.8553962,127.984496 C32.4540709,127.972254 17.0530393,127.927384 1.65200766,127.948945 C0.34164397,127.950985 0.00509605662,127.560558 0.0118505086,126.301579 C0.0600126883,117.14346 0.033288552,107.984758 0.0409240195,98.8260567 C0.0426860505,96.6111158 0.66791337,96.2014596 2.56914478,97.4700537 C6.37248861,100.007533 10.1197411,102.635918 13.7738997,105.378809 C14.5729807,105.978433 15.2589981,107.177975 15.3585528,108.164529 C15.8807014,113.341174 19.0411976,116.273159 23.6383363,117.874781 C28.3699768,119.52273 33.2325949,119.575466 38.0643775,118.187705 C38.985626,117.923147 39.8963024,117.478528 40.6865733,116.937175 C42.7096785,115.551162 44.1195969,113.089145 41.7987085,110.211062 C38.5181005,106.142762 34.0842432,104.418768 29.0254523,104.043784 C26.7873793,103.877707 24.5243442,103.85906 22.2824535,103.969486 C19.4919838,104.107009 17.1170598,103.24137 14.9292046,101.605076 C10.4057775,98.2226441 5.86061862,94.869057 1.30899897,91.5239194 C0.406545444,90.8607774 -0.00753183194,90.042339 0,88.9267104 C0.0329948802,84.2267353 -0.00518245733,79.525886 0.0506151898,74.8262023 C0.0920229174,71.3149878 3.86834894,67.7827952 7.83379962,67.6712032 C12.3290343,67.5450431 16.8292614,67.6056466 21.3274327,67.5948661 C24.7989274,67.586708 28.2704221,67.5934093 31.7419167,67.5934093 C31.7419167,67.5686435 31.7419167,67.544169 31.7419167,67.5193798" id="Fill-13"></path>
                <path d="M61.5542685,67.5323421 C62.1233997,67.5323421 62.6038352,67.5320494 63.0842707,67.5323421 C71.3010477,67.5396585 79.5198943,67.6625745 87.7343061,67.5235624 C96.8545975,67.3690395 103.450016,71.5022347 108.132562,78.9082136 C114.418431,88.8506509 112.28382,103.12412 103.416903,110.763054 C99.5840623,114.065103 95.2137255,116.28637 89.9774224,116.36129 C89.0919428,116.373874 88.7930381,116.703113 88.8057511,117.58284 C88.850099,120.598378 88.788012,123.615965 88.8409338,126.631503 C88.8586729,127.628 88.5739595,127.988846 87.5170014,127.984496 C79.2508504,127.948167 70.9846994,127.953728 62.7185484,127.979189 C61.7901993,127.982115 61.4082161,127.735698 61.409396,126.750029 C61.4327553,107.289215 61.4289118,87.8283999 61.4342335,68.3675853 C61.4342335,68.1791141 61.486564,67.990643 61.5542685,67.5323421" id="Fill-15"></path>
                <path d="M39.4305667,29.6837722 L39.4305667,31.5144715 C39.4305667,40.2302426 39.4001214,48.9465961 39.4616033,57.662076 C39.4713576,59.0629133 39.0708387,59.4592833 37.6443412,59.4479252 C29.5269614,59.3832711 21.4083994,59.3698744 13.2916108,59.4573643 C11.7179115,59.473845 11.4359226,58.9720482 11.4456769,57.5627651 C11.5068632,48.8959214 11.4764178,40.228204 11.4764178,31.5607778 L11.4764178,29.6281465 L0,29.6281465 L0,0 L50.2055592,0 C50.2351178,0.48082795 50.2945306,0.997186493 50.2948262,1.51354504 C50.3004423,10.2779523 50.2605382,19.0426507 50.3355705,27.8061842 C50.3483272,29.3302137 49.853812,29.7018288 48.4004162,29.6345536 C45.9949382,29.5230109 43.5802971,29.600188 41.1697941,29.6077601 C40.6403998,29.6092162 40.111301,29.6526102 39.4305667,29.6837722" id="Fill-17"></path>
            </g>
        </g>
    </g>
</svg>