<?xml version="1.0" encoding="UTF-8"?>
<svg width="420px" height="100px" viewBox="0 0 420 100" version="1.1" xmlns="http://www.w3.org/2000/svg" xmlns:xlink="http://www.w3.org/1999/xlink">
    <title>tiktok_logo</title>
    <g id="Page-1" stroke="none" stroke-width="1" fill="none" fill-rule="evenodd">
        <g id="Artboard" transform="translate(-1052.000000, -1543.000000)" fill="#000000" fill-rule="nonzero">
            <g id="tiktok_logo" transform="translate(1052.000000, 1543.000000)">
                <g id="Group">
                    <path d="M63.3635138,0 L63.3635138,2.20144785 C63.8540692,7.56385736 66.1211824,12.4143355 69.5741038,16.1676647 L69.468,16.05 L69.7178678,16.2090016 C72.9242962,19.7061796 77.153629,22.2532112 81.9334933,23.3767759 L82.301,23.458 L82.3019707,23.4283671 C83.7502495,23.733667 85.2232737,23.9062193 86.7022781,23.9443475 L87.3364486,23.9524533 L87.3364486,41.068192 C78.3969195,41.068192 70.1199634,38.2407722 63.3635138,33.4353383 L63.364,33.436 L63.364232,68.3628564 C63.364232,85.6617106 49.4106644,99.7163979 32.0919408,99.9957618 L31.5661119,100 C22.657826,100 14.605678,96.356064 8.8317757,90.4820806 L9.083,90.734 L9.05143644,90.7137805 C3.56279258,85.1101002 0.138891129,77.4820912 0.00413052811,69.0542641 L0,68.5372858 C0,51.2441 13.8572772,37.1830375 31.087502,36.8274968 L30.896,36.833 L30.8963564,36.7332201 C32.3381647,36.7028842 33.7805006,36.7694656 35.2131874,36.932289 L35.9286796,37.0217178 L35.9286796,54.519975 C34.5019031,54.0695326 33.0137173,53.8414514 31.5165536,53.8418089 C23.4830796,53.8418089 16.9715486,60.3213871 16.9715486,68.3128072 C16.9668801,71.4784163 18.0094002,74.5571543 19.9385831,77.0739119 C18.7865363,76.4954177 17.7223722,75.7690999 16.7712983,74.9199908 C17.7728915,75.8542226 18.9073344,76.6480823 20.1429969,77.2709718 C22.7975254,80.7503966 26.9889617,82.9965395 31.7069279,82.9965395 C39.7131953,82.9965395 46.2055099,76.5269168 46.2338449,68.5369274 L46.2338449,68.5369274 L46.2338449,0 L63.3635138,0 Z" id="Combined-Shape"></path>
                    <path d="M103.037383,23.5294118 L103.037383,38.5269062 L120.602876,38.5269062 L120.602876,95.6739845 L138.175431,95.6739845 L138.175431,38.9318239 L152.47414,38.9318239 L157.376904,23.5294118 L103.037383,23.5294118 L103.037383,23.5294118 Z M246.854002,23.5294118 L246.854002,38.5269062 L264.419495,38.5269062 L264.419495,95.6739845 L281.99205,95.6739845 L281.99205,38.9318239 L296.290288,38.9318239 L301.192582,23.5294118 L246.854002,23.5294118 L246.854002,23.5294118 Z M160.648396,32.0402179 C160.648396,27.3408178 164.483418,23.5294118 169.221407,23.5294118 C173.963633,23.5294118 177.802892,27.3408178 177.802892,32.0402179 C177.802892,36.7400889 173.965987,40.5514949 169.221407,40.5514949 C164.483418,40.5491408 160.648396,36.7400889 160.648396,32.0402179 Z M160.648396,46.6327946 L177.802892,46.6327946 L177.802892,95.6739845 L160.648396,95.6739845 L160.648396,46.6327946 Z M185.158451,23.5294118 L185.158451,95.6735136 L202.319539,95.6735136 L202.319539,77.0312886 L207.631416,72.1633297 L224.380566,96.0784314 L242.764756,96.0784314 L218.657222,61.2225462 L240.311961,40.144223 L219.475919,40.144223 L202.319539,57.1663062 L202.319539,23.5294118 L185.158451,23.5294118 Z M362.386634,23.5294118 L362.386634,95.6735136 L379.550075,95.6735136 L379.550075,77.0312886 L384.859599,72.1633297 L401.613457,96.0784314 L420,96.0784314 L395.892466,61.2225462 L417.546264,40.144223 L396.711163,40.144223 L379.550075,57.1663062 L379.550075,23.5294118 L362.386634,23.5294118 Z" id="Shape"></path>
                </g>
                <path d="M323.543347,95.0980392 C339.959776,95.0980392 353.271028,81.9296262 353.271028,65.6872106 C353.271028,49.445263 339.959776,36.2745098 323.543347,36.2745098 L323.137488,36.2745098 C306.720121,36.2745098 293.411215,49.4447949 293.411215,65.6872106 C293.411215,81.9296262 306.720121,95.0980392 323.137488,95.0980392 L323.543347,95.0980392 Z M308.884548,65.6872106 C308.884548,57.7864436 315.359532,51.3866398 323.343937,51.3866398 C331.322711,51.3866398 337.797226,57.7864436 337.797226,65.6872106 C337.797226,73.5879776 331.322711,79.9915256 323.343937,79.9915256 C315.359532,79.9901215 308.884548,73.5879776 308.884548,65.6872106 Z" id="Shape"></path>
            </g>
        </g>
    </g>
</svg>