<?xml version="1.0" encoding="UTF-8"?><svg id="Layer_1" xmlns="http://www.w3.org/2000/svg" viewBox="0 0 45.11 35"><defs><style>.cls-1{fill:#fff;}.cls-2{fill:#3b2b2f;}.cls-3{fill:#e5431e;}.cls-4{fill:#fbf3eb;stroke:#fff;stroke-miterlimit:10;}</style></defs><circle class="cls-4" cx="27.61" cy="17.5" r="14.62"/><rect class="cls-3" x="12.18" y="18.98" width="31.2" height="8.96" rx="1.37" ry="1.37"/><path class="cls-1" d="m23.2,26.25h-1.3v-3.9l-1.25.48v-1.27l2.55-.99v5.69Z"/><path class="cls-1" d="m29.01,23.46c0,1.81-1.09,2.9-2.47,2.9s-2.46-1.09-2.46-2.9,1.09-2.9,2.46-2.9,2.47,1.08,2.47,2.9Zm-3.58,0c0,1.09.49,1.66,1.12,1.66s1.12-.57,1.12-1.66-.49-1.66-1.12-1.66-1.12.57-1.12,1.66Z"/><path class="cls-1" d="m34.61,23.46c0,1.81-1.09,2.9-2.47,2.9s-2.46-1.09-2.46-2.9,1.09-2.9,2.46-2.9,2.47,1.08,2.47,2.9Zm-3.58,0c0,1.09.49,1.66,1.12,1.66s1.12-.57,1.12-1.66-.49-1.66-1.12-1.66-1.12.57-1.12,1.66Z"/><path class="cls-1" d="m40.22,23.46c0,1.81-1.09,2.9-2.47,2.9s-2.46-1.09-2.46-2.9,1.09-2.9,2.46-2.9,2.47,1.08,2.47,2.9Zm-3.58,0c0,1.09.49,1.66,1.12,1.66s1.12-.57,1.12-1.66-.49-1.66-1.12-1.66-1.12.57-1.12,1.66Z"/><circle class="cls-1" cx="17.25" cy="23.57" r="2.24"/><path class="cls-3" d="m17.05,25.11v-1.34h-1.34v-.37h1.34v-1.36h.38v1.36h1.35v.37h-1.35v1.34h-.38Z"/><path class="cls-3" d="m21,11.75c-.6,0-1.05.24-1.34.62v-.54h-.58v5.23h.58v-2.1c.29.38.74.62,1.34.62,1.04,0,1.84-.81,1.84-1.91s-.81-1.91-1.84-1.91h0Zm-.07,3.28c-.77,0-1.31-.59-1.31-1.37s.54-1.37,1.31-1.37,1.31.61,1.31,1.37-.53,1.37-1.31,1.37Z"/><path class="cls-3" d="m26.88,13.65c0-1.11-.73-1.9-1.73-1.9-1.05,0-1.83.78-1.83,1.91s.78,1.91,1.86,1.91c.54,0,1.05-.13,1.51-.57l-.31-.4c-.31.29-.71.46-1.17.46-.67,0-1.22-.41-1.3-1.2h2.96c0-.07.02-.15.02-.22h0Zm-2.95-.26c.09-.67.53-1.13,1.22-1.13.63,0,1.08.44,1.15,1.13h-2.37Z"/><path class="cls-3" d="m29.14,11.75c-.45,0-.84.21-1.09.59v-.52h-.57v3.68h.58v-2.06c0-.7.41-1.15.99-1.15.21,0,.46.05.64.15v-.63c-.16-.05-.34-.06-.54-.06h0Z"/><path class="cls-3" d="m35.17,13.41l-.43-.05c-.48-.06-.75-.21-.75-.52,0-.36.35-.58.87-.58.49,0,.97.18,1.2.35l.25-.46c-.35-.24-.88-.4-1.46-.4-.88,0-1.47.42-1.47,1.11,0,.55.39.92,1.22,1.02l.44.05c.52.06.77.24.77.53,0,.38-.39.6-1.01.6s-1-.18-1.27-.4l-.27.44c.46.35,1.06.47,1.54.47.99,0,1.62-.44,1.62-1.14-.02-.6-.47-.92-1.25-1.02h0Z"/><path class="cls-3" d="m30.79,9.07h-.58v6.43h.58v-6.43Z"/><polygon class="cls-3" points="33.13 15.5 32.41 15.5 30.79 13.67 32.41 11.82 33.13 11.82 31.51 13.67 33.13 15.5"/><path class="cls-2" d="m21.19,9.07h1.26v.37h-.8v.32h.74v.37h-.74v.35h.8v.37h-1.26v-1.77h0Zm2.83,1.2c0,.14-.08.22-.3.22s-.3-.08-.3-.22v-1.2h-.46v1.25c0,.28.17.56.76.56s.76-.28.76-.56v-1.25h-.46v1.2h0Zm3.11.58h.46v-1.78h-.46v1.78Zm2.02-.88v.5c-.08.02-.17.02-.27.02-.23,0-.28-.08-.28-.23v-.61c0-.16.08-.22.27-.22s.39.02.61.05l.04-.38c-.23-.05-.44-.06-.64-.06-.52,0-.74.18-.74.55v.74c0,.36.2.55.73.55.23,0,.49-.03.7-.09v-.82h-.42Zm-9.78-.29c-.16,0-.28.12-.28.28s.12.28.28.28.28-.12.28-.28-.12-.28-.28-.28m0-.64c-.16,0-.28.12-.28.28s.12.28.28.28.28-.12.28-.28-.12-.28-.28-.28m0,1.28c-.16,0-.28.12-.28.28s.12.28.28.28.28-.12.28-.28-.12-.28-.28-.28m1.4-1.25h-.51l-.52.89.52.89h.51l-.54-.89.54-.89h0Zm5.53,1.18l.36.59h-.51l-.28-.5h-.35v.5h-.46v-1.78h.84c.48,0,.63.19.63.51v.25c0,.2-.06.32-.23.42h0Zm-.22-.65c0-.12-.05-.16-.19-.16h-.38v.54h.37c.15,0,.2-.05.2-.17v-.2h0Z"/><path class="cls-2" d="m29.78,9.15s-.03.07-.08.07-.08-.03-.08-.07.03-.07.08-.07.08.03.08.07Zm-.02,0s-.03-.06-.06-.06-.06.03-.06.06.03.06.06.06.06-.03.06-.06Zm-.03-.01s0,.02-.02.02l.02.03h-.02l-.02-.03h0v.03h-.02v-.07h.03s.03,0,.03.02Zm-.05-.01v.02h.02s.01,0,.01,0,0,0-.01,0h-.02Z"/></svg>