<?xml version="1.0" encoding="utf-8"?>
<!-- Generator: Adobe Illustrator 26.3.1, SVG Export Plug-In . SVG Version: 6.00 Build 0)  -->
<svg version="1.1" id="Layer_2_00000117647546470256645230000015993985650725678775_"
	 xmlns="http://www.w3.org/2000/svg" xmlns:xlink="http://www.w3.org/1999/xlink" x="0px" y="0px" viewBox="0 0 217.6 65"
	 style="enable-background:new 0 0 217.6 65;" xml:space="preserve">
<style type="text/css">
	.st0{fill:#A7A9AB;}
	.st1{fill:#FFFFFF;}
</style>
<g id="Layer_1-2">
	<path d="M209.4,63.2H8.2c-4.1,0-7.4-3.3-7.4-7.4V8.2c0-4.1,3.3-7.4,7.4-7.4h201.2c4.1,0,7.4,3.3,7.4,7.4v47.7
		C216.8,59.9,213.5,63.2,209.4,63.2"/>
	<g>
		<g>
			<path class="st0" d="M8.2,1.6c-3.6,0-6.6,3-6.6,6.6v47.7c0,3.6,2.9,6.6,6.6,6.6h201.2c3.6,0,6.6-3,6.6-6.6V8.2
				c0-3.6-2.9-6.6-6.6-6.6C209.4,1.6,8.2,1.6,8.2,1.6z M209.4,64.1H8.2c-4.5,0-8.2-3.7-8.2-8.2V8.2C0,3.7,3.7,0,8.2,0h201.2
				c4.5,0,8.2,3.7,8.2,8.2v47.7C217.6,60.4,213.9,64.1,209.4,64.1"/>
		</g>
	</g>
	<path class="st1" d="M75.5,16.8l-0.8-2.6c-0.2-0.6-0.4-1.4-0.5-2h0c-0.2,0.6-0.3,1.3-0.5,2l-0.8,2.6H75.5z M72.4,18.2l-0.9,3h-2
		l3.4-10.5h2.4l3.4,10.5h-2.1l-0.9-3"/>
	<path class="st1" d="M81.7,13.6l1.2,3.9c0.2,0.7,0.4,1.3,0.5,1.9h0.1c0.1-0.6,0.3-1.2,0.5-1.9l1.2-3.9h2l-2.9,7.6h-1.9l-2.8-7.6"/>
	<path class="st1" d="M93,17.5c-1.4,0-2.7,0.3-2.7,1.4c0,0.8,0.5,1.1,1.1,1.1c0.8,0,1.3-0.5,1.5-1c0.1-0.1,0.1-0.3,0.1-0.4L93,17.5
		L93,17.5z M94.9,19.4c0,0.7,0,1.4,0.1,1.8h-1.7l-0.1-0.8h-0.1c-0.4,0.6-1.2,1-2.2,1c-1.5,0-2.4-1.1-2.4-2.3c0-1.9,1.7-2.9,4.5-2.9
		v-0.1c0-0.5-0.2-1.3-1.5-1.3c-0.8,0-1.5,0.2-2.1,0.6L89,14.1c0.6-0.3,1.6-0.7,2.8-0.7c2.4,0,3.1,1.5,3.1,3.2"/>
	<path class="st1" d="M97.6,13.6h1.9v7.6h-1.9V13.6z M98.5,12.5c-0.6,0-1.1-0.5-1.1-1c0-0.6,0.4-1.1,1.1-1.1s1.1,0.4,1.1,1.1
		C99.6,12,99.2,12.5,98.5,12.5"/>
	<path class="st1" d="M102.3,21.2h1.9V10.1h-1.9V21.2z"/>
	<path class="st1" d="M111,17.5c-1.4,0-2.7,0.3-2.7,1.4c0,0.8,0.5,1.1,1.1,1.1c0.8,0,1.3-0.5,1.5-1c0.1-0.1,0.1-0.3,0.1-0.4
		L111,17.5L111,17.5z M112.9,19.4c0,0.7,0,1.4,0.1,1.8h-1.7l-0.1-0.8h-0.1c-0.4,0.6-1.2,1-2.2,1c-1.5,0-2.4-1.1-2.4-2.3
		c0-1.9,1.7-2.9,4.5-2.9v-0.1c0-0.5-0.2-1.3-1.6-1.3c-0.8,0-1.5,0.2-2,0.6l-0.4-1.2c0.6-0.3,1.5-0.7,2.8-0.7c2.4,0,3.1,1.5,3.1,3.2"
		/>
	<path class="st1" d="M117.5,18.1c0,0.2,0,0.3,0.1,0.5c0.2,0.8,0.9,1.3,1.7,1.3c1.2,0,1.9-1,1.9-2.5c0-1.3-0.6-2.4-1.9-2.4
		c-0.8,0-1.5,0.6-1.7,1.4c0,0.1-0.1,0.3-0.1,0.5L117.5,18.1L117.5,18.1z M115.6,10.1h1.9v4.5h0c0.5-0.7,1.3-1.2,2.4-1.2
		c1.9,0,3.2,1.5,3.2,3.9c0,2.7-1.7,4.1-3.4,4.1c-1,0-1.9-0.4-2.4-1.3h0l-0.1,1.1h-1.6c0-0.5,0.1-1.4,0.1-2.1"/>
	<path class="st1" d="M125.4,21.2h1.9V10.1h-1.9V21.2z"/>
	<path class="st1" d="M134.8,16.6c0-0.7-0.3-1.9-1.6-1.9c-1.2,0-1.7,1.1-1.8,1.9H134.8L134.8,16.6z M131.4,17.9c0.1,1.4,1.1,2,2.3,2
		c0.9,0,1.5-0.1,2.1-0.3l0.3,1.3c-0.7,0.3-1.6,0.5-2.6,0.5c-2.5,0-3.9-1.5-3.9-3.8c0-2.1,1.3-4.1,3.7-4.1s3.3,2,3.3,3.7
		c0,0.4,0,0.6-0.1,0.8"/>
	<path class="st1" d="M146.1,20c1.1,0,1.9-1.1,1.9-2.6c0-1.2-0.5-2.6-1.8-2.6s-1.9,1.3-1.9,2.6C144.2,18.9,145,20,146.1,20L146.1,20
		L146.1,20z M146.1,21.4c-2.1,0-3.8-1.5-3.8-3.9s1.6-4,3.9-4s3.8,1.6,3.8,3.9C150,20.1,148,21.4,146.1,21.4"/>
	<path class="st1" d="M152.2,15.9c0-0.9,0-1.6-0.1-2.3h1.7l0.1,1.1h0.1c0.3-0.6,1.2-1.3,2.4-1.3s2.7,0.9,2.7,3.3v4.5h-1.9v-4.3
		c0-1.1-0.4-1.9-1.4-1.9c-0.8,0-1.3,0.6-1.5,1.1c-0.1,0.2-0.1,0.4-0.1,0.6v4.5h-1.9"/>
	<path class="st1" d="M168,11.6v1.9h1.8V15H168v3.3c0,0.9,0.2,1.4,1,1.4c0.3,0,0.5,0,0.8-0.1l0,1.5c-0.3,0.1-0.8,0.2-1.4,0.2
		c-0.7,0-1.3-0.2-1.6-0.6c-0.4-0.4-0.6-1.1-0.6-2.1V15H165v-1.4h1.1v-1.4"/>
	<path class="st1" d="M171.9,10.1h1.9v4.5h0c0.2-0.4,0.6-0.7,0.9-0.9c0.4-0.2,0.8-0.3,1.3-0.3c1.3,0,2.6,0.9,2.6,3.3v4.5h-1.9v-4.3
		c0-1.1-0.4-1.9-1.5-1.9c-0.8,0-1.3,0.5-1.5,1.1c-0.1,0.2-0.1,0.4-0.1,0.6v4.6h-1.9"/>
	<path class="st1" d="M186.2,16.6c0-0.7-0.3-1.9-1.6-1.9c-1.2,0-1.7,1.1-1.8,1.9H186.2z M182.9,17.9c0.1,1.4,1.1,2,2.3,2
		c0.9,0,1.5-0.1,2.1-0.3l0.3,1.3c-0.7,0.3-1.6,0.5-2.7,0.5c-2.5,0-3.9-1.5-3.9-3.8c0-2.1,1.3-4.1,3.7-4.1s3.3,2,3.3,3.7
		c0,0.4,0,0.6-0.1,0.8"/>
	<path class="st1" d="M48.6,31.4c0-5.2,4.3-7.7,4.5-7.9c-2.4-3.6-6.2-4.1-7.6-4.1c-3.2-0.3-6.3,1.9-7.9,1.9s-4.2-1.9-6.8-1.8
		c-3.5,0-6.7,2.1-8.5,5.2c-3.7,6.3-0.9,15.6,2.6,20.8c1.8,2.5,3.8,5.3,6.5,5.2C34,50.6,35,49,38.1,49s4.1,1.7,6.8,1.6
		c2.8,0,4.6-2.5,6.3-5c2-2.9,2.8-5.7,2.9-5.8C54,39.7,48.6,37.6,48.6,31.4"/>
	<path class="st1" d="M43.4,16.1c1.4-1.8,2.4-4.2,2.1-6.6c-2,0.1-4.6,1.4-6.1,3.1c-1.3,1.5-2.5,4-2.2,6.4
		C39.6,19.1,41.9,17.8,43.4,16.1"/>
	<path class="st1" d="M80.2,41.3l-1.8-5.6c-0.2-0.6-0.6-1.9-1.1-4h-0.1c-0.2,0.9-0.6,2.3-1,4l-1.8,5.6H80.2L80.2,41.3z M86.5,50.3
		h-3.7l-2-6.3h-7L72,50.3h-3.6l6.9-21.4h4.3"/>
	<path class="st1" d="M100.8,42.5c0-1.5-0.3-2.8-1-3.7c-0.7-1-1.7-1.5-3-1.5c-0.8,0-1.6,0.3-2.3,0.8c-0.7,0.6-1.1,1.3-1.4,2.2
		c-0.1,0.4-0.2,0.8-0.2,1v2.6c0,1.1,0.3,2.1,1,2.8s1.6,1.2,2.7,1.2c1.3,0,2.3-0.5,3-1.5C100.4,45.4,100.8,44.1,100.8,42.5
		 M104.3,42.4c0,2.6-0.7,4.7-2.1,6.2c-1.3,1.4-2.9,2-4.7,2c-2,0-3.5-0.7-4.4-2.2h-0.1v8.1h-3.4V39.9c0-1.7,0-3.3-0.1-5.1h3l0.2,2.5
		h0.1c1.1-1.8,2.9-2.8,5.2-2.8c1.8,0,3.3,0.7,4.6,2.2C103.6,38.1,104.3,40,104.3,42.4"/>
	<path class="st1" d="M118.5,42.5c0-1.5-0.3-2.8-1-3.7c-0.7-1-1.7-1.5-3-1.5c-0.8,0-1.6,0.3-2.3,0.8c-0.7,0.6-1.1,1.3-1.3,2.2
		c-0.1,0.4-0.2,0.8-0.2,1v2.6c0,1.1,0.3,2.1,1,2.8s1.6,1.2,2.7,1.2c1.3,0,2.3-0.5,3-1.5C118.2,45.4,118.5,44.1,118.5,42.5 M122,42.4
		c0,2.6-0.7,4.7-2.1,6.2c-1.3,1.4-2.8,2-4.7,2c-2,0-3.5-0.7-4.4-2.2h-0.1v8.1h-3.4V39.9c0-1.7,0-3.3-0.1-5.1h3l0.2,2.5h0.1
		c1.1-1.8,2.9-2.8,5.2-2.8c1.8,0,3.3,0.7,4.6,2.2C121.4,38.1,122,40,122,42.4"/>
	<path class="st1" d="M141.9,44.3c0,1.8-0.6,3.3-1.9,4.5c-1.4,1.2-3.3,1.9-5.8,1.9c-2.3,0-4.2-0.5-5.6-1.3l0.8-2.9
		c1.5,0.9,3.2,1.4,5,1.4c1.3,0,2.3-0.3,3-0.9c0.7-0.6,1.1-1.4,1.1-2.3c0-0.9-0.3-1.6-0.9-2.2s-1.6-1.1-3-1.7
		c-3.8-1.4-5.6-3.5-5.6-6.2c0-1.8,0.7-3.2,2-4.3s3.1-1.7,5.2-1.7c1.9,0,3.6,0.3,4.9,1l-0.9,2.8c-1.2-0.7-2.6-1-4.1-1
		c-1.2,0-2.1,0.3-2.8,0.9c-0.6,0.5-0.9,1.2-0.9,1.9c0,0.8,0.3,1.5,1,2.1c0.6,0.5,1.6,1.1,3.1,1.7c1.8,0.7,3.2,1.6,4.1,2.6
		C141.5,41.5,141.9,42.8,141.9,44.3"/>
	<path class="st1" d="M153.3,37.4h-3.8v7.5c0,1.9,0.7,2.9,2,2.9c0.6,0,1.1,0,1.5-0.2l0.1,2.6c-0.7,0.3-1.6,0.4-2.7,0.4
		c-1.4,0-2.4-0.4-3.2-1.2s-1.1-2.2-1.1-4.2v-7.8h-2.3v-2.6h2.3V32l3.4-1v3.9h3.8"/>
	<path class="st1" d="M166.8,42.5c0-1.4-0.3-2.6-0.9-3.7c-0.7-1.2-1.8-1.8-3.1-1.8s-2.4,0.6-3.1,1.8c-0.6,1-0.9,2.3-0.9,3.7
		s0.3,2.6,0.9,3.7c0.7,1.2,1.8,1.8,3.1,1.8s2.3-0.6,3.1-1.9C166.5,45.2,166.8,44,166.8,42.5 M170.3,42.4c0,2.4-0.7,4.3-2,5.8
		c-1.4,1.6-3.3,2.3-5.7,2.3s-4.1-0.8-5.4-2.3c-1.3-1.5-2-3.4-2-5.7s0.7-4.4,2.1-5.9c1.4-1.5,3.3-2.3,5.6-2.3s4.1,0.8,5.5,2.3
		C169.7,38.2,170.3,40.1,170.3,42.4"/>
	<path class="st1" d="M181.5,37.8c-0.3-0.1-0.7-0.1-1.1-0.1c-1.2,0-2.1,0.5-2.8,1.4c-0.6,0.8-0.9,1.8-0.9,3v8.1h-3.4l0-10.6
		c0-1.8,0-3.4-0.1-4.9h3l0.1,3h0.1c0.4-1,0.9-1.8,1.7-2.5c0.8-0.5,1.6-0.8,2.5-0.8c0.3,0,0.6,0,0.9,0.1"/>
	<path class="st1" d="M193.6,40.9c0-1-0.2-1.9-0.7-2.6c-0.6-1-1.5-1.4-2.7-1.4c-1.1,0-2,0.5-2.7,1.4c-0.6,0.7-0.9,1.6-1,2.7H193.6
		L193.6,40.9z M196.9,41.8c0,0.6,0,1.1-0.1,1.6h-10.3c0,1.5,0.5,2.7,1.5,3.5c0.9,0.7,2,1.1,3.4,1.1c1.5,0,2.9-0.2,4.2-0.7l0.5,2.4
		c-1.5,0.6-3.2,1-5.2,1c-2.4,0-4.3-0.7-5.6-2.1s-2.1-3.3-2.1-5.7s0.6-4.3,1.9-5.8c1.3-1.7,3.1-2.5,5.4-2.5s3.9,0.8,5.1,2.5
		C196.4,38.3,196.9,39.9,196.9,41.8"/>
</g>
</svg>
