<?xml version="1.0" encoding="UTF-8"?><svg id="Layer_2" xmlns="http://www.w3.org/2000/svg" viewBox="0 0 647 647"><defs><style>.cls-1{fill:#3b2b2f;}.cls-2{stroke:#3b2b2f;stroke-miterlimit:10;stroke-width:20px;}.cls-2,.cls-3{fill:none;}</style></defs><g id="Layer_1-2"><g><rect class="cls-3" width="647" height="647"/><path class="cls-2" d="M592.15,32.7H56.46c-15.83-.35-29.21,11.65-30.58,27.42-.87,15.99,11.39,29.67,27.38,30.54,.52,.03,1.03,.04,1.55,.04h32.32l74.52,502.34c1.06,7.25,7.3,12.6,14.62,12.56H479.94c7.33,0,13.57-5.32,14.7-12.56l74.52-502.34h22.28c13.88,.16,25.99-9.38,29.08-22.92,3.36-15.66-6.61-31.08-22.27-34.44-2.01-.43-4.05-.65-6.1-.65Z"/><path class="cls-1" d="M252.35,433.1c-19.16,0-34.69-15.53-34.69-34.69,0-19.16,15.53-34.69,34.69-34.69,19.16,0,34.69,15.53,34.69,34.69s-15.39,34.56-34.46,34.69h-.24Z"/><path class="cls-1" d="M252.35,351c-19.16,0-34.69-15.53-34.69-34.69,0-19.16,15.53-34.69,34.69-34.69,19.16,0,34.69,15.53,34.69,34.69s-15.39,34.56-34.46,34.69h-.24Z"/><path class="cls-1" d="M252.35,268.89c-19.16,0-34.69-15.53-34.69-34.69,0-19.16,15.53-34.69,34.69-34.69,19.16,0,34.69,15.53,34.69,34.69s-15.39,34.56-34.46,34.69h-.24Z"/><polygon class="cls-1" points="448.8 437.53 384.08 437.53 313.83 319.86 386.69 199.59 450.54 201.09 378.55 319.63 448.8 437.53"/></g></g></svg>