<?xml version="1.0" encoding="UTF-8"?><svg id="Layer_2" xmlns="http://www.w3.org/2000/svg" height="64px" width="64px" viewBox="0 0 647 647"><defs><style>.cls-1{fill:#3b2b2f;}.cls-2{fill:none;}</style></defs><g id="Layer_1-2"><g><rect class="cls-2" width="647" height="647"/><g><path class="cls-1" d="M558.36,305.49c-1.53-4.72-2.14-7.4-3.24-9.86-6.64-14.88-13.79-29.55-19.94-44.63-3.62-8.88-8.98-11.97-18.53-11.36-13.79,.89-27.67,.16-41.51,.26-5.12,.04-10.24,.46-15.85,.72,0,20.09-.2,38.86,.25,57.62,.06,2.45,3.42,6.9,5.31,6.93,30.44,.44,60.89,.31,93.52,.31m-15.88-95.47c5.07,3.49,11.39,10.91,14.04,16.46,8.18,17.12,16.27,34.37,22.25,52.28,7.56,22.62,25,36.46,40.82,51.83,8.46,8.21,8.89,15.79,9.46,30.54,1.04,27.19,1.04,43.56,.03,64.53-.76,15.81-.65,25.79-12.86,30.86-11.33,4.7-15.84,1.77-17.79-10.21-4.36-26.74-19.67-45.57-44.35-55.71-27.88-11.46-55.15-8.21-77.73,11.93-10.1,9.01-17.44,22.14-23.22,34.7-7.14,15.5-12.45,21.03-29.25,21.06-41.26,.06-82.52,.02-123.79,.01h-26.14c-1.14,0-2.14-1.14-2.14-2.29,.05-15.23-3.15-25.89-9.55-37.08-1.3-2.28,.3-5.11,2.91-5.12,7.98-.02,20.84-.07,29.6-.15,32.01-.29,64.03-.11,96.04-.12,27.94,0,33.3-5.45,33.3-33.91,0-51.96,0-142.25,0-168.28,0-3.76,2.29-7.12,5.8-8.49,16.11-6.3,63.5-26.65,112.55,7.15"/><path class="cls-1" d="M522.52,428.65c-16.43-.07-30.02,13.36-29.94,29.61,.07,15.95,14.08,29.42,30.48,29.3,15.56-.11,29.29-13.78,29.39-29.26,.11-16.21-13.38-29.58-29.93-29.65m-.25-23.96c30.56-.25,55.14,23.11,55.58,52.83,.44,29.39-24.23,53.83-54.52,54.01-31.18,.18-56-23.54-55.97-53.5,.02-29.76,24.04-53.09,54.91-53.34"/><path class="cls-1" d="M167.51,457.91c-.07,16.4,13.35,29.76,29.77,29.63,15.6-.12,29.54-13.55,30.03-28.94,.51-16.11-13.95-30.1-30.95-29.95-15.95,.14-28.78,13.15-28.85,29.25m29.42-53.1c31.93,.03,54.74,22.56,54.65,54-.09,30.15-23.76,52.8-55.08,52.71-30.43-.09-54.62-23.93-54.48-53.71,.14-30.08,23.91-53.03,54.92-53"/><path class="cls-1" d="M121.92,458.67c1.48,0,2.67-1.16,2.75-2.64,.76-14.04,4.68-28.2,10.93-35.58,2.21-2.6,.28-6.6-3.13-6.59h-3.61c-32.01,.02-56.44,.38-88.45,.14-23.16-.17-22.71,8.61-23.15,20.19-.47,12.59-.02,23.91,22.06,24.26,1.53,.03,68.39,.2,82.61,.21"/><path class="cls-1" d="M380.75,135.47H38.71c-11.81,0-21.46,9.66-21.46,21.46v212.55c0,11.81,9.66,21.46,21.46,21.46H380.75c11.81,0,21.46-9.66,21.46-21.46V156.93c0-11.81-9.66-21.46-21.46-21.46Zm-216.49,202.1c-12.48,0-22.59-10.09-22.59-22.53s10.12-22.53,22.59-22.53,22.59,10.09,22.59,22.53-10.12,22.53-22.59,22.53Zm0-51.83c-12.48,0-22.59-10.09-22.59-22.53s10.12-22.54,22.59-22.54,22.59,10.09,22.59,22.54-10.12,22.53-22.59,22.53Zm0-51.83c-12.48,0-22.59-10.09-22.59-22.54s10.12-22.53,22.59-22.53,22.59,10.09,22.59,22.53-10.12,22.54-22.59,22.54Zm71.77,100.91l-42.4-71.61,42.36-71.6h41.75l-43.63,71.6,43.68,71.61h-41.76Z"/></g></g></g></svg>