<?xml version="1.0" encoding="UTF-8"?><svg id="Layer_2" xmlns="http://www.w3.org/2000/svg" viewBox="0 0 647 647"><defs><style>.cls-1{fill:#3b2b2f;}.cls-2{fill:none;}</style></defs><g id="Layer_1-2"><g><rect class="cls-2" width="647" height="647"/><path class="cls-1" d="M324.36,0C148.08,0,5.21,142.87,5.21,319.15s142.87,319.15,319.15,319.15,319.15-142.87,319.15-319.15S500.5,0,324.36,0Zm27.07,466.24v42.65h-51.23v-37.76c-33.27-.92-65.89-9.9-82.26-19.15l14.13-57.97c18.62,9.9,47.8,19.54,77.77,19.54,32.22,0,49.25-13.34,49.25-33.8,0-19.01-14.79-30.24-51.89-43.31-51.76-18.35-85.56-46.61-85.56-91.9,0-42.65,28.92-77.11,78.57-88.73v-43.05h51.23v39.08c29.05,1.45,50.7,7.79,66.81,15.32l-15.45,56.25c-12.28-5.81-34.6-14.79-64.7-14.79s-45.16,14.13-45.16,29.97c0,19.67,17.17,28.39,57.44,43.57,54.93,20.47,80.28,48.99,80.28,92.83,0,41.46-25.48,78.04-79.23,91.11v.13Z"/></g></g></svg>