<?xml version="1.0" encoding="utf-8"?>
<!-- Generator: Adobe Illustrator 26.3.1, SVG Export Plug-In . SVG Version: 6.00 Build 0)  -->
<svg version="1.1" id="Layer_1" xmlns="http://www.w3.org/2000/svg" xmlns:xlink="http://www.w3.org/1999/xlink" x="0px" y="0px"
	 viewBox="0 0 595.3 841.9" style="enable-background:new 0 0 595.3 841.9;" xml:space="preserve">
<g>
	<path d="M244.7,408.4c17.5,0,31.7,14.2,31.7,31.6s-14.2,31.6-31.7,31.6S213,457.4,213,440S227.2,408.4,244.7,408.4L244.7,408.4z
		 M404,266.9l-61.2,100.4L404,467.7h-58.5L286,367.3l59.4-100.4H404z M244.7,335.7c17.5,0,31.7,14.2,31.7,31.6s-14.2,31.6-31.7,31.6
		S213,384.7,213,367.3S227.2,335.7,244.7,335.7L244.7,335.7z M244.7,263c17.5,0,31.7,14.2,31.7,31.6s-14.2,31.6-31.7,31.6
		S213,311.9,213,294.5S227.2,263,244.7,263L244.7,263z"/>
</g>
<g>
	<path d="M482.3-1.5H113c-34.2,0-62,27.8-62,62v721c0,34.2,27.8,62,62,62h369.2c34.2,0,62-27.8,62-62v-721
		C544.2,26.3,516.4-1.5,482.3-1.5z M113,16.5h369.2c24.3,0,44,19.7,44,44v567.8H69V60.5C69,36.2,88.8,16.5,113,16.5z M482.3,825.4
		H113c-24.3,0-44-19.7-44-44V646.3h457.2v135.1C526.2,805.7,506.5,825.4,482.3,825.4z"/>
	<path d="M302.1,681.9c-28.6,0-52,23.3-52,52s23.3,52,52,52c28.6,0,52-23.3,52-52S330.7,681.9,302.1,681.9z M302.1,767.8
		c-18.7,0-34-15.2-34-34s15.2-34,34-34s34,15.2,34,34S320.8,767.8,302.1,767.8z"/>
</g>
</svg>
