<?xml version="1.0" encoding="utf-8"?>
<!-- Generator: Adobe Illustrator 26.3.1, SVG Export Plug-In . SVG Version: 6.00 Build 0)  -->
<svg version="1.1" id="Layer_1" xmlns="http://www.w3.org/2000/svg" xmlns:xlink="http://www.w3.org/1999/xlink" x="0px" y="0px"
	 viewBox="0 0 595.3 841.9" style="enable-background:new 0 0 595.3 841.9;" xml:space="preserve">
<style type="text/css">
	.st0{fill:none;stroke:#000000;stroke-width:12;stroke-miterlimit:10;}
</style>
<path class="st0" d="M566.3,134.5H30.6C14.8,134.1,1.4,146.1,0,161.9c-0.9,16,11.4,29.7,27.4,30.5c0.5,0,1,0,1.5,0h32.3l74.5,502.3
	c1.1,7.2,7.3,12.6,14.6,12.6h303.7c7.3,0,13.6-5.3,14.7-12.6l74.5-502.3h22.3c13.9,0.2,26-9.4,29.1-22.9
	c3.4-15.7-6.6-31.1-22.3-34.4C570.4,134.7,568.3,134.5,566.3,134.5z"/>
<path d="M226.5,534.9c-19.2,0-34.7-15.5-34.7-34.7c0-19.2,15.5-34.7,34.7-34.7c19.2,0,34.7,15.5,34.7,34.7
	c0,19.1-15.4,34.6-34.5,34.7L226.5,534.9z"/>
<path d="M226.5,452.8c-19.2,0-34.7-15.5-34.7-34.7c0-19.2,15.5-34.7,34.7-34.7c19.2,0,34.7,15.5,34.7,34.7
	c0,19.1-15.4,34.6-34.5,34.7L226.5,452.8z"/>
<path d="M226.5,370.7c-19.2,0-34.7-15.5-34.7-34.7c0-19.2,15.5-34.7,34.7-34.7c19.2,0,34.7,15.5,34.7,34.7
	c0,19.1-15.4,34.6-34.5,34.7L226.5,370.7z"/>
<polygon points="422.9,539.3 358.2,539.3 288,421.7 360.8,301.4 424.7,302.9 352.7,421.4 "/>
</svg>
