<?xml version="1.0" encoding="UTF-8"?>
<svg width="78.1644118px" height="110.391049px" viewBox="0 0 78.1644118 110.391049" version="1.1" xmlns="http://www.w3.org/2000/svg" xmlns:xlink="http://www.w3.org/1999/xlink">
    <title>multi_position_reservoir@2x</title>
    <defs>
        <rect id="path-1" x="41.6144118" y="39.0687494" width="36.55" height="32.3" rx="4"></rect>
        <mask id="mask-2" maskContentUnits="userSpaceOnUse" maskUnits="objectBoundingBox" x="0" y="0" width="36.55" height="32.3" fill="white">
            <use xlink:href="#path-1"></use>
        </mask>
    </defs>
    <g id="Filters" stroke="none" stroke-width="1" fill="none" fill-rule="evenodd">
        <g id="iMac-21.5&quot;-Copy" transform="translate(-478.757932, -1122.608951)">
            <g id="multi_position_reservoir" transform="translate(478.757932, 1122.608951)">
                <rect id="Rectangle" fill="#000000" x="0.0144117571" y="-1.13686838e-13" width="36.55" height="32.3" rx="4"></rect>
                <use id="Rectangle-Copy" stroke="#000000" mask="url(#mask-2)" stroke-width="2" stroke-dasharray="2" xlink:href="#path-1"></use>
                <path d="M32.0464998,39.2980492 C32.874927,39.2980492 33.624927,39.6338357 34.1678202,40.1767289 C34.7107134,40.7196221 35.0464998,41.4696221 35.0464998,42.2980492 L35.0464998,92.367799 C35.0464998,97.0686397 33.1411077,101.324452 30.0605054,104.405054 C26.9799031,107.485657 22.7240906,109.391049 18.0232499,109.391049 C13.3224093,109.391049 9.06659678,107.485657 5.98599447,104.405054 C2.90539215,101.324452 1,97.0686397 1,92.367799 L1,42.2980492 C1,41.4696221 1.33578644,40.7196221 1.87867966,40.1767289 C2.42157288,39.6338357 3.17157288,39.2980492 4,39.2980492 Z" id="Rectangle" stroke="#979797" stroke-width="2"></path>
                <circle id="Oval" stroke="#979797" fill="#D8D8D8" cx="17.6619789" cy="92.0929014" r="10.4018524"></circle>
                <path id="Path-2" d="M63.3126672,24.2258283 L63.312,25.568 L67.3126672,25.5687494 L62.8126672,34.5687494 L58.3126672,25.5687494 L62.312,25.568 L62.3126672,24.2258283 L63.3126672,24.2258283 Z M63.3126672,20.2258283 L63.3126672,22.2258283 L62.3126672,22.2258283 L62.3126672,20.2258283 L63.3126672,20.2258283 Z M63.3125256,16.2222027 L63.3126672,18.2258283 L62.3126672,18.2258284 L62.3125442,16.2282884 L63.3125256,16.2222027 Z M62.0972541,12.1741051 C62.4892813,12.7746553 62.7936655,13.4288357 62.9996866,14.1183161 L62.0415462,14.4046147 C61.863166,13.8076388 61.599553,13.2410837 61.2598758,12.7207289 L62.0972541,12.1741051 Z M58.8366146,9.40346527 C59.4936387,9.69325728 60.1052546,10.0763525 60.6531202,10.5396774 L60.007384,11.303238 C59.5323588,10.9015136 59.0022527,10.5694733 58.4330578,10.3184199 L58.8366146,9.40346527 Z M55.8126672,8.76874941 C56.1300614,8.76874941 56.4451361,8.78849299 56.7566294,8.82763693 L56.6319447,9.81983333 C56.3617844,9.78588354 56.0883523,9.76874941 55.8126672,9.76874941 L54.6961526,9.76874941 L54.6961526,8.76874941 L55.8126672,8.76874941 Z M36.6961526,8.76874941 L36.6961526,9.76874941 L34.6961526,9.76874941 L34.6961526,8.76874941 L36.6961526,8.76874941 Z M40.6961526,8.76874941 L40.6961526,9.76874941 L38.6961526,9.76874941 L38.6961526,8.76874941 L40.6961526,8.76874941 Z M44.6961526,8.76874941 L44.6961526,9.76874941 L42.6961526,9.76874941 L42.6961526,8.76874941 L44.6961526,8.76874941 Z M48.6961526,8.76874941 L48.6961526,9.76874941 L46.6961526,9.76874941 L46.6961526,8.76874941 L48.6961526,8.76874941 Z M52.6961526,8.76874941 L52.6961526,9.76874941 L50.6961526,9.76874941 L50.6961526,8.76874941 L52.6961526,8.76874941 Z" fill="#0E0E0E" fill-rule="nonzero"></path>
            </g>
        </g>
    </g>
</svg>