<?xml version="1.0" encoding="utf-8"?>
<!-- Generator: Adobe Illustrator 26.3.1, SVG Export Plug-In . SVG Version: 6.00 Build 0)  -->
<svg version="1.1" id="Layer_1" xmlns="http://www.w3.org/2000/svg" xmlns:xlink="http://www.w3.org/1999/xlink" x="0px" y="0px"
	 viewBox="0 0 633.6 530" style="enable-background:new 0 0 633.6 530;" xml:space="preserve">
<style type="text/css">
	.st0{fill:none;}
	.st1{fill:#3B2B2F;}
	.st2{fill:none;stroke:#3B2B2F;stroke-width:20;stroke-miterlimit:10;}
</style>
<g>
	<rect x="767.3" y="45.7" class="st0" width="647" height="647"/>
	<g>
		<path class="st1" d="M1325.6,351.2c-1.5-4.7-2.1-7.4-3.2-9.9c-6.6-14.9-13.8-29.5-19.9-44.6c-3.6-8.9-9-12-18.5-11.4
			c-13.8,0.9-27.7,0.2-41.5,0.3c-5.1,0-10.2,0.5-15.8,0.7c0,20.1-0.2,38.9,0.2,57.6c0.1,2.5,3.4,6.9,5.3,6.9
			C1262.6,351.3,1293,351.2,1325.6,351.2 M1309.8,255.7c5.1,3.5,11.4,10.9,14,16.5c8.2,17.1,16.3,34.4,22.3,52.3
			c7.6,22.6,25,36.5,40.8,51.8c8.5,8.2,8.9,15.8,9.5,30.5c1,27.2,1,43.6,0,64.5c-0.8,15.8-0.6,25.8-12.9,30.9
			c-11.3,4.7-15.8,1.8-17.8-10.2c-4.4-26.7-19.7-45.6-44.3-55.7c-27.9-11.5-55.1-8.2-77.7,11.9c-10.1,9-17.4,22.1-23.2,34.7
			c-7.1,15.5-12.4,21-29.2,21.1c-41.3,0.1-82.5,0-123.8,0l-26.1,0c-1.1,0-2.1-1.2-2.1-2.3c0-15.2-3.1-25.9-9.5-37.1
			c-1.3-2.3,0.3-5.1,2.9-5.1c8,0,20.8-0.1,29.6-0.1c32-0.3,64-0.1,96-0.1c27.9,0,33.3-5.4,33.3-33.9c0-52,0-142.3,0-168.3
			c0-3.8,2.3-7.1,5.8-8.5C1213.3,242.3,1260.7,221.9,1309.8,255.7"/>
		<path class="st1" d="M1289.8,474.4c-16.4-0.1-30,13.4-29.9,29.6c0.1,16,14.1,29.4,30.5,29.3c15.6-0.1,29.3-13.8,29.4-29.3
			C1319.8,487.8,1306.3,474.4,1289.8,474.4 M1289.5,450.4c30.6-0.2,55.1,23.1,55.6,52.8c0.4,29.4-24.2,53.8-54.5,54
			c-31.2,0.2-56-23.5-56-53.5C1234.7,474,1258.7,450.7,1289.5,450.4"/>
		<path class="st1" d="M934.8,503.6c-0.1,16.4,13.4,29.8,29.8,29.6c15.6-0.1,29.5-13.5,30-28.9c0.5-16.1-13.9-30.1-31-29.9
			C947.7,474.5,934.9,487.5,934.8,503.6 M964.2,450.5c31.9,0,54.7,22.6,54.6,54c-0.1,30.2-23.8,52.8-55.1,52.7
			c-30.4-0.1-54.6-23.9-54.5-53.7C909.4,473.4,933.2,450.5,964.2,450.5"/>
		<path class="st1" d="M889.2,504.4c1.5,0,2.7-1.2,2.7-2.6c0.8-14,4.7-28.2,10.9-35.6c2.2-2.6,0.3-6.6-3.1-6.6l-3.6,0
			c-32,0-56.4,0.4-88.5,0.1c-23.2-0.2-22.7,8.6-23.1,20.2c-0.5,12.6,0,23.9,22.1,24.3C808.1,504.2,875,504.4,889.2,504.4"/>
		<path class="st1" d="M1148,181.2H806c-11.8,0-21.5,9.7-21.5,21.5v212.5c0,11.8,9.7,21.5,21.5,21.5h342c11.8,0,21.5-9.7,21.5-21.5
			V202.6C1169.5,190.8,1159.8,181.2,1148,181.2z M931.5,383.3c-12.5,0-22.6-10.1-22.6-22.5c0-12.4,10.1-22.5,22.6-22.5
			s22.6,10.1,22.6,22.5C954.1,373.2,944,383.3,931.5,383.3z M931.5,331.4c-12.5,0-22.6-10.1-22.6-22.5c0-12.4,10.1-22.5,22.6-22.5
			s22.6,10.1,22.6,22.5C954.1,321.4,944,331.4,931.5,331.4z M931.5,279.6c-12.5,0-22.6-10.1-22.6-22.5c0-12.4,10.1-22.5,22.6-22.5
			s22.6,10.1,22.6,22.5C954.1,269.5,944,279.6,931.5,279.6z M1003.3,380.5l-42.4-71.6l42.4-71.6h41.8l-43.6,71.6l43.7,71.6H1003.3z"
			/>
	</g>
</g>
<g>
	<rect x="1511.3" y="45.7" class="st0" width="647" height="647"/>
	<path class="st1" d="M1835.6,45.7c-176.3,0-319.1,142.9-319.1,319.1S1659.4,684,1835.6,684s319.1-142.9,319.1-319.1
		S2011.8,45.7,1835.6,45.7z M1862.7,511.9v42.6h-51.2v-37.8c-33.3-0.9-65.9-9.9-82.3-19.1l14.1-58c18.6,9.9,47.8,19.5,77.8,19.5
		c32.2,0,49.3-13.3,49.3-33.8c0-19-14.8-30.2-51.9-43.3c-51.8-18.4-85.6-46.6-85.6-91.9c0-42.6,28.9-77.1,78.6-88.7v-43h51.2v39.1
		c29,1.5,50.7,7.8,66.8,15.3l-15.4,56.3c-12.3-5.8-34.6-14.8-64.7-14.8c-30.1,0-45.2,14.1-45.2,30c0,19.7,17.2,28.4,57.4,43.6
		c54.9,20.5,80.3,49,80.3,92.8c0,41.5-25.5,78-79.2,91.1V511.9z"/>
</g>
<image style="overflow:visible;" width="209" height="247" xlink:href="D4E7E16A.jpg"  transform="matrix(1 0 0 1 2074.2808 -547.1027)">
</image>
<g>
	<rect x="2270.9" y="45.7" class="st0" width="647" height="647"/>
	<g>
		<g>
			<path class="st1" d="M2546.9,359.7c13.1,0,23.7,10.6,23.7,23.5c0,12.9-10.6,23.5-23.7,23.5s-23.7-10.6-23.7-23.5
				C2523.2,370.3,2533.8,359.7,2546.9,359.7L2546.9,359.7z M2665.6,254.1L2620,329l45.6,74.9H2622l-44.3-74.9l44.3-74.9H2665.6z
				 M2546.9,305.4c13.1,0,23.7,10.6,23.7,23.5s-10.6,23.5-23.7,23.5s-23.7-10.6-23.7-23.5S2533.8,305.4,2546.9,305.4L2546.9,305.4z
				 M2546.9,251.2c13.1,0,23.7,10.6,23.7,23.5c0,12.9-10.6,23.5-23.7,23.5s-23.7-10.6-23.7-23.5
				C2523.2,261.8,2533.8,251.2,2546.9,251.2L2546.9,251.2z"/>
		</g>
	</g>
	<g>
		<g>
			<path class="st1" d="M2732.1,54h-275.3c-25.5,0-46.2,20.7-46.2,46.2v537.6c0,25.5,20.7,46.2,46.2,46.2h275.3
				c25.5,0,46.2-20.7,46.2-46.2V100.2C2778.3,74.7,2757.6,54,2732.1,54z M2456.8,67.4h275.3c18.1,0,32.8,14.7,32.8,32.8v423.4H2424
				V100.2C2424,82.1,2438.7,67.4,2456.8,67.4z M2732.1,670.6h-275.3c-18.1,0-32.8-14.7-32.8-32.8V537h340.9v100.8
				C2764.9,655.9,2750.2,670.6,2732.1,670.6z"/>
			<path class="st1" d="M2597.7,563.6c-21.4,0-38.7,17.4-38.7,38.7s17.4,38.7,38.7,38.7c21.4,0,38.7-17.4,38.7-38.7
				S2619.1,563.6,2597.7,563.6z M2597.7,627.6c-14,0-25.3-11.4-25.3-25.3c0-14,11.4-25.3,25.3-25.3s25.3,11.4,25.3,25.3
				C2623,616.3,2611.7,627.6,2597.7,627.6z"/>
		</g>
	</g>
</g>
<g>
	<rect x="3030.6" y="45.7" class="st0" width="647" height="647"/>
	<g>
		<path class="st1" d="M3523.1,137.4h-56.3v-41c0-7.9-6.4-14.3-14.3-14.3h-64.9c-7.9,0-14.3,6.4-14.3,14.3v41h-111.7v-41
			c0-7.9-6.4-14.3-14.3-14.3h-64.9c-7.9,0-14.3,6.4-14.3,14.3v41h-53.4c-14.5,0-26.2,11.7-26.2,26.2v284.9L3203,563.1h102.2
			c7.5,0,13.6-6.1,13.6-13.6c0-7.5-6.1-13.6-13.6-13.6h-82.6V432.3c0-7.3-6-13.3-13.3-13.3h-93.8V294.4h406.6v18.1
			c0,7.5,6.1,13.6,13.6,13.6c7.5,0,13.6-6.1,13.6-13.6V163.6C3549.3,149.1,3537.6,137.4,3523.1,137.4z M3195.4,517l-70.8-70.8h70.8
			V517z M3400.3,109.2h39.2v51.4h-39.2V109.2L3400.3,109.2z M3195,109.2h39.2v51.4H3195V109.2z"/>
		<path class="st1" d="M3498.8,386c65.6,0,119,52.6,119,117.2s-53.4,117.2-119,117.2s-119-52.6-119-117.2S3433.1,386,3498.8,386
			 M3498.8,358.9c-80.7,0-146.2,64.7-146.2,144.4s65.5,144.4,146.2,144.4S3645,583,3645,503.3S3579.5,358.9,3498.8,358.9
			L3498.8,358.9z"/>
	</g>
	<g>
		<path class="st1" d="M3549.2,577.8c-3.2,0-6.5-1.2-9-3.6l-51.8-49.4c-2.6-2.5-4.1-5.9-4.1-9.5v-84.8c0-7.2,5.9-13.1,13.1-13.1
			c7.2,0,13.1,5.9,13.1,13.1v79.2l47.8,45.5c5.2,5,5.4,13.3,0.4,18.5C3556.1,576.4,3552.6,577.8,3549.2,577.8z"/>
	</g>
</g>
<g>
	<rect x="3854.6" y="45.7" class="st0" width="647" height="647"/>
	<path class="st2" d="M4446.7,78.4H3911c-15.8-0.4-29.2,11.6-30.6,27.4c-0.9,16,11.4,29.7,27.4,30.5c0.5,0,1,0,1.5,0h32.3
		l74.5,502.3c1.1,7.2,7.3,12.6,14.6,12.6h303.7c7.3,0,13.6-5.3,14.7-12.6l74.5-502.3h22.3c13.9,0.2,26-9.4,29.1-22.9
		c3.4-15.7-6.6-31.1-22.3-34.4C4450.8,78.6,4448.8,78.4,4446.7,78.4z"/>
	<path class="st1" d="M4106.9,478.8c-19.2,0-34.7-15.5-34.7-34.7c0-19.2,15.5-34.7,34.7-34.7c19.2,0,34.7,15.5,34.7,34.7
		c0,19.1-15.4,34.6-34.5,34.7L4106.9,478.8z"/>
	<path class="st1" d="M4106.9,396.7c-19.2,0-34.7-15.5-34.7-34.7c0-19.2,15.5-34.7,34.7-34.7c19.2,0,34.7,15.5,34.7,34.7
		c0,19.1-15.4,34.6-34.5,34.7L4106.9,396.7z"/>
	<path class="st1" d="M4106.9,314.6c-19.2,0-34.7-15.5-34.7-34.7c0-19.2,15.5-34.7,34.7-34.7c19.2,0,34.7,15.5,34.7,34.7
		c0,19.1-15.4,34.6-34.5,34.7L4106.9,314.6z"/>
	<polygon class="st1" points="4303.4,483.2 4238.6,483.2 4168.4,365.6 4241.3,245.3 4305.1,246.8 4233.1,365.3 	"/>
</g>
<image style="overflow:visible;" width="126" height="124" xlink:href="D4E7E16E.jpg"  transform="matrix(6.3438 0 0 6.3438 3391.6667 1172)">
</image>
<g>
	<g>
		<path d="M3853.2,1488.3V1717l183.8-88.8v-230.8l-70.1,34v68.9c0,7-4.7,13.2-11.4,15.1l-2,0.6c-5.5,1.6-11.2-1.6-12.8-7.1
			c-0.3-0.9-0.4-1.8-0.4-2.8v-61.3L3853.2,1488.3z"/>
		<polygon points="3951.5,1409.8 4023.2,1372.5 3836.6,1282.3 3769,1315.1 		"/>
		<polygon points="3743.3,1327.5 3650.4,1372.5 3836.8,1469.2 3926.6,1422.6 		"/>
	</g>
	<path d="M3632.8,1399.7v230.7l185.8,95v-231.8L3632.8,1399.7z M3703.5,1603.4c-1.8,10.8-11.1,16.8-20.9,13.3l-0.1,0
		c-9.8-3.6-16.2-15.3-14.3-26.2c1.8-10.9,11.2-16.8,21-13.2C3698.9,1580.8,3705.4,1592.5,3703.5,1603.4z M3707.6,1554.8
		c-1.8,10.8-11.1,16.8-20.9,13.3l-0.1,0c-9.8-3.6-16.2-15.3-14.3-26.2c1.8-10.9,11.2-16.8,21-13.2
		C3703,1532.2,3709.4,1543.9,3707.6,1554.8z M3707.6,1506.1c-1.8,10.8-11.1,16.8-20.9,13.3l-0.1,0c-9.8-3.6-16.2-15.3-14.3-26.2
		c1.8-10.9,11.2-16.8,21-13.2C3703,1483.5,3709.4,1495.3,3707.6,1506.1z M3767.8,1651.7l-32.9-12l-24.5-79.9l48.6-54.7l32.4,12.7
		l-48,53.9L3767.8,1651.7z"/>
</g>
<g>
	<rect x="4719" y="45.7" class="st0" width="647" height="647"/>
	<g>
		<g>
			<path class="st1" d="M5076,343.2v317.6l255.2-123.3V217l-97.3,47.2v95.6c0,9.7-6.5,18.3-15.8,20.9l-2.8,0.8
				c-7.6,2.2-15.6-2.3-17.7-9.9c-0.4-1.3-0.5-2.6-0.5-3.9v-85.1L5076,343.2z"/>
			<polygon class="st1" points="5212.4,234.2 5312,182.5 5053,57.3 4959.1,102.8 			"/>
			<polygon class="st1" points="4923.5,120.1 4794.5,182.5 5053.3,316.7 5177.9,252.1 			"/>
		</g>
		<path class="st1" d="M4770,220.2v320.3l258,131.8V350.6L4770,220.2z M4868.2,503c-2.5,15-15.5,23.3-29,18.4l-0.2-0.1
			c-13.5-4.9-22.4-21.2-19.9-36.3c2.5-15.1,15.6-23.3,29.1-18.4C4861.9,471.6,4870.8,487.9,4868.2,503z M4873.9,435.5
			c-2.5,15-15.5,23.3-29,18.4l-0.2-0.1c-13.5-4.9-22.4-21.2-19.9-36.3c2.5-15.1,15.6-23.3,29.1-18.4
			C4867.5,404.1,4876.4,420.4,4873.9,435.5z M4873.9,368c-2.5,15-15.5,23.3-29,18.4l-0.2-0.1c-13.5-4.9-22.4-21.2-19.9-36.3
			c2.5-15.1,15.6-23.3,29.1-18.4C4867.5,336.6,4876.4,352.9,4873.9,368z M4957.4,570.1l-45.7-16.7l-34-110.9l67.5-76l44.9,17.7
			l-66.6,74.9L4957.4,570.1z"/>
	</g>
</g>
</svg>
