<?xml version="1.0" encoding="UTF-8"?>
<svg width="97px" height="42.6800963px" viewBox="0 0 97 42.6800963" version="1.1" xmlns="http://www.w3.org/2000/svg" xmlns:xlink="http://www.w3.org/1999/xlink">
    <title>digital_clock_icon@2x</title>
    <defs>
        <polygon id="path-1" points="-1.88553219e-15 0 97 0 97 42.6800963 -1.88553219e-15 42.6800963"></polygon>
    </defs>
    <g id="Filters" stroke="none" stroke-width="1" fill="none" fill-rule="evenodd">
        <g id="iMac-21.5&quot;-Copy" transform="translate(-441.000777, -453.485486)">
            <g id="digital_clock_icon" transform="translate(441.000777, 453.485486)">
                <g id="Group-3">
                    <mask id="mask-2" fill="white">
                        <use xlink:href="#path-1"></use>
                    </mask>
                    <g id="Clip-2"></g>
                    <path d="M6.27595012,3.96309456 C5.80638664,3.96309456 5.36561527,4.14254768 5.03390894,4.46271063 C4.70240163,4.7827409 4.5165134,5.20851915 4.5165134,5.66163 L4.5165134,37.0184265 C4.5165134,37.4716037 4.70240163,37.897382 5.03390894,38.2174122 C5.36561527,38.5375752 5.80638664,38.7170283 6.27595012,38.7170283 L90.7240698,38.7170283 C91.1936333,38.7170283 91.6344046,38.5375752 91.966111,38.2174122 C92.2976183,37.897382 92.4835065,37.4716037 92.4835065,37.0184265 L92.4835065,5.66163 C92.4835065,5.20851915 92.2976183,4.7827409 91.966111,4.46271063 C91.6344046,4.14254768 91.1936333,3.96309456 90.7240698,3.96309456 L6.27595012,3.96309456 Z M4.36498995,0 L92.63503,0 C93.8374654,0 94.9290446,0.490593663 95.7193018,1.28078448 C96.5094926,2.07097531 97.0000199,3.16281986 97.0000199,4.36505629 L97.0000199,38.3150666 C97.0000199,39.517303 96.5094926,40.6091476 95.7193018,41.3993384 C94.9290446,42.1895292 93.8374654,42.6801229 92.63503,42.6801229 L87.3523413,42.6801229 L75.6078142,42.6801229 L21.3922057,42.6801229 L9.64767863,42.6801229 L4.36498995,42.6801229 C3.1625545,42.6801229 2.07097531,42.1895292 1.28071814,41.3993384 C0.490527322,40.6091476 0,39.517303 0,38.3150666 L0,4.36505629 C0,3.16281986 0.490527322,2.07097531 1.28071814,1.28078448 C2.07097531,0.490593663 3.1625545,0 4.36498995,0 L4.36498995,0 Z" id="Fill-1" fill="#444444" mask="url(#mask-2)"></path>
                </g>
                <path d="M69.2271909,12.6439421 L69.2271909,18.9951896 L67.2225568,21.005927 L66.5543012,20.3376714 L66.5543012,11.6386066 L69.2271909,12.6439421 Z M77.2581328,11.9757529 L69.2579069,11.9757529 L66.5849509,10.970351 C66.8056683,10.081378 67.363532,9.52358066 68.258542,9.30279693 L78.2635347,9.30279693 L77.2581328,11.9757529 Z M66.5543012,31.0353996 L66.5543012,22.3424382 L67.2225568,21.6741826 L69.2271909,23.6788166 L69.2271909,30.0361675 L66.5543012,31.0353996 Z M78.2635347,33.3772463 L68.221789,33.3772463 C67.3328823,33.1565289 66.7750186,32.5987316 66.5543012,31.7036552 L69.2271909,30.7043567 L77.2581328,30.7043567 L78.2635347,33.3772463 Z M79.9309561,21.6741826 L80.599278,22.3424382 L80.599278,31.7098249 C80.3785606,32.5987316 79.8206306,33.1565289 78.931724,33.3772463 L77.9263221,30.7043567 L77.9263221,23.68492 L79.9309561,21.6741826 Z M61.208522,18.9951896 L61.208522,11.9757529 L62.2139239,9.30279693 C63.1027642,9.52358066 63.6607606,10.081378 63.8814116,10.970351 L63.8814116,20.3376714 L63.2131561,21.005927 L61.208522,18.9951896 Z M52.5093908,12.6439421 L52.5093908,18.9951896 L50.5046241,21.005927 L49.8364349,20.3376714 L49.8364349,11.6386066 L52.5093908,12.6439421 Z M60.5402664,11.9757529 L52.5400405,11.9757529 L49.8671509,10.970351 C50.0878019,10.081378 50.645732,9.52358066 51.540742,9.30279693 L61.5456683,9.30279693 L60.5402664,11.9757529 Z M49.8364349,31.0353996 L49.8364349,22.3424382 L50.5046241,21.6741826 L52.5093908,23.6788166 L52.5093908,30.0361675 L49.8364349,31.0353996 Z M61.5456683,33.3772463 L51.5038562,33.3772463 C50.615016,33.1565289 50.0571522,32.5987316 49.8364349,31.7036552 L52.5093908,30.7043567 L60.5402664,30.7043567 L61.5456683,33.3772463 Z M63.2131561,21.6741826 L63.8814116,22.3424382 L63.8814116,31.7098249 C63.6607606,32.5987316 63.1027642,33.1565289 62.2139239,33.3772463 L61.208522,30.7043567 L61.208522,23.68492 L63.2131561,21.6741826 Z M38.8077301,17.3276355 L41.4806197,17.3276355 L41.4806197,14.6547459 L38.8077301,14.6547459 L38.8077301,17.3276355 Z M38.8077301,33.3772463 L41.4806197,33.3772463 L41.4806197,30.7042904 L38.8077301,30.7042904 L38.8077301,33.3772463 Z M27.7728556,18.9951896 L27.7728556,11.9757529 L28.7782575,9.30279693 C29.6671641,9.52358066 30.2250278,10.081378 30.4457452,10.970351 L30.4457452,20.3376714 L29.7774896,21.005927 L27.7728556,18.9951896 Z M19.073658,12.6439421 L19.073658,18.9951896 L17.069024,21.005927 L16.4007021,20.3376714 L16.4007021,11.6386066 L19.073658,12.6439421 Z M27.1046,11.9757529 L19.104374,11.9757529 L16.4314181,10.970351 C16.6521355,10.081378 17.2099992,9.52358066 18.1050092,9.30279693 L28.1100019,9.30279693 L27.1046,11.9757529 Z M29.7774896,21.6741826 L30.4457452,22.3424382 L30.4457452,31.7036552 C30.2250278,32.5987316 29.6671641,33.1565289 28.7782575,33.3772463 L27.7728556,30.7043567 L27.7728556,23.6788166 L29.7774896,21.6741826 Z M77.9263221,18.9951896 L77.9263221,11.9757529 L78.931724,9.30279693 C79.8206306,9.52358066 80.3785606,10.081378 80.599278,10.970351 L80.599278,20.3376714 L79.9309561,21.005927 L77.9263221,18.9951896 Z" id="Fill-4" fill="#444444"></path>
            </g>
        </g>
    </g>
</svg>