<?xml version="1.0" encoding="UTF-8"?>
<svg width="50.6073091px" height="102px" viewBox="0 0 50.6073091 102" version="1.1" xmlns="http://www.w3.org/2000/svg" xmlns:xlink="http://www.w3.org/1999/xlink">
    <title>icon-BrewOverIce@2x</title>
    <g id="Filters" stroke="none" stroke-width="1" fill="none" fill-rule="evenodd">
        <g id="iMac-21.5&quot;-Copy" transform="translate(-464.197122, -941.692214)" fill="#000000" fill-rule="nonzero">
            <g id="icon-BrewOverIce" transform="translate(464.197122, 941.692214)">
                <path d="M47.6824914,22.4581163 L33.3719759,22.4581163 L38.3762666,2.07221628 C38.5342968,1.44009535 38.1480007,0.790415503 37.5158798,0.649944185 L35.0225139,0.0353821698 C34.3903929,-0.122648063 33.7407131,0.263648061 33.6002418,0.895768991 L28.2798906,22.4581163 L2.92481774,22.4581163 C1.22160301,22.4581163 -0.130433423,23.8979473 0.010037895,25.601162 L5.69912627,99.2959271 C5.82203867,100.805994 7.08628053,102 8.61390611,102 L44.679917,102 L50.5972712,25.6187209 C50.7377425,23.9155062 49.3857061,22.4756752 47.6824914,22.4581163 L47.6824914,22.4581163 Z M28.8593348,49.8851411 L20.9051464,51.0089116 L19.7813759,43.0547233 L27.7355643,41.9309527 L28.8593348,49.8851411 Z M28.3325674,64.7575419 L20.378379,65.8813124 L19.2546084,57.927124 L27.2087968,56.8033535 L28.3325674,64.7575419 Z M5.43574255,32.3789031 L5.08456425,28.3227938 C5.04944642,27.7784674 5.45330146,27.3219357 5.99762782,27.3219357 L27.1034433,27.3219357 L25.6636123,33.221731 L6.34880611,33.221731 C5.87471541,33.221731 5.47086038,32.8705527 5.43574255,32.3789031 L5.43574255,32.3789031 Z M17.4635991,39.2444388 L15.1458224,46.9528023 L7.43745883,44.6350256 L9.75523557,36.926662 L17.4635991,39.2444388 L17.4635991,39.2444388 Z M6.40148286,55.5742295 L11.7569518,49.5690806 L17.7621007,54.9245496 L12.4066317,60.9296984 L6.40148286,55.5742295 Z M7.98178518,71.324576 L12.5119852,64.6873062 L19.1492549,69.2175062 L14.6190549,75.854776 L7.98178518,71.324576 L7.98178518,71.324576 Z M25.7514069,81.9477194 L18.7980767,77.9267279 L22.8190681,70.9733977 L29.7723984,74.9943891 L25.7514069,81.9477194 Z M33.1612689,75.9074527 L31.493172,68.0410589 L39.3595658,66.372962 L41.0276627,74.2393558 L33.1612689,75.9074527 L33.1612689,75.9074527 Z M33.0559154,60.6311969 L32.5115891,52.6067729 L40.5360131,52.0624465 L41.0803394,60.0868705 L33.0559154,60.6311969 Z M40.4306596,46.9528023 L32.7398549,44.6350256 L35.0576317,36.926662 L42.7659953,39.2444388 L40.4306596,46.9528023 Z M45.1540077,32.396462 C45.1188898,32.8705527 44.7150348,33.221731 44.2409441,33.221731 L30.7030208,33.221731 L32.1428518,27.3219357 L44.5745635,27.3219357 C45.1188898,27.3219357 45.5403038,27.7784674 45.487627,28.3227938 L45.1540077,32.396462 L45.1540077,32.396462 Z" id="Shape"></path>
            </g>
        </g>
    </g>
</svg>