<?xml version="1.0" encoding="UTF-8"?>
<svg width="50.3872414px" height="94px" viewBox="0 0 50.3872414 94" version="1.1" xmlns="http://www.w3.org/2000/svg" xmlns:xlink="http://www.w3.org/1999/xlink">
    <title>icon-MilkFrother@2x</title>
    <g id="Filters" stroke="none" stroke-width="1" fill="none" fill-rule="evenodd">
        <g id="iMac-21.5&quot;-Copy" transform="translate(-464.307156, -769.456922)" fill="#000000" fill-rule="nonzero">
            <g id="icon-MilkFrother" transform="translate(464.307156, 769.456922)">
                <path d="M48.572069,80.4834483 L48.5072414,17.4710345 L47.3565517,15.1696552 L47.307931,5.05655172 C48.7503448,4.58655172 49.3824138,3.95448276 49.4148276,2.47965517 C49.4634483,1.28034483 48.6206897,0.226896552 47.4375862,0 L2.98206897,0 C1.79896552,0.210689655 0.956206897,1.26413793 0.98862069,2.47965517 C0.98862069,3.95448276 1.68551724,4.58655172 3.11172414,5.05655172 L3.06310345,15.1696552 L1.91241379,17.4710345 L1.83137931,80.4834483 C0.842758621,80.9372414 0.145862069,81.8772414 0,82.9631034 L0,90.5317241 C0.162068966,92.2658621 1.45862069,93.6758621 3.17655172,94 L47.2106897,94 C48.9286207,93.692069 50.2251724,92.2658621 50.3872414,90.5317241 L50.3872414,82.9631034 C50.2413793,81.8610345 49.5606897,80.9372414 48.572069,80.4834483 L48.572069,80.4834483 Z M8.20068966,5.21862069 L42.2027586,5.21862069 L42.2027586,14.1648276 L8.20068966,14.1648276 L8.20068966,5.21862069 Z M24.9748276,72.3475862 C21.15,72.1855172 18.1355172,69.0251724 18.1355172,65.2003448 C18.1355172,61.3431034 21.5713793,58.1989655 25.3962069,58.0531034 C29.2372414,58.1989655 32.2841379,61.3593103 32.2841379,65.2003448 C32.2841379,69.0413793 28.7672414,72.1693103 24.9748276,72.3475862 Z M45.282069,88.83 L5.12137931,88.83 L5.12137931,84.9727586 L45.3306897,84.9727586 L45.282069,88.83 L45.282069,88.83 Z" id="Shape"></path>
                <path d="M25.1855172,60.3706897 C22.4951724,60.3706897 20.3072414,62.5586207 20.3072414,65.2489655 C20.3072414,67.9393103 22.4951724,70.1272414 25.1855172,70.1272414 C27.8758621,70.1272414 30.0637931,67.9393103 30.0637931,65.2489655 L30.0637931,65.2489655 C30.0637931,62.5586207 27.8758621,60.3706897 25.1855172,60.3706897 L25.1855172,60.3706897 Z M25.1855172,67.7448276 C23.807931,67.7448276 22.6896552,66.6103448 22.6896552,65.2327586 C22.6896552,63.8551724 23.8241379,62.7368966 25.2017241,62.7368966 C26.5793103,62.7368966 27.6975862,63.8551724 27.6975862,65.2489655 C27.7137931,66.6265517 26.5793103,67.7448276 25.1855172,67.7448276 L25.1855172,67.7448276 L25.1855172,67.7448276 Z" id="Shape"></path>
            </g>
        </g>
    </g>
</svg>