 <svg viewBox="0 0 61.44 62.44" width="100%" height="100%" >
          <g class="filled">
            <path d="M48,6.11h-6.22V1.58c0-.87-.71-1.58-1.58-1.58h-7.17c-.87,0-1.58,.71-1.58,1.58V6.11h-12.33V1.58c0-.87-.71-1.58-1.58-1.58h-7.17c-.87,0-1.58,.71-1.58,1.58V6.11H2.89c-1.6,0-2.89,1.29-2.89,2.89v31.45l12.66,12.66h11.28c.83,0,1.5-.67,1.5-1.5s-.67-1.5-1.5-1.5H14.82v-11.44c0-.81-.66-1.47-1.47-1.47H3v-13.76H47.89v2c0,.83,.67,1.5,1.5,1.5s1.5-.67,1.5-1.5V9c0-1.6-1.29-2.89-2.89-2.89ZM11.82,48.02l-7.82-7.82h7.82v7.82ZM34.44,3h4.33v5.67h-4.33V3Zm-22.67,0h4.33v5.67h-4.33V3Z"/>
            <path d="M45.31,33.56c7.24,0,13.14,5.81,13.14,12.94s-5.89,12.94-13.14,12.94-13.14-5.81-13.14-12.94,5.89-12.94,13.14-12.94m0-3c-8.91,0-16.14,7.14-16.14,15.94s7.23,15.94,16.14,15.94,16.14-7.14,16.14-15.94-7.23-15.94-16.14-15.94h0Z"/>
          </g>
      </svg>