<svg viewBox="0 0 48.33 48.33" width="100%" height="100%">
          <path
            class="filled" 
            d="M24.17,0C10.82,0,0,10.82,0,24.17s10.82,24.17,24.17,24.17,24.17-10.82,24.17-24.17S37.51,0,24.17,0Zm2.05,35.31v3.23h-3.88v-2.86c-2.52-.07-4.99-.75-6.23-1.45l1.07-4.39c1.41,.75,3.62,1.48,5.89,1.48,2.44,0,3.73-1.01,3.73-2.56,0-1.44-1.12-2.29-3.93-3.28-3.92-1.39-6.48-3.53-6.48-6.96,0-3.23,2.19-5.84,5.95-6.72v-3.26h3.88v2.96c2.2,.11,3.84,.59,5.06,1.16l-1.17,4.26c-.93-.44-2.62-1.12-4.9-1.12s-3.42,1.07-3.42,2.27c0,1.49,1.3,2.15,4.35,3.3,4.16,1.55,6.08,3.71,6.08,7.03,0,3.14-1.93,5.91-6,6.9Z"/>
</svg>