<?xml version="1.0" encoding="utf-8"?>
<!-- Generator: Adobe Illustrator 25.3.1, SVG Export Plug-In . SVG Version: 6.00 Build 0)  -->
<svg version="1.1" id="Layer_1" xmlns="http://www.w3.org/2000/svg" xmlns:xlink="http://www.w3.org/1999/xlink" x="0px" y="0px"
	 viewBox="0 0 886.9 330" style="enable-background:new 0 0 886.9 330;" xml:space="preserve">
<style type="text/css">
	.st0{fill:#3A2B2E;}
	.st1{fill-rule:evenodd;clip-rule:evenodd;fill:#FFFFFF;}
	.st2{clip-path:url(#SVGID_2_);}
	.st3{fill:#FFFFFF;}
	.st4{clip-path:url(#SVGID_4_);}
	.st5{clip-path:url(#SVGID_6_);}
	.st6{clip-path:url(#SVGID_8_);}
</style>
<g id="Layer_2_1_">
	<g id="Layer_1-2">
		<path class="st0" d="M348.6,151.3h-23.8V63.5h23.8c7.9-0.2,15.6,1.7,22.5,5.5c6.4,3.6,11.7,8.9,15.2,15.4c3.6,6.6,5.5,14.2,5.5,23
			s-1.8,16.4-5.5,23c-3.5,6.4-8.8,11.8-15.2,15.4C364.3,149.5,356.5,151.5,348.6,151.3z M348.6,70.4h-16.9v74h16.9
			c6.6,0.2,13.2-1.4,19.1-4.6c5.4-3,9.8-7.4,12.7-12.8c3-5.5,4.5-12,4.5-19.6c0-7.5-1.5-14-4.5-19.6c-2.9-5.4-7.3-9.9-12.7-12.9
			C361.9,71.9,355.3,70.3,348.6,70.4z"/>
		<path class="st0" d="M407.8,63.5h47.1v6.5h-40.2v29.8h37.7v6.5h-37.7v38.4h40.2v6.5h-47.1V63.5z"/>
		<path class="st0" d="M475.4,126c1.3,3.5,3.1,6.9,5.2,10c2,2.9,4.5,5.4,7.6,7.2c3.3,1.9,7,2.8,10.8,2.7c5.7,0,10.1-1.6,13.3-4.7
			c3.2-3.1,5-7.5,4.8-12c0.2-3.6-0.8-7.2-2.9-10.2c-2-2.7-4.5-4.9-7.5-6.4c-3.1-1.7-6.3-3.1-9.6-4.3c-2.5-0.9-5.1-2-7.8-3.3
			c-2.7-1.3-5.2-2.9-7.6-4.8c-2.3-1.9-4.3-4.2-5.7-6.8c-1.5-3-2.3-6.3-2.2-9.7c-0.2-7.9,4.3-15.1,11.3-18.5c3.8-1.9,8-2.8,12.2-2.7
			c4.2-0.1,8.3,0.8,12.1,2.6c3.2,1.6,6.1,3.9,8.5,6.6c2.1,2.5,3.9,5.3,5.1,8.3l-6,3.4c-1.1-2.4-2.4-4.6-4-6.7
			c-1.7-2.2-3.9-4.1-6.4-5.4c-3-1.6-6.3-2.3-9.7-2.2c-5.1,0-9,1.3-11.8,4c-2.7,2.5-4.2,6.1-4.1,9.8c-0.1,4.5,1.8,8.9,5.3,11.8
			c3.5,3,8.9,5.8,16,8.3c3.5,1.3,6.8,2.9,9.9,4.8c3.4,2.1,6.2,4.8,8.5,8.1c2.3,3.3,3.5,7.6,3.5,12.7c0.1,4.4-1.1,8.8-3.4,12.5
			c-2.2,3.6-5.4,6.5-9.1,8.4c-4,2-8.4,3.1-12.9,3c-4.7,0.1-9.3-1-13.4-3.2c-3.8-2.1-7.1-4.9-9.7-8.4c-2.6-3.4-4.6-7.3-6-11.3
			L475.4,126z"/>
		<path class="st0" d="M540.2,63.5h6.9v87.8h-6.9V63.5z"/>
		<path class="st0" d="M608.9,114.1v-6.5h39c0,5.8-0.9,11.5-2.8,17c-1.8,5.3-4.6,10.1-8.2,14.4c-3.6,4.2-8,7.6-13,9.9
			c-5.4,2.5-11.3,3.7-17.3,3.6c-5.9,0.1-11.8-1.1-17.3-3.3c-5.2-2.2-9.9-5.3-13.9-9.3c-4-4.1-7.1-9-9.2-14.3
			c-2.2-5.7-3.3-11.8-3.3-18c-0.1-6.2,1-12.3,3.3-18.1c4.1-10.7,12.5-19.3,23.1-23.6c5.5-2.3,11.4-3.4,17.4-3.3
			c8.1,0,15.2,1.7,21.2,5c6,3.3,11,8,14.7,13.8l-5,4.4c-3-4.9-7.2-9-12.3-11.8c-5.7-3.1-12.1-4.7-18.6-4.5
			c-13.1-0.2-25.3,6.8-31.6,18.2c-3.3,6.1-5,12.9-4.8,19.8c-0.1,6.9,1.5,13.7,4.8,19.7c6.3,11.5,18.5,18.6,31.7,18.4
			c11.7,0.4,22.7-5.7,28.6-15.8c2.8-4.8,4.6-10.1,5.1-15.7L608.9,114.1z"/>
		<path class="st0" d="M731.3,63.5h6.9v91.1l-66.7-76.6v73.2h-6.9V60.1l66.7,76.8V63.5z"/>
		<path class="st0" d="M337.5,233.6c2.3,4.3,5.6,8,9.6,10.8c3.5,2.4,7.6,3.8,11.8,3.8c2,0.1,4-0.4,5.7-1.4c1.5-0.9,2.5-2.6,2.4-4.3
			c0-1.2-0.4-2.3-1.2-3.1c-1.5-1.3-3.1-2.3-4.9-3c-2.4-1.1-6.1-2.6-11.1-4.6c-2.2-0.9-4.7-2-7.5-3.5c-2.9-1.6-5.7-3.5-8.1-5.7
			c-2.6-2.5-4.8-5.4-6.4-8.6c-1.8-3.7-2.7-7.9-2.5-12c0-6,1.6-11,4.8-15.1c3.3-4.2,7.8-7.4,12.8-9.3c5.6-2.1,11.5-3.2,17.5-3.1
			c6-0.1,12,0.9,17.7,3.1c4.5,1.8,8.6,4.5,12.1,7.8c2.9,2.7,5.3,5.9,7.2,9.4l-21.3,11.8c-1.8-2.9-4.2-5.2-7.2-6.9
			c-2.4-1.3-5-2-7.7-2c-1.7-0.1-3.4,0.3-4.9,1.1c-1.2,0.6-2,1.9-1.9,3.3c0,1.9,1,3.6,2.7,4.5c2.2,1.4,4.6,2.5,7.1,3.3
			c3,1,6.2,2.2,9.8,3.5c7.3,2.5,13,6.1,17.2,10.8c4.1,4.7,6.2,10.6,6.2,17.6c0.2,9.1-4.1,17.7-11.5,23c-3.6,2.6-7.7,4.5-11.9,5.7
			c-4.5,1.3-9.1,2-13.7,2c-6.2,0.1-12.4-1-18.2-3.2c-5.4-2-10.3-5-14.5-8.8c-3.9-3.5-7.1-7.8-9.3-12.5L337.5,233.6z"/>
		<path class="st0" d="M463.3,176.9h33.3l-32.9,55.5v35.9h-29.4v-35.6l-33-55.7h33.3l14.4,29.5L463.3,176.9z"/>
		<path class="st0" d="M519.2,233.6c2.3,4.3,5.6,8,9.6,10.8c3.5,2.4,7.6,3.8,11.8,3.8c2,0.1,4-0.4,5.7-1.4c1.6-0.9,2.5-2.6,2.3-4.4
			c0-1.2-0.4-2.3-1.2-3.1c-1.5-1.3-3.1-2.3-4.9-3c-2.4-1.1-6.1-2.7-11.1-4.6c-2.2-0.9-4.7-2-7.5-3.5c-2.9-1.6-5.7-3.5-8.1-5.7
			c-2.6-2.5-4.8-5.4-6.4-8.6c-1.8-3.7-2.7-7.9-2.5-12c0-6,1.6-11,4.8-15.1c3.3-4.2,7.8-7.4,12.8-9.3c5.6-2.1,11.5-3.2,17.5-3.1
			c6-0.1,12.1,0.9,17.7,3.1c4.5,1.8,8.6,4.5,12.1,7.8c2.9,2.7,5.3,5.9,7.2,9.4l-21.3,11.8c-1.8-2.9-4.3-5.2-7.2-6.9
			c-2.4-1.3-5-2-7.7-2c-1.7-0.1-3.4,0.3-4.9,1.1c-1.2,0.6-2,1.9-1.9,3.3c0,1.9,1,3.6,2.7,4.5c2.2,1.4,4.6,2.5,7.1,3.3
			c3,1,6.2,2.2,9.8,3.5c7.3,2.5,13,6.1,17.2,10.8c4.1,4.7,6.2,10.6,6.2,17.6c0.2,9.1-4.1,17.7-11.5,23c-3.6,2.6-7.7,4.5-11.9,5.7
			c-4.4,1.3-9.1,2-13.7,2c-6.2,0.1-12.4-1-18.2-3.2c-5.4-2-10.3-5-14.5-8.8c-3.9-3.5-7.1-7.8-9.3-12.5L519.2,233.6z"/>
		<path class="st0" d="M583.6,202.4v-25.5h80.9v25.4h-26.1v65.9h-28.7v-65.9L583.6,202.4z"/>
		<path class="st0" d="M673.7,176.9h65.9v22.8h-38.5v10.4H737v22.2h-35.9v13.1h38.5v22.8h-65.9V176.9z"/>
		<path class="st0" d="M786.7,231l-4.7,37.3h-30.7l17-95.9l40.5,49.3l40.5-49.3l17,95.9h-30.7l-4.7-37.3l-22,28.8L786.7,231z"/>
		<path class="st0" d="M44.7,47.1h256.6l0,0v232.6l0,0H44.7c-8.1,0-14.7-6.6-14.7-14.7V61.9C30,53.7,36.6,47.1,44.7,47.1z"/>
		<path class="st1" d="M111.8,68.7c15.9,0,28.7,12.9,28.7,28.8s-12.9,28.7-28.8,28.7c-15.9,0-28.7-12.9-28.7-28.8
			C83,81.6,95.9,68.7,111.8,68.7z M111.8,134.9c15.9,0,28.7,12.9,28.7,28.8s-12.9,28.7-28.8,28.7c-15.9,0-28.7-12.9-28.7-28.8
			C83,147.8,95.9,134.9,111.8,134.9C111.8,134.9,111.8,134.9,111.8,134.9z M256.6,72.3l-55.7,91.4l55.7,91.4h-53.3l-54.1-91.4
			l54.1-91.4L256.6,72.3z M111.8,201c15.9,0,28.7,12.9,28.7,28.8s-12.9,28.7-28.8,28.7c-15.9,0-28.7-12.9-28.7-28.8
			C83,213.9,95.9,201,111.8,201z"/>
		<g>
			<defs>
				<path id="SVGID_1_" d="M111.8,68.7c15.9,0,28.7,12.9,28.7,28.8s-12.9,28.7-28.8,28.7c-15.9,0-28.7-12.9-28.7-28.8
					C83,81.6,95.9,68.7,111.8,68.7z M111.8,134.9c15.9,0,28.7,12.9,28.7,28.8s-12.9,28.7-28.8,28.7c-15.9,0-28.7-12.9-28.7-28.8
					C83,147.8,95.9,134.9,111.8,134.9C111.8,134.9,111.8,134.9,111.8,134.9z M256.6,72.3l-55.7,91.4l55.7,91.4h-53.3l-54.1-91.4
					l54.1-91.4L256.6,72.3z M111.8,201c15.9,0,28.7,12.9,28.7,28.8s-12.9,28.7-28.8,28.7c-15.9,0-28.7-12.9-28.7-28.8
					C83,213.9,95.9,201,111.8,201z"/>
			</defs>
			<clipPath id="SVGID_2_">
				<use xlink:href="#SVGID_1_"  style="overflow:visible;"/>
			</clipPath>
			<g class="st2">
				<rect x="-551" y="-1847" class="st3" width="1437.8" height="2557.4"/>
				<g>
					<defs>
						<rect id="SVGID_3_" x="-551" y="-1847" width="1437.8" height="2557.4"/>
					</defs>
					<clipPath id="SVGID_4_">
						<use xlink:href="#SVGID_3_"  style="overflow:visible;"/>
					</clipPath>
					<g class="st4">
						<g>
							<rect x="62.5" y="47.1" class="st3" width="214.7" height="233.9"/>
							<g>
								<defs>
									<rect id="SVGID_5_" x="62.5" y="47.1" width="214.7" height="233.9"/>
								</defs>
								<clipPath id="SVGID_6_">
									<use xlink:href="#SVGID_5_"  style="overflow:visible;"/>
								</clipPath>
								<g class="st5">
									<rect x="81.7" y="66.3" class="st3" width="176.4" height="195.6"/>
									<g>
										<defs>
											<rect id="SVGID_7_" x="81.7" y="66.3" width="176.4" height="195.6"/>
										</defs>
										<clipPath id="SVGID_8_">
											<use xlink:href="#SVGID_7_"  style="overflow:visible;"/>
										</clipPath>
										<g class="st6">
											<rect x="63.8" y="49.6" class="st3" width="212.1" height="228.2"/>
										</g>
									</g>
								</g>
							</g>
						</g>
					</g>
				</g>
			</g>
		</g>
	</g>
</g>
</svg>
